<svg width="816" height="394" viewBox="0 0 816 394" fill="none" xmlns="http://www.w3.org/2000/svg">
<g filter="url(#filter0_dd_1309_6314)">
<path d="M146 79C146 70.1634 153.163 63 162 63H725C733.837 63 741 70.1634 741 79V130C741 138.837 733.837 146 725 146H162C153.163 146 146 138.837 146 130V79Z" fill="white"/>
</g>
<path d="M181 80.5H274C287.531 80.5 298.5 91.469 298.5 105C298.5 118.531 287.531 129.5 274 129.5H181C167.469 129.5 156.5 118.531 156.5 105C156.5 91.469 167.469 80.5 181 80.5Z" stroke="#ABBAC6"/>
<path d="M187.821 93.818C188.614 93.818 189.254 94.0747 189.739 94.588C190.224 95.1013 190.467 95.792 190.467 96.66V101H188.955V96.758C188.955 96.2727 188.834 95.8993 188.591 95.638C188.348 95.3673 188.017 95.232 187.597 95.232C187.13 95.232 186.757 95.386 186.477 95.694C186.206 96.002 186.071 96.464 186.071 97.08V101H184.559V96.758C184.559 96.2727 184.442 95.8993 184.209 95.638C183.985 95.3673 183.663 95.232 183.243 95.232C182.786 95.232 182.412 95.3907 182.123 95.708C181.834 96.016 181.689 96.4733 181.689 97.08V101H180.177V94H181.689V94.84C182.137 94.1587 182.804 93.818 183.691 93.818C184.587 93.818 185.25 94.1867 185.679 94.924C186.146 94.1867 186.86 93.818 187.821 93.818ZM198.129 94H199.641V101H198.129V99.992C197.56 100.785 196.743 101.182 195.679 101.182C194.718 101.182 193.896 100.827 193.215 100.118C192.534 99.3993 192.193 98.5267 192.193 97.5C192.193 96.464 192.534 95.5913 193.215 94.882C193.896 94.1727 194.718 93.818 195.679 93.818C196.743 93.818 197.56 94.21 198.129 94.994V94ZM194.335 99.11C194.755 99.53 195.282 99.74 195.917 99.74C196.552 99.74 197.079 99.53 197.499 99.11C197.919 98.6807 198.129 98.144 198.129 97.5C198.129 96.856 197.919 96.324 197.499 95.904C197.079 95.4747 196.552 95.26 195.917 95.26C195.282 95.26 194.755 95.4747 194.335 95.904C193.915 96.324 193.705 96.856 193.705 97.5C193.705 98.144 193.915 98.6807 194.335 99.11ZM205.585 93.818C206.388 93.818 207.037 94.0747 207.531 94.588C208.026 95.1013 208.273 95.806 208.273 96.702V101H206.761V96.856C206.761 96.3333 206.621 95.932 206.341 95.652C206.061 95.372 205.679 95.232 205.193 95.232C204.661 95.232 204.232 95.4 203.905 95.736C203.579 96.0627 203.415 96.5667 203.415 97.248V101H201.903V94H203.415V94.896C203.873 94.1773 204.596 93.818 205.585 93.818ZM215.946 94H217.458V101H215.946V99.992C215.376 100.785 214.56 101.182 213.496 101.182C212.534 101.182 211.713 100.827 211.032 100.118C210.35 99.3993 210.01 98.5267 210.01 97.5C210.01 96.464 210.35 95.5913 211.032 94.882C211.713 94.1727 212.534 93.818 213.496 93.818C214.56 93.818 215.376 94.21 215.946 94.994V94ZM212.152 99.11C212.572 99.53 213.099 99.74 213.734 99.74C214.368 99.74 214.896 99.53 215.316 99.11C215.736 98.6807 215.946 98.144 215.946 97.5C215.946 96.856 215.736 96.324 215.316 95.904C214.896 95.4747 214.368 95.26 213.734 95.26C213.099 95.26 212.572 95.4747 212.152 95.904C211.732 96.324 211.522 96.856 211.522 97.5C211.522 98.144 211.732 98.6807 212.152 99.11ZM225.292 94H226.776V100.678C226.776 101.742 226.426 102.559 225.726 103.128C225.026 103.697 224.177 103.982 223.178 103.982C221.563 103.982 220.457 103.417 219.86 102.288L221.162 101.532C221.526 102.251 222.207 102.61 223.206 102.61C223.859 102.61 224.368 102.437 224.732 102.092C225.105 101.756 225.292 101.285 225.292 100.678V99.824C224.723 100.636 223.911 101.042 222.856 101.042C221.867 101.042 221.031 100.692 220.35 99.992C219.669 99.2827 219.328 98.4287 219.328 97.43C219.328 96.4313 219.669 95.582 220.35 94.882C221.031 94.1727 221.867 93.818 222.856 93.818C223.911 93.818 224.723 94.224 225.292 95.036V94ZM221.47 98.998C221.899 99.418 222.431 99.628 223.066 99.628C223.701 99.628 224.228 99.418 224.648 98.998C225.077 98.578 225.292 98.0553 225.292 97.43C225.292 96.8047 225.077 96.282 224.648 95.862C224.228 95.442 223.701 95.232 223.066 95.232C222.431 95.232 221.899 95.442 221.47 95.862C221.05 96.282 220.84 96.8047 220.84 97.43C220.84 98.0553 221.05 98.578 221.47 98.998ZM230.228 98.144C230.34 98.676 230.597 99.0867 230.998 99.376C231.4 99.656 231.89 99.796 232.468 99.796C233.271 99.796 233.873 99.5067 234.274 98.928L235.52 99.656C234.83 100.673 233.808 101.182 232.454 101.182C231.316 101.182 230.396 100.837 229.696 100.146C228.996 99.446 228.646 98.564 228.646 97.5C228.646 96.4547 228.992 95.582 229.682 94.882C230.373 94.1727 231.26 93.818 232.342 93.818C233.369 93.818 234.209 94.1773 234.862 94.896C235.525 95.6147 235.856 96.4873 235.856 97.514C235.856 97.6727 235.838 97.8827 235.8 98.144H230.228ZM230.214 96.912H234.33C234.228 96.3427 233.99 95.9133 233.616 95.624C233.252 95.3347 232.823 95.19 232.328 95.19C231.768 95.19 231.302 95.344 230.928 95.652C230.555 95.96 230.317 96.38 230.214 96.912ZM245.331 93.818C246.124 93.818 246.763 94.0747 247.249 94.588C247.734 95.1013 247.977 95.792 247.977 96.66V101H246.465V96.758C246.465 96.2727 246.343 95.8993 246.101 95.638C245.858 95.3673 245.527 95.232 245.107 95.232C244.64 95.232 244.267 95.386 243.987 95.694C243.716 96.002 243.581 96.464 243.581 97.08V101H242.069V96.758C242.069 96.2727 241.952 95.8993 241.719 95.638C241.495 95.3673 241.173 95.232 240.753 95.232C240.295 95.232 239.922 95.3907 239.633 95.708C239.343 96.016 239.199 96.4733 239.199 97.08V101H237.687V94H239.199V94.84C239.647 94.1587 240.314 93.818 241.201 93.818C242.097 93.818 242.759 94.1867 243.189 94.924C243.655 94.1867 244.369 93.818 245.331 93.818ZM251.285 98.144C251.397 98.676 251.654 99.0867 252.055 99.376C252.456 99.656 252.946 99.796 253.525 99.796C254.328 99.796 254.93 99.5067 255.331 98.928L256.577 99.656C255.886 100.673 254.864 101.182 253.511 101.182C252.372 101.182 251.453 100.837 250.753 100.146C250.053 99.446 249.703 98.564 249.703 97.5C249.703 96.4547 250.048 95.582 250.739 94.882C251.43 94.1727 252.316 93.818 253.399 93.818C254.426 93.818 255.266 94.1773 255.919 94.896C256.582 95.6147 256.913 96.4873 256.913 97.514C256.913 97.6727 256.894 97.8827 256.857 98.144H251.285ZM251.271 96.912H255.387C255.284 96.3427 255.046 95.9133 254.673 95.624C254.309 95.3347 253.88 95.19 253.385 95.19C252.825 95.19 252.358 95.344 251.985 95.652C251.612 95.96 251.374 96.38 251.271 96.912ZM262.425 93.818C263.228 93.818 263.877 94.0747 264.371 94.588C264.866 95.1013 265.113 95.806 265.113 96.702V101H263.601V96.856C263.601 96.3333 263.461 95.932 263.181 95.652C262.901 95.372 262.519 95.232 262.033 95.232C261.501 95.232 261.072 95.4 260.745 95.736C260.419 96.0627 260.255 96.5667 260.255 97.248V101H258.743V94H260.255V94.896C260.713 94.1773 261.436 93.818 262.425 93.818ZM271.147 95.456H269.411V98.816C269.411 99.1053 269.477 99.3153 269.607 99.446C269.738 99.5673 269.929 99.6373 270.181 99.656C270.443 99.6653 270.765 99.6607 271.147 99.642V101C269.99 101.14 269.159 101.042 268.655 100.706C268.151 100.361 267.899 99.7307 267.899 98.816V95.456H266.611V94H267.899V92.488L269.411 92.04V94H271.147V95.456ZM187.637 116.182C186.583 116.182 185.701 115.827 184.991 115.118C184.291 114.409 183.941 113.536 183.941 112.5C183.941 111.455 184.291 110.582 184.991 109.882C185.701 109.173 186.583 108.818 187.637 108.818C188.319 108.818 188.939 108.981 189.499 109.308C190.059 109.635 190.479 110.073 190.759 110.624L189.457 111.38C189.299 111.044 189.056 110.783 188.729 110.596C188.412 110.4 188.043 110.302 187.623 110.302C187.007 110.302 186.489 110.512 186.069 110.932C185.659 111.352 185.453 111.875 185.453 112.5C185.453 113.125 185.659 113.648 186.069 114.068C186.489 114.488 187.007 114.698 187.623 114.698C188.034 114.698 188.403 114.6 188.729 114.404C189.065 114.208 189.317 113.947 189.485 113.62L190.787 114.362C190.489 114.922 190.059 115.365 189.499 115.692C188.939 116.019 188.319 116.182 187.637 116.182ZM195.575 116.182C194.548 116.182 193.675 115.827 192.957 115.118C192.238 114.409 191.879 113.536 191.879 112.5C191.879 111.464 192.238 110.591 192.957 109.882C193.675 109.173 194.548 108.818 195.575 108.818C196.611 108.818 197.483 109.173 198.193 109.882C198.911 110.591 199.271 111.464 199.271 112.5C199.271 113.536 198.911 114.409 198.193 115.118C197.483 115.827 196.611 116.182 195.575 116.182ZM194.021 114.082C194.441 114.502 194.959 114.712 195.575 114.712C196.191 114.712 196.709 114.502 197.129 114.082C197.549 113.662 197.759 113.135 197.759 112.5C197.759 111.865 197.549 111.338 197.129 110.918C196.709 110.498 196.191 110.288 195.575 110.288C194.959 110.288 194.441 110.498 194.021 110.918C193.601 111.338 193.391 111.865 193.391 112.5C193.391 113.135 193.601 113.662 194.021 114.082ZM208.782 108.818C209.575 108.818 210.215 109.075 210.7 109.588C211.185 110.101 211.428 110.792 211.428 111.66V116H209.916V111.758C209.916 111.273 209.795 110.899 209.552 110.638C209.309 110.367 208.978 110.232 208.558 110.232C208.091 110.232 207.718 110.386 207.438 110.694C207.167 111.002 207.032 111.464 207.032 112.08V116H205.52V111.758C205.52 111.273 205.403 110.899 205.17 110.638C204.946 110.367 204.624 110.232 204.204 110.232C203.747 110.232 203.373 110.391 203.084 110.708C202.795 111.016 202.65 111.473 202.65 112.08V116H201.138V109H202.65V109.84C203.098 109.159 203.765 108.818 204.652 108.818C205.548 108.818 206.211 109.187 206.64 109.924C207.107 109.187 207.821 108.818 208.782 108.818ZM217.508 108.818C218.469 108.818 219.291 109.177 219.972 109.896C220.653 110.605 220.994 111.473 220.994 112.5C220.994 113.536 220.653 114.409 219.972 115.118C219.291 115.827 218.469 116.182 217.508 116.182C216.444 116.182 215.627 115.79 215.058 115.006V118.8H213.546V109H215.058V110.008C215.627 109.215 216.444 108.818 217.508 108.818ZM215.688 114.11C216.108 114.53 216.635 114.74 217.27 114.74C217.905 114.74 218.432 114.53 218.852 114.11C219.272 113.681 219.482 113.144 219.482 112.5C219.482 111.856 219.272 111.324 218.852 110.904C218.432 110.475 217.905 110.26 217.27 110.26C216.635 110.26 216.108 110.475 215.688 110.904C215.268 111.324 215.058 111.856 215.058 112.5C215.058 113.144 215.268 113.681 215.688 114.11ZM226.168 116.182C225.142 116.182 224.269 115.827 223.55 115.118C222.832 114.409 222.472 113.536 222.472 112.5C222.472 111.464 222.832 110.591 223.55 109.882C224.269 109.173 225.142 108.818 226.168 108.818C227.204 108.818 228.077 109.173 228.786 109.882C229.505 110.591 229.864 111.464 229.864 112.5C229.864 113.536 229.505 114.409 228.786 115.118C228.077 115.827 227.204 116.182 226.168 116.182ZM224.614 114.082C225.034 114.502 225.552 114.712 226.168 114.712C226.784 114.712 227.302 114.502 227.722 114.082C228.142 113.662 228.352 113.135 228.352 112.5C228.352 111.865 228.142 111.338 227.722 110.918C227.302 110.498 226.784 110.288 226.168 110.288C225.552 110.288 225.034 110.498 224.614 110.918C224.194 111.338 223.984 111.865 223.984 112.5C223.984 113.135 224.194 113.662 224.614 114.082ZM235.414 108.818C236.216 108.818 236.865 109.075 237.36 109.588C237.854 110.101 238.102 110.806 238.102 111.702V116H236.59V111.856C236.59 111.333 236.45 110.932 236.17 110.652C235.89 110.372 235.507 110.232 235.022 110.232C234.49 110.232 234.06 110.4 233.734 110.736C233.407 111.063 233.244 111.567 233.244 112.248V116H231.732V109H233.244V109.896C233.701 109.177 234.424 108.818 235.414 108.818ZM241.42 113.144C241.532 113.676 241.788 114.087 242.19 114.376C242.591 114.656 243.081 114.796 243.66 114.796C244.462 114.796 245.064 114.507 245.466 113.928L246.712 114.656C246.021 115.673 244.999 116.182 243.646 116.182C242.507 116.182 241.588 115.837 240.888 115.146C240.188 114.446 239.838 113.564 239.838 112.5C239.838 111.455 240.183 110.582 240.874 109.882C241.564 109.173 242.451 108.818 243.534 108.818C244.56 108.818 245.4 109.177 246.054 109.896C246.716 110.615 247.048 111.487 247.048 112.514C247.048 112.673 247.029 112.883 246.992 113.144H241.42ZM241.406 111.912H245.522C245.419 111.343 245.181 110.913 244.808 110.624C244.444 110.335 244.014 110.19 243.52 110.19C242.96 110.19 242.493 110.344 242.12 110.652C241.746 110.96 241.508 111.38 241.406 111.912ZM252.56 108.818C253.363 108.818 254.011 109.075 254.506 109.588C255.001 110.101 255.248 110.806 255.248 111.702V116H253.736V111.856C253.736 111.333 253.596 110.932 253.316 110.652C253.036 110.372 252.653 110.232 252.168 110.232C251.636 110.232 251.207 110.4 250.88 110.736C250.553 111.063 250.39 111.567 250.39 112.248V116H248.878V109H250.39V109.896C250.847 109.177 251.571 108.818 252.56 108.818ZM261.282 110.456H259.546V113.816C259.546 114.105 259.611 114.315 259.742 114.446C259.873 114.567 260.064 114.637 260.316 114.656C260.577 114.665 260.899 114.661 261.282 114.642V116C260.125 116.14 259.294 116.042 258.79 115.706C258.286 115.361 258.034 114.731 258.034 113.816V110.456H256.746V109H258.034V107.488L259.546 107.04V109H261.282V110.456ZM269.098 106.2H270.498V116H268.888V107.922L266.914 108.482L266.522 107.11L269.098 106.2Z" fill="#003359"/>
<path d="M334 80.5H427C440.531 80.5 451.5 91.469 451.5 105C451.5 118.531 440.531 129.5 427 129.5H334C320.469 129.5 309.5 118.531 309.5 105C309.5 91.469 320.469 80.5 334 80.5Z" stroke="#ABBAC6"/>
<path d="M340.821 93.818C341.614 93.818 342.254 94.0747 342.739 94.588C343.224 95.1013 343.467 95.792 343.467 96.66V101H341.955V96.758C341.955 96.2727 341.834 95.8993 341.591 95.638C341.348 95.3673 341.017 95.232 340.597 95.232C340.13 95.232 339.757 95.386 339.477 95.694C339.206 96.002 339.071 96.464 339.071 97.08V101H337.559V96.758C337.559 96.2727 337.442 95.8993 337.209 95.638C336.985 95.3673 336.663 95.232 336.243 95.232C335.786 95.232 335.412 95.3907 335.123 95.708C334.834 96.016 334.689 96.4733 334.689 97.08V101H333.177V94H334.689V94.84C335.137 94.1587 335.804 93.818 336.691 93.818C337.587 93.818 338.25 94.1867 338.679 94.924C339.146 94.1867 339.86 93.818 340.821 93.818ZM351.129 94H352.641V101H351.129V99.992C350.56 100.785 349.743 101.182 348.679 101.182C347.718 101.182 346.896 100.827 346.215 100.118C345.534 99.3993 345.193 98.5267 345.193 97.5C345.193 96.464 345.534 95.5913 346.215 94.882C346.896 94.1727 347.718 93.818 348.679 93.818C349.743 93.818 350.56 94.21 351.129 94.994V94ZM347.335 99.11C347.755 99.53 348.282 99.74 348.917 99.74C349.552 99.74 350.079 99.53 350.499 99.11C350.919 98.6807 351.129 98.144 351.129 97.5C351.129 96.856 350.919 96.324 350.499 95.904C350.079 95.4747 349.552 95.26 348.917 95.26C348.282 95.26 347.755 95.4747 347.335 95.904C346.915 96.324 346.705 96.856 346.705 97.5C346.705 98.144 346.915 98.6807 347.335 99.11ZM358.585 93.818C359.388 93.818 360.037 94.0747 360.531 94.588C361.026 95.1013 361.273 95.806 361.273 96.702V101H359.761V96.856C359.761 96.3333 359.621 95.932 359.341 95.652C359.061 95.372 358.679 95.232 358.193 95.232C357.661 95.232 357.232 95.4 356.905 95.736C356.579 96.0627 356.415 96.5667 356.415 97.248V101H354.903V94H356.415V94.896C356.873 94.1773 357.596 93.818 358.585 93.818ZM368.946 94H370.458V101H368.946V99.992C368.376 100.785 367.56 101.182 366.496 101.182C365.534 101.182 364.713 100.827 364.032 100.118C363.35 99.3993 363.01 98.5267 363.01 97.5C363.01 96.464 363.35 95.5913 364.032 94.882C364.713 94.1727 365.534 93.818 366.496 93.818C367.56 93.818 368.376 94.21 368.946 94.994V94ZM365.152 99.11C365.572 99.53 366.099 99.74 366.734 99.74C367.368 99.74 367.896 99.53 368.316 99.11C368.736 98.6807 368.946 98.144 368.946 97.5C368.946 96.856 368.736 96.324 368.316 95.904C367.896 95.4747 367.368 95.26 366.734 95.26C366.099 95.26 365.572 95.4747 365.152 95.904C364.732 96.324 364.522 96.856 364.522 97.5C364.522 98.144 364.732 98.6807 365.152 99.11ZM378.292 94H379.776V100.678C379.776 101.742 379.426 102.559 378.726 103.128C378.026 103.697 377.177 103.982 376.178 103.982C374.563 103.982 373.457 103.417 372.86 102.288L374.162 101.532C374.526 102.251 375.207 102.61 376.206 102.61C376.859 102.61 377.368 102.437 377.732 102.092C378.105 101.756 378.292 101.285 378.292 100.678V99.824C377.723 100.636 376.911 101.042 375.856 101.042C374.867 101.042 374.031 100.692 373.35 99.992C372.669 99.2827 372.328 98.4287 372.328 97.43C372.328 96.4313 372.669 95.582 373.35 94.882C374.031 94.1727 374.867 93.818 375.856 93.818C376.911 93.818 377.723 94.224 378.292 95.036V94ZM374.47 98.998C374.899 99.418 375.431 99.628 376.066 99.628C376.701 99.628 377.228 99.418 377.648 98.998C378.077 98.578 378.292 98.0553 378.292 97.43C378.292 96.8047 378.077 96.282 377.648 95.862C377.228 95.442 376.701 95.232 376.066 95.232C375.431 95.232 374.899 95.442 374.47 95.862C374.05 96.282 373.84 96.8047 373.84 97.43C373.84 98.0553 374.05 98.578 374.47 98.998ZM383.228 98.144C383.34 98.676 383.597 99.0867 383.998 99.376C384.4 99.656 384.89 99.796 385.468 99.796C386.271 99.796 386.873 99.5067 387.274 98.928L388.52 99.656C387.83 100.673 386.808 101.182 385.454 101.182C384.316 101.182 383.396 100.837 382.696 100.146C381.996 99.446 381.646 98.564 381.646 97.5C381.646 96.4547 381.992 95.582 382.682 94.882C383.373 94.1727 384.26 93.818 385.342 93.818C386.369 93.818 387.209 94.1773 387.862 94.896C388.525 95.6147 388.856 96.4873 388.856 97.514C388.856 97.6727 388.838 97.8827 388.8 98.144H383.228ZM383.214 96.912H387.33C387.228 96.3427 386.99 95.9133 386.616 95.624C386.252 95.3347 385.823 95.19 385.328 95.19C384.768 95.19 384.302 95.344 383.928 95.652C383.555 95.96 383.317 96.38 383.214 96.912ZM398.331 93.818C399.124 93.818 399.763 94.0747 400.249 94.588C400.734 95.1013 400.977 95.792 400.977 96.66V101H399.465V96.758C399.465 96.2727 399.343 95.8993 399.101 95.638C398.858 95.3673 398.527 95.232 398.107 95.232C397.64 95.232 397.267 95.386 396.987 95.694C396.716 96.002 396.581 96.464 396.581 97.08V101H395.069V96.758C395.069 96.2727 394.952 95.8993 394.719 95.638C394.495 95.3673 394.173 95.232 393.753 95.232C393.295 95.232 392.922 95.3907 392.633 95.708C392.343 96.016 392.199 96.4733 392.199 97.08V101H390.687V94H392.199V94.84C392.647 94.1587 393.314 93.818 394.201 93.818C395.097 93.818 395.759 94.1867 396.189 94.924C396.655 94.1867 397.369 93.818 398.331 93.818ZM404.285 98.144C404.397 98.676 404.654 99.0867 405.055 99.376C405.456 99.656 405.946 99.796 406.525 99.796C407.328 99.796 407.93 99.5067 408.331 98.928L409.577 99.656C408.886 100.673 407.864 101.182 406.511 101.182C405.372 101.182 404.453 100.837 403.753 100.146C403.053 99.446 402.703 98.564 402.703 97.5C402.703 96.4547 403.048 95.582 403.739 94.882C404.43 94.1727 405.316 93.818 406.399 93.818C407.426 93.818 408.266 94.1773 408.919 94.896C409.582 95.6147 409.913 96.4873 409.913 97.514C409.913 97.6727 409.894 97.8827 409.857 98.144H404.285ZM404.271 96.912H408.387C408.284 96.3427 408.046 95.9133 407.673 95.624C407.309 95.3347 406.88 95.19 406.385 95.19C405.825 95.19 405.358 95.344 404.985 95.652C404.612 95.96 404.374 96.38 404.271 96.912ZM415.425 93.818C416.228 93.818 416.877 94.0747 417.371 94.588C417.866 95.1013 418.113 95.806 418.113 96.702V101H416.601V96.856C416.601 96.3333 416.461 95.932 416.181 95.652C415.901 95.372 415.519 95.232 415.033 95.232C414.501 95.232 414.072 95.4 413.745 95.736C413.419 96.0627 413.255 96.5667 413.255 97.248V101H411.743V94H413.255V94.896C413.713 94.1773 414.436 93.818 415.425 93.818ZM424.147 95.456H422.411V98.816C422.411 99.1053 422.477 99.3153 422.607 99.446C422.738 99.5673 422.929 99.6373 423.181 99.656C423.443 99.6653 423.765 99.6607 424.147 99.642V101C422.99 101.14 422.159 101.042 421.655 100.706C421.151 100.361 420.899 99.7307 420.899 98.816V95.456H419.611V94H420.899V92.488L422.411 92.04V94H424.147V95.456ZM339.537 116.182C338.482 116.182 337.6 115.827 336.891 115.118C336.191 114.409 335.841 113.536 335.841 112.5C335.841 111.455 336.191 110.582 336.891 109.882C337.6 109.173 338.482 108.818 339.537 108.818C340.218 108.818 340.839 108.981 341.399 109.308C341.959 109.635 342.379 110.073 342.659 110.624L341.357 111.38C341.198 111.044 340.955 110.783 340.629 110.596C340.311 110.4 339.943 110.302 339.523 110.302C338.907 110.302 338.389 110.512 337.969 110.932C337.558 111.352 337.353 111.875 337.353 112.5C337.353 113.125 337.558 113.648 337.969 114.068C338.389 114.488 338.907 114.698 339.523 114.698C339.933 114.698 340.302 114.6 340.629 114.404C340.965 114.208 341.217 113.947 341.385 113.62L342.687 114.362C342.388 114.922 341.959 115.365 341.399 115.692C340.839 116.019 340.218 116.182 339.537 116.182ZM347.474 116.182C346.447 116.182 345.575 115.827 344.856 115.118C344.137 114.409 343.778 113.536 343.778 112.5C343.778 111.464 344.137 110.591 344.856 109.882C345.575 109.173 346.447 108.818 347.474 108.818C348.51 108.818 349.383 109.173 350.092 109.882C350.811 110.591 351.17 111.464 351.17 112.5C351.17 113.536 350.811 114.409 350.092 115.118C349.383 115.827 348.51 116.182 347.474 116.182ZM345.92 114.082C346.34 114.502 346.858 114.712 347.474 114.712C348.09 114.712 348.608 114.502 349.028 114.082C349.448 113.662 349.658 113.135 349.658 112.5C349.658 111.865 349.448 111.338 349.028 110.918C348.608 110.498 348.09 110.288 347.474 110.288C346.858 110.288 346.34 110.498 345.92 110.918C345.5 111.338 345.29 111.865 345.29 112.5C345.29 113.135 345.5 113.662 345.92 114.082ZM360.681 108.818C361.475 108.818 362.114 109.075 362.599 109.588C363.085 110.101 363.327 110.792 363.327 111.66V116H361.815V111.758C361.815 111.273 361.694 110.899 361.451 110.638C361.209 110.367 360.877 110.232 360.457 110.232C359.991 110.232 359.617 110.386 359.337 110.694C359.067 111.002 358.931 111.464 358.931 112.08V116H357.419V111.758C357.419 111.273 357.303 110.899 357.069 110.638C356.845 110.367 356.523 110.232 356.103 110.232C355.646 110.232 355.273 110.391 354.983 110.708C354.694 111.016 354.549 111.473 354.549 112.08V116H353.037V109H354.549V109.84C354.997 109.159 355.665 108.818 356.551 108.818C357.447 108.818 358.11 109.187 358.539 109.924C359.006 109.187 359.72 108.818 360.681 108.818ZM369.407 108.818C370.369 108.818 371.19 109.177 371.871 109.896C372.553 110.605 372.893 111.473 372.893 112.5C372.893 113.536 372.553 114.409 371.871 115.118C371.19 115.827 370.369 116.182 369.407 116.182C368.343 116.182 367.527 115.79 366.957 115.006V118.8H365.445V109H366.957V110.008C367.527 109.215 368.343 108.818 369.407 108.818ZM367.587 114.11C368.007 114.53 368.535 114.74 369.169 114.74C369.804 114.74 370.331 114.53 370.751 114.11C371.171 113.681 371.381 113.144 371.381 112.5C371.381 111.856 371.171 111.324 370.751 110.904C370.331 110.475 369.804 110.26 369.169 110.26C368.535 110.26 368.007 110.475 367.587 110.904C367.167 111.324 366.957 111.856 366.957 112.5C366.957 113.144 367.167 113.681 367.587 114.11ZM378.068 116.182C377.041 116.182 376.169 115.827 375.45 115.118C374.731 114.409 374.372 113.536 374.372 112.5C374.372 111.464 374.731 110.591 375.45 109.882C376.169 109.173 377.041 108.818 378.068 108.818C379.104 108.818 379.977 109.173 380.686 109.882C381.405 110.591 381.764 111.464 381.764 112.5C381.764 113.536 381.405 114.409 380.686 115.118C379.977 115.827 379.104 116.182 378.068 116.182ZM376.514 114.082C376.934 114.502 377.452 114.712 378.068 114.712C378.684 114.712 379.202 114.502 379.622 114.082C380.042 113.662 380.252 113.135 380.252 112.5C380.252 111.865 380.042 111.338 379.622 110.918C379.202 110.498 378.684 110.288 378.068 110.288C377.452 110.288 376.934 110.498 376.514 110.918C376.094 111.338 375.884 111.865 375.884 112.5C375.884 113.135 376.094 113.662 376.514 114.082ZM387.313 108.818C388.116 108.818 388.764 109.075 389.259 109.588C389.754 110.101 390.001 110.806 390.001 111.702V116H388.489V111.856C388.489 111.333 388.349 110.932 388.069 110.652C387.789 110.372 387.406 110.232 386.921 110.232C386.389 110.232 385.96 110.4 385.633 110.736C385.306 111.063 385.143 111.567 385.143 112.248V116H383.631V109H385.143V109.896C385.6 109.177 386.324 108.818 387.313 108.818ZM393.319 113.144C393.431 113.676 393.688 114.087 394.089 114.376C394.49 114.656 394.98 114.796 395.559 114.796C396.362 114.796 396.964 114.507 397.365 113.928L398.611 114.656C397.92 115.673 396.898 116.182 395.545 116.182C394.406 116.182 393.487 115.837 392.787 115.146C392.087 114.446 391.737 113.564 391.737 112.5C391.737 111.455 392.082 110.582 392.773 109.882C393.464 109.173 394.35 108.818 395.433 108.818C396.46 108.818 397.3 109.177 397.953 109.896C398.616 110.615 398.947 111.487 398.947 112.514C398.947 112.673 398.928 112.883 398.891 113.144H393.319ZM393.305 111.912H397.421C397.318 111.343 397.08 110.913 396.707 110.624C396.343 110.335 395.914 110.19 395.419 110.19C394.859 110.19 394.392 110.344 394.019 110.652C393.646 110.96 393.408 111.38 393.305 111.912ZM404.46 108.818C405.262 108.818 405.911 109.075 406.406 109.588C406.9 110.101 407.148 110.806 407.148 111.702V116H405.636V111.856C405.636 111.333 405.496 110.932 405.216 110.652C404.936 110.372 404.553 110.232 404.068 110.232C403.536 110.232 403.106 110.4 402.78 110.736C402.453 111.063 402.29 111.567 402.29 112.248V116H400.778V109H402.29V109.896C402.747 109.177 403.47 108.818 404.46 108.818ZM413.182 110.456H411.446V113.816C411.446 114.105 411.511 114.315 411.642 114.446C411.772 114.567 411.964 114.637 412.216 114.656C412.477 114.665 412.799 114.661 413.182 114.642V116C412.024 116.14 411.194 116.042 410.69 115.706C410.186 115.361 409.934 114.731 409.934 113.816V110.456H408.646V109H409.934V107.488L411.446 107.04V109H413.182V110.456ZM418.673 116V114.74L422.089 111.254C422.92 110.423 423.335 109.705 423.335 109.098C423.335 108.622 423.191 108.253 422.901 107.992C422.621 107.721 422.262 107.586 421.823 107.586C421.002 107.586 420.395 107.992 420.003 108.804L418.645 108.006C418.953 107.353 419.387 106.858 419.947 106.522C420.507 106.186 421.128 106.018 421.809 106.018C422.668 106.018 423.405 106.289 424.021 106.83C424.637 107.371 424.945 108.109 424.945 109.042C424.945 110.041 424.39 111.105 423.279 112.234L421.067 114.446H425.127V116H418.673Z" fill="#003359"/>
<circle cx="469.308" cy="104.308" r="2.30769" fill="#003359"/>
<circle cx="477" cy="104.308" r="2.30769" fill="#003359"/>
<circle cx="484.692" cy="104.308" r="2.30769" fill="#003359"/>
<path d="M50.186 155.182C49.1313 155.182 48.2493 154.827 47.54 154.118C46.84 153.409 46.49 152.536 46.49 151.5C46.49 150.455 46.84 149.582 47.54 148.882C48.2493 148.173 49.1313 147.818 50.186 147.818C50.8673 147.818 51.488 147.981 52.048 148.308C52.608 148.635 53.028 149.073 53.308 149.624L52.006 150.38C51.8473 150.044 51.6047 149.783 51.278 149.596C50.9607 149.4 50.592 149.302 50.172 149.302C49.556 149.302 49.038 149.512 48.618 149.932C48.2073 150.352 48.002 150.875 48.002 151.5C48.002 152.125 48.2073 152.648 48.618 153.068C49.038 153.488 49.556 153.698 50.172 153.698C50.5827 153.698 50.9513 153.6 51.278 153.404C51.614 153.208 51.866 152.947 52.034 152.62L53.336 153.362C53.0373 153.922 52.608 154.365 52.048 154.692C51.488 155.019 50.8673 155.182 50.186 155.182ZM58.1235 155.182C57.0968 155.182 56.2242 154.827 55.5055 154.118C54.7868 153.409 54.4275 152.536 54.4275 151.5C54.4275 150.464 54.7868 149.591 55.5055 148.882C56.2242 148.173 57.0968 147.818 58.1235 147.818C59.1595 147.818 60.0322 148.173 60.7415 148.882C61.4602 149.591 61.8195 150.464 61.8195 151.5C61.8195 152.536 61.4602 153.409 60.7415 154.118C60.0322 154.827 59.1595 155.182 58.1235 155.182ZM56.5695 153.082C56.9895 153.502 57.5075 153.712 58.1235 153.712C58.7395 153.712 59.2575 153.502 59.6775 153.082C60.0975 152.662 60.3075 152.135 60.3075 151.5C60.3075 150.865 60.0975 150.338 59.6775 149.918C59.2575 149.498 58.7395 149.288 58.1235 149.288C57.5075 149.288 56.9895 149.498 56.5695 149.918C56.1495 150.338 55.9395 150.865 55.9395 151.5C55.9395 152.135 56.1495 152.662 56.5695 153.082ZM67.3687 147.818C68.1714 147.818 68.82 148.075 69.3147 148.588C69.8094 149.101 70.0567 149.806 70.0567 150.702V155H68.5447V150.856C68.5447 150.333 68.4047 149.932 68.1247 149.652C67.8447 149.372 67.462 149.232 66.9767 149.232C66.4447 149.232 66.0154 149.4 65.6887 149.736C65.362 150.063 65.1987 150.567 65.1987 151.248V155H63.6867V148H65.1987V148.896C65.656 148.177 66.3794 147.818 67.3687 147.818ZM76.0907 149.456H74.3547V152.816C74.3547 153.105 74.4201 153.315 74.5507 153.446C74.6814 153.567 74.8727 153.637 75.1247 153.656C75.3861 153.665 75.7081 153.661 76.0907 153.642V155C74.9334 155.14 74.1027 155.042 73.5987 154.706C73.0947 154.361 72.8427 153.731 72.8427 152.816V149.456H71.5547V148H72.8427V146.488L74.3547 146.04V148H76.0907V149.456ZM79.5424 149.176C79.9251 148.308 80.6438 147.874 81.6984 147.874V149.512C81.1198 149.475 80.6158 149.615 80.1864 149.932C79.7571 150.24 79.5424 150.753 79.5424 151.472V155H78.0304V148H79.5424V149.176ZM86.2915 155.182C85.2648 155.182 84.3921 154.827 83.6735 154.118C82.9548 153.409 82.5955 152.536 82.5955 151.5C82.5955 150.464 82.9548 149.591 83.6735 148.882C84.3921 148.173 85.2648 147.818 86.2915 147.818C87.3275 147.818 88.2001 148.173 88.9095 148.882C89.6281 149.591 89.9875 150.464 89.9875 151.5C89.9875 152.536 89.6281 153.409 88.9095 154.118C88.2001 154.827 87.3275 155.182 86.2915 155.182ZM84.7375 153.082C85.1575 153.502 85.6755 153.712 86.2915 153.712C86.9075 153.712 87.4255 153.502 87.8455 153.082C88.2655 152.662 88.4755 152.135 88.4755 151.5C88.4755 150.865 88.2655 150.338 87.8455 149.918C87.4255 149.498 86.9075 149.288 86.2915 149.288C85.6755 149.288 85.1575 149.498 84.7375 149.918C84.3175 150.338 84.1075 150.865 84.1075 151.5C84.1075 152.135 84.3175 152.662 84.7375 153.082ZM91.8547 155V144.78H93.3667V155H91.8547ZM103.584 147.818C104.546 147.818 105.367 148.177 106.048 148.896C106.73 149.605 107.07 150.473 107.07 151.5C107.07 152.536 106.73 153.409 106.048 154.118C105.367 154.827 104.546 155.182 103.584 155.182C102.52 155.182 101.704 154.79 101.134 154.006V157.8H99.6222V148H101.134V149.008C101.704 148.215 102.52 147.818 103.584 147.818ZM101.764 153.11C102.184 153.53 102.712 153.74 103.346 153.74C103.981 153.74 104.508 153.53 104.928 153.11C105.348 152.681 105.558 152.144 105.558 151.5C105.558 150.856 105.348 150.324 104.928 149.904C104.508 149.475 103.981 149.26 103.346 149.26C102.712 149.26 102.184 149.475 101.764 149.904C101.344 150.324 101.134 150.856 101.134 151.5C101.134 152.144 101.344 152.681 101.764 153.11ZM108.941 155V144.78H110.453V155H108.941ZM118.252 148H119.764V155H118.252V153.992C117.683 154.785 116.866 155.182 115.802 155.182C114.841 155.182 114.02 154.827 113.338 154.118C112.657 153.399 112.316 152.527 112.316 151.5C112.316 150.464 112.657 149.591 113.338 148.882C114.02 148.173 114.841 147.818 115.802 147.818C116.866 147.818 117.683 148.21 118.252 148.994V148ZM114.458 153.11C114.878 153.53 115.406 153.74 116.04 153.74C116.675 153.74 117.202 153.53 117.622 153.11C118.042 152.681 118.252 152.144 118.252 151.5C118.252 150.856 118.042 150.324 117.622 149.904C117.202 149.475 116.675 149.26 116.04 149.26C115.406 149.26 114.878 149.475 114.458 149.904C114.038 150.324 113.828 150.856 113.828 151.5C113.828 152.144 114.038 152.681 114.458 153.11ZM125.709 147.818C126.511 147.818 127.16 148.075 127.655 148.588C128.149 149.101 128.397 149.806 128.397 150.702V155H126.885V150.856C126.885 150.333 126.745 149.932 126.465 149.652C126.185 149.372 125.802 149.232 125.317 149.232C124.785 149.232 124.355 149.4 124.029 149.736C123.702 150.063 123.539 150.567 123.539 151.248V155H122.027V148H123.539V148.896C123.996 148.177 124.719 147.818 125.709 147.818ZM131.715 152.144C131.827 152.676 132.083 153.087 132.485 153.376C132.886 153.656 133.376 153.796 133.955 153.796C134.757 153.796 135.359 153.507 135.761 152.928L137.007 153.656C136.316 154.673 135.294 155.182 133.941 155.182C132.802 155.182 131.883 154.837 131.183 154.146C130.483 153.446 130.133 152.564 130.133 151.5C130.133 150.455 130.478 149.582 131.169 148.882C131.859 148.173 132.746 147.818 133.829 147.818C134.855 147.818 135.695 148.177 136.349 148.896C137.011 149.615 137.343 150.487 137.343 151.514C137.343 151.673 137.324 151.883 137.287 152.144H131.715ZM131.701 150.912H135.817C135.714 150.343 135.476 149.913 135.103 149.624C134.739 149.335 134.309 149.19 133.815 149.19C133.255 149.19 132.788 149.344 132.415 149.652C132.041 149.96 131.803 150.38 131.701 150.912Z" fill="#063359"/>
<path d="M52.426 185.2H53.938V195H52.426V193.992C51.8567 194.785 51.04 195.182 49.976 195.182C49.0147 195.182 48.1933 194.827 47.512 194.118C46.8307 193.399 46.49 192.527 46.49 191.5C46.49 190.464 46.8307 189.591 47.512 188.882C48.1933 188.173 49.0147 187.818 49.976 187.818C51.04 187.818 51.8567 188.21 52.426 188.994V185.2ZM48.632 193.11C49.052 193.53 49.5793 193.74 50.214 193.74C50.8487 193.74 51.376 193.53 51.796 193.11C52.216 192.681 52.426 192.144 52.426 191.5C52.426 190.856 52.216 190.324 51.796 189.904C51.376 189.475 50.8487 189.26 50.214 189.26C49.5793 189.26 49.052 189.475 48.632 189.904C48.212 190.324 48.002 190.856 48.002 191.5C48.002 192.144 48.212 192.681 48.632 193.11ZM61.7444 188H63.2564V195H61.7444V193.992C61.175 194.785 60.3584 195.182 59.2944 195.182C58.333 195.182 57.5117 194.827 56.8304 194.118C56.149 193.399 55.8084 192.527 55.8084 191.5C55.8084 190.464 56.149 189.591 56.8304 188.882C57.5117 188.173 58.333 187.818 59.2944 187.818C60.3584 187.818 61.175 188.21 61.7444 188.994V188ZM57.9504 193.11C58.3704 193.53 58.8977 193.74 59.5324 193.74C60.167 193.74 60.6944 193.53 61.1144 193.11C61.5344 192.681 61.7444 192.144 61.7444 191.5C61.7444 190.856 61.5344 190.324 61.1144 189.904C60.6944 189.475 60.167 189.26 59.5324 189.26C58.8977 189.26 58.3704 189.475 57.9504 189.904C57.5304 190.324 57.3204 190.856 57.3204 191.5C57.3204 192.144 57.5304 192.681 57.9504 193.11ZM69.4247 189.456H67.6887V192.816C67.6887 193.105 67.7541 193.315 67.8847 193.446C68.0154 193.567 68.2067 193.637 68.4587 193.656C68.7201 193.665 69.0421 193.661 69.4247 193.642V195C68.2674 195.14 67.4367 195.042 66.9327 194.706C66.4287 194.361 66.1767 193.731 66.1767 192.816V189.456H64.8887V188H66.1767V186.488L67.6887 186.04V188H69.4247V189.456ZM76.553 188H78.065V195H76.553V193.992C75.9836 194.785 75.167 195.182 74.103 195.182C73.1416 195.182 72.3203 194.827 71.639 194.118C70.9576 193.399 70.617 192.527 70.617 191.5C70.617 190.464 70.9576 189.591 71.639 188.882C72.3203 188.173 73.1416 187.818 74.103 187.818C75.167 187.818 75.9836 188.21 76.553 188.994V188ZM72.759 193.11C73.179 193.53 73.7063 193.74 74.341 193.74C74.9756 193.74 75.503 193.53 75.923 193.11C76.343 192.681 76.553 192.144 76.553 191.5C76.553 190.856 76.343 190.324 75.923 189.904C75.503 189.475 74.9756 189.26 74.341 189.26C73.7063 189.26 73.179 189.475 72.759 189.904C72.339 190.324 72.129 190.856 72.129 191.5C72.129 192.144 72.339 192.681 72.759 193.11ZM88.2893 187.818C89.2506 187.818 90.072 188.177 90.7533 188.896C91.4346 189.605 91.7753 190.473 91.7753 191.5C91.7753 192.536 91.4346 193.409 90.7533 194.118C90.072 194.827 89.2506 195.182 88.2893 195.182C87.2253 195.182 86.4086 194.79 85.8393 194.006V197.8H84.3273V188H85.8393V189.008C86.4086 188.215 87.2253 187.818 88.2893 187.818ZM86.4693 193.11C86.8893 193.53 87.4166 193.74 88.0513 193.74C88.686 193.74 89.2133 193.53 89.6333 193.11C90.0533 192.681 90.2633 192.144 90.2633 191.5C90.2633 190.856 90.0533 190.324 89.6333 189.904C89.2133 189.475 88.686 189.26 88.0513 189.26C87.4166 189.26 86.8893 189.475 86.4693 189.904C86.0493 190.324 85.8393 190.856 85.8393 191.5C85.8393 192.144 86.0493 192.681 86.4693 193.11ZM93.6457 195V184.78H95.1577V195H93.6457ZM102.957 188H104.469V195H102.957V193.992C102.388 194.785 101.571 195.182 100.507 195.182C99.5459 195.182 98.7246 194.827 98.0433 194.118C97.3619 193.399 97.0213 192.527 97.0213 191.5C97.0213 190.464 97.3619 189.591 98.0433 188.882C98.7246 188.173 99.5459 187.818 100.507 187.818C101.571 187.818 102.388 188.21 102.957 188.994V188ZM99.1633 193.11C99.5833 193.53 100.111 193.74 100.745 193.74C101.38 193.74 101.907 193.53 102.327 193.11C102.747 192.681 102.957 192.144 102.957 191.5C102.957 190.856 102.747 190.324 102.327 189.904C101.907 189.475 101.38 189.26 100.745 189.26C100.111 189.26 99.5833 189.475 99.1633 189.904C98.7433 190.324 98.5333 190.856 98.5333 191.5C98.5333 192.144 98.7433 192.681 99.1633 193.11ZM110.414 187.818C111.216 187.818 111.865 188.075 112.36 188.588C112.854 189.101 113.102 189.806 113.102 190.702V195H111.59V190.856C111.59 190.333 111.45 189.932 111.17 189.652C110.89 189.372 110.507 189.232 110.022 189.232C109.49 189.232 109.06 189.4 108.734 189.736C108.407 190.063 108.244 190.567 108.244 191.248V195H106.732V188H108.244V188.896C108.701 188.177 109.424 187.818 110.414 187.818ZM116.42 192.144C116.532 192.676 116.788 193.087 117.19 193.376C117.591 193.656 118.081 193.796 118.66 193.796C119.462 193.796 120.064 193.507 120.466 192.928L121.712 193.656C121.021 194.673 119.999 195.182 118.646 195.182C117.507 195.182 116.588 194.837 115.888 194.146C115.188 193.446 114.838 192.564 114.838 191.5C114.838 190.455 115.183 189.582 115.874 188.882C116.564 188.173 117.451 187.818 118.534 187.818C119.56 187.818 120.4 188.177 121.054 188.896C121.716 189.615 122.048 190.487 122.048 191.514C122.048 191.673 122.029 191.883 121.992 192.144H116.42ZM116.406 190.912H120.522C120.419 190.343 120.181 189.913 119.808 189.624C119.444 189.335 119.014 189.19 118.52 189.19C117.96 189.19 117.493 189.344 117.12 189.652C116.746 189.96 116.508 190.38 116.406 190.912Z" fill="#063359"/>
<path d="M46 171H739" stroke="#ABBAC6" stroke-dasharray="2 2"/>
<g filter="url(#filter1_dd_1309_6314)">
<path d="M170 212C170 203.163 177.163 196 186 196H268C276.837 196 284 203.163 284 212V314C284 322.837 276.837 330 268 330H186C177.163 330 170 322.837 170 314V212Z" fill="white"/>
</g>
<path d="M200 278.5H254C264.77 278.5 273.5 287.23 273.5 298C273.5 308.77 264.77 317.5 254 317.5H200C189.23 317.5 180.5 308.77 180.5 298C180.5 287.23 189.23 278.5 200 278.5Z" fill="white"/>
<path d="M200 278.5H254C264.77 278.5 273.5 287.23 273.5 298C273.5 308.77 264.77 317.5 254 317.5H200C189.23 317.5 180.5 308.77 180.5 298C180.5 287.23 189.23 278.5 200 278.5Z" stroke="#0085FD"/>
<path d="M217.613 294.634H200.387C200.173 294.634 200 294.461 200 294.247C200 294.034 200.173 293.86 200.387 293.86H217.613C217.827 293.86 218 294.034 218 294.247C218 294.461 217.827 294.634 217.613 294.634Z" fill="#0085FD"/>
<path d="M201.459 306.528H216.541C217.401 306.528 218.1 305.829 218.1 304.969V291.031C218.1 290.171 217.401 289.472 216.541 289.472H201.459C200.599 289.472 199.9 290.171 199.9 291.031V304.969C199.9 305.829 200.599 306.528 201.459 306.528ZM200.873 291.031C200.873 290.708 201.136 290.445 201.459 290.445H216.541C216.864 290.445 217.127 290.708 217.127 291.031V304.969C217.127 305.292 216.864 305.555 216.541 305.555H201.459C201.136 305.555 200.873 305.292 200.873 304.969V291.031Z" fill="#063359" stroke="#003359" stroke-width="0.2"/>
<path d="M215.469 292.39H208.964C208.806 292.39 208.678 292.261 208.678 292.103C208.678 291.945 208.806 291.816 208.964 291.816H215.469C215.627 291.816 215.756 291.945 215.756 292.103C215.756 292.261 215.627 292.39 215.469 292.39Z" fill="#063359" stroke="#003359" stroke-width="0.2"/>
<path d="M207.973 302.638C207.916 302.638 207.857 302.625 207.802 302.598C207.611 302.503 207.532 302.271 207.627 302.08L209.739 297.814C209.834 297.623 210.066 297.545 210.257 297.639C210.449 297.734 210.527 297.966 210.432 298.157L208.32 302.423C208.253 302.559 208.116 302.638 207.973 302.638Z" fill="#0085FD"/>
<path d="M204.105 300.049L204.034 300.119L204.105 300.19L205.965 302.05C206.077 302.162 206.077 302.344 205.965 302.456C205.909 302.512 205.836 302.54 205.762 302.54C205.688 302.54 205.615 302.512 205.559 302.456L203.426 300.322C203.314 300.21 203.314 300.029 203.426 299.917L205.559 297.783C205.672 297.671 205.853 297.671 205.965 297.783C206.077 297.895 206.077 298.076 205.965 298.189L204.105 300.049Z" fill="#063359" stroke="#003359" stroke-width="0.2"/>
<path d="M213.895 300.19L213.966 300.119L213.895 300.049L212.035 298.189C211.923 298.077 211.923 297.895 212.035 297.783L211.964 297.712L212.035 297.783C212.147 297.671 212.329 297.671 212.441 297.783C212.441 297.783 212.441 297.783 212.441 297.783L214.574 299.917C214.687 300.029 214.687 300.21 214.574 300.322L212.441 302.456C212.385 302.512 212.312 302.54 212.238 302.54C212.164 302.54 212.091 302.512 212.035 302.456C211.923 302.344 211.923 302.162 212.035 302.05L213.895 300.19Z" fill="#063359" stroke="#003359" stroke-width="0.2"/>
<path d="M206.856 292.525C206.402 292.536 206.332 291.838 206.78 291.759C207.328 291.662 207.412 292.514 206.856 292.525Z" fill="#063359"/>
<path d="M204.675 292.525C204.221 292.536 204.152 291.838 204.6 291.759C205.147 291.661 205.231 292.515 204.675 292.525Z" fill="#063359"/>
<path d="M202.495 292.525C201.939 292.515 202.024 291.661 202.571 291.759C203.019 291.838 202.949 292.536 202.495 292.525Z" fill="#063359"/>
<path d="M232.698 295H234.21V302H232.698V300.992C232.129 301.785 231.312 302.182 230.248 302.182C229.287 302.182 228.466 301.827 227.784 301.118C227.103 300.399 226.762 299.527 226.762 298.5C226.762 297.464 227.103 296.591 227.784 295.882C228.466 295.173 229.287 294.818 230.248 294.818C231.312 294.818 232.129 295.21 232.698 295.994V295ZM228.904 300.11C229.324 300.53 229.852 300.74 230.486 300.74C231.121 300.74 231.648 300.53 232.068 300.11C232.488 299.681 232.698 299.144 232.698 298.5C232.698 297.856 232.488 297.324 232.068 296.904C231.648 296.475 231.121 296.26 230.486 296.26C229.852 296.26 229.324 296.475 228.904 296.904C228.484 297.324 228.274 297.856 228.274 298.5C228.274 299.144 228.484 299.681 228.904 300.11ZM240.435 294.818C241.396 294.818 242.217 295.177 242.899 295.896C243.58 296.605 243.921 297.473 243.921 298.5C243.921 299.536 243.58 300.409 242.899 301.118C242.217 301.827 241.396 302.182 240.435 302.182C239.371 302.182 238.554 301.79 237.985 301.006V304.8H236.473V295H237.985V296.008C238.554 295.215 239.371 294.818 240.435 294.818ZM238.615 300.11C239.035 300.53 239.562 300.74 240.197 300.74C240.831 300.74 241.359 300.53 241.779 300.11C242.199 299.681 242.409 299.144 242.409 298.5C242.409 297.856 242.199 297.324 241.779 296.904C241.359 296.475 240.831 296.26 240.197 296.26C239.562 296.26 239.035 296.475 238.615 296.904C238.195 297.324 237.985 297.856 237.985 298.5C237.985 299.144 238.195 299.681 238.615 300.11ZM249.753 294.818C250.715 294.818 251.536 295.177 252.217 295.896C252.899 296.605 253.239 297.473 253.239 298.5C253.239 299.536 252.899 300.409 252.217 301.118C251.536 301.827 250.715 302.182 249.753 302.182C248.689 302.182 247.873 301.79 247.303 301.006V304.8H245.791V295H247.303V296.008C247.873 295.215 248.689 294.818 249.753 294.818ZM247.933 300.11C248.353 300.53 248.881 300.74 249.515 300.74C250.15 300.74 250.677 300.53 251.097 300.11C251.517 299.681 251.727 299.144 251.727 298.5C251.727 297.856 251.517 297.324 251.097 296.904C250.677 296.475 250.15 296.26 249.515 296.26C248.881 296.26 248.353 296.475 247.933 296.904C247.513 297.324 247.303 297.856 247.303 298.5C247.303 299.144 247.513 299.681 247.933 300.11Z" fill="#063359"/>
<path d="M200 208.5H254C264.77 208.5 273.5 217.23 273.5 228C273.5 238.77 264.77 247.5 254 247.5H200C189.23 247.5 180.5 238.77 180.5 228C180.5 217.23 189.23 208.5 200 208.5Z" fill="#02CA7C" fill-opacity="0.12"/>
<path d="M200 208.5H254C264.77 208.5 273.5 217.23 273.5 228C273.5 238.77 264.77 247.5 254 247.5H200C189.23 247.5 180.5 238.77 180.5 228C180.5 217.23 189.23 208.5 200 208.5Z" fill="white"/>
<path d="M200 208.5H254C264.77 208.5 273.5 217.23 273.5 228C273.5 238.77 264.77 247.5 254 247.5H200C189.23 247.5 180.5 238.77 180.5 228C180.5 217.23 189.23 208.5 200 208.5Z" stroke="#02CA7C"/>
<path d="M209.441 234.154C209.441 234.299 209.586 234.385 209.706 234.315L210.424 233.868C210.504 233.819 210.554 233.723 210.554 233.62V227.7L209.441 228.394V234.153V234.154Z" fill="#A6B6C4"/>
<path d="M207.001 231.575L203.666 229.497L205 228.669L206.996 229.912L208.109 229.224L198.113 222.996L197 223.691V232.103C197 232.205 197.05 232.297 197.135 232.345L197.853 232.792C197.968 232.868 198.117 232.776 198.117 232.63V226.872L198.115 226.87L200.114 225.623L201.446 226.457L199.445 227.7L200.559 228.389L202.555 227.146L203.888 227.974L201.893 229.222L201.886 229.218V235.198C201.891 235.267 201.921 235.327 201.976 235.365L202.999 236V235.997L203.003 236L205.005 234.757L207.001 235.997V236L207.004 235.998L207.006 236L207.855 235.472C207.859 235.469 207.864 235.466 207.868 235.461L208.024 235.365C208.079 235.333 208.114 235.268 208.114 235.203V229.224L207.001 229.912V231.575H207.001ZM198.112 225.486V224.382L199.001 224.934L198.112 225.486V225.486ZM202.999 234.619V233.506L203.892 234.062L202.999 234.619ZM202.999 232.122V230.468L207.001 232.959V234.616L202.999 232.122Z" fill="#A6B6C4"/>
<path d="M199.445 233.626C199.445 233.723 199.495 233.82 199.575 233.869L200.293 234.316C200.408 234.391 200.558 234.299 200.558 234.154V228.395L199.444 227.701V233.627L199.445 233.626Z" fill="#A6B6C4"/>
<path d="M213 223.691L212.985 223.681L211.887 222.996V223.001L209.885 224.239L208.553 223.411L210.29 222.329C210.404 222.254 210.404 222.076 210.29 222.001L209.571 221.554C209.491 221.505 209.392 221.505 209.307 221.554L207.44 222.717L206.107 221.888L207.849 220.812C207.964 220.736 207.964 220.559 207.849 220.483L207.13 220.036C207.05 219.988 206.95 219.988 206.866 220.036L205 221.199L203.128 220.036C203.048 219.988 202.949 219.988 202.864 220.036L202.145 220.483C202.03 220.559 202.03 220.736 202.145 220.812L211.882 226.872L211.887 226.869V232.631C211.887 232.776 212.032 232.868 212.151 232.793L212.91 232.319C212.965 232.287 213 232.223 213 232.158V223.692V223.691ZM211.887 225.489L210.993 224.934L211.887 224.38V225.489Z" fill="#A6B6C4"/>
<path d="M200.688 221.554C200.608 221.505 200.508 221.505 200.423 221.554L199.705 222.001C199.59 222.076 199.59 222.254 199.705 222.329L209.442 228.39L210.555 227.695L200.688 221.554Z" fill="#A6B6C4"/>
<path d="M224.002 224.818C224.964 224.818 225.785 225.177 226.466 225.896C227.148 226.605 227.488 227.473 227.488 228.5C227.488 229.536 227.148 230.409 226.466 231.118C225.785 231.827 224.964 232.182 224.002 232.182C222.938 232.182 222.122 231.79 221.552 231.006V234.8H220.04V225H221.552V226.008C222.122 225.215 222.938 224.818 224.002 224.818ZM222.182 230.11C222.602 230.53 223.13 230.74 223.764 230.74C224.399 230.74 224.926 230.53 225.346 230.11C225.766 229.681 225.976 229.144 225.976 228.5C225.976 227.856 225.766 227.324 225.346 226.904C224.926 226.475 224.399 226.26 223.764 226.26C223.13 226.26 222.602 226.475 222.182 226.904C221.762 227.324 221.552 227.856 221.552 228.5C221.552 229.144 221.762 229.681 222.182 230.11ZM230.871 226.176C231.253 225.308 231.972 224.874 233.027 224.874V226.512C232.448 226.475 231.944 226.615 231.515 226.932C231.085 227.24 230.871 227.753 230.871 228.472V232H229.359V225H230.871V226.176ZM237.62 232.182C236.593 232.182 235.72 231.827 235.002 231.118C234.283 230.409 233.924 229.536 233.924 228.5C233.924 227.464 234.283 226.591 235.002 225.882C235.72 225.173 236.593 224.818 237.62 224.818C238.656 224.818 239.528 225.173 240.238 225.882C240.956 226.591 241.316 227.464 241.316 228.5C241.316 229.536 240.956 230.409 240.238 231.118C239.528 231.827 238.656 232.182 237.62 232.182ZM236.066 230.082C236.486 230.502 237.004 230.712 237.62 230.712C238.236 230.712 238.754 230.502 239.174 230.082C239.594 229.662 239.804 229.135 239.804 228.5C239.804 227.865 239.594 227.338 239.174 226.918C238.754 226.498 238.236 226.288 237.62 226.288C237.004 226.288 236.486 226.498 236.066 226.918C235.646 227.338 235.436 227.865 235.436 228.5C235.436 229.135 235.646 229.662 236.066 230.082ZM248.935 232H247.185L245.449 229.606L243.699 232H241.935L244.567 228.402L242.075 225H243.825L245.435 227.212L247.045 225H248.809L246.317 228.416L248.935 232ZM255.168 225H256.778L254.09 232.224C253.418 234.035 252.28 234.893 250.674 234.8V233.386C251.15 233.414 251.533 233.311 251.822 233.078C252.112 232.854 252.35 232.499 252.536 232.014L252.606 231.874L249.638 225H251.29L253.376 230.082L255.168 225Z" fill="#063359"/>
<path d="M222.646 273.354C222.842 273.549 223.158 273.549 223.354 273.354L226.536 270.172C226.731 269.976 226.731 269.66 226.536 269.464C226.34 269.269 226.024 269.269 225.828 269.464L223 272.293L220.172 269.464C219.976 269.269 219.66 269.269 219.464 269.464C219.269 269.66 219.269 269.976 219.464 270.172L222.646 273.354ZM222.5 248L222.5 273L223.5 273L223.5 248L222.5 248Z" fill="#02CA7C"/>
<path d="M231.354 252.646C231.158 252.451 230.842 252.451 230.646 252.646L227.464 255.828C227.269 256.024 227.269 256.34 227.464 256.536C227.66 256.731 227.976 256.731 228.172 256.536L231 253.707L233.828 256.536C234.024 256.731 234.34 256.731 234.536 256.536C234.731 256.34 234.731 256.024 234.536 255.828L231.354 252.646ZM230.5 253L230.5 278L231.5 278L231.5 253L230.5 253Z" fill="#02CA7C"/>
<path d="M221.354 134.646C221.158 134.451 220.842 134.451 220.646 134.646L217.464 137.828C217.269 138.024 217.269 138.34 217.464 138.536C217.66 138.731 217.976 138.731 218.172 138.536L221 135.707L223.828 138.536C224.024 138.731 224.34 138.731 224.536 138.536C224.731 138.34 224.731 138.024 224.536 137.828L221.354 134.646ZM220.5 135V205H221.5V135H220.5Z" fill="#003359"/>
<path d="M231.646 205.354C231.842 205.549 232.158 205.549 232.354 205.354L235.536 202.172C235.731 201.976 235.731 201.66 235.536 201.464C235.34 201.269 235.024 201.269 234.828 201.464L232 204.293L229.172 201.464C228.976 201.269 228.66 201.269 228.464 201.464C228.269 201.66 228.269 201.976 228.464 202.172L231.646 205.354ZM231.5 135V205H232.5V135H231.5Z" fill="#003359"/>
<g filter="url(#filter2_dd_1309_6314)">
<path d="M323 212C323 203.163 330.163 196 339 196H421C429.837 196 437 203.163 437 212V314C437 322.837 429.837 330 421 330H339C330.163 330 323 322.837 323 314V212Z" fill="white"/>
</g>
<path d="M353 278.5H407C417.77 278.5 426.5 287.23 426.5 298C426.5 308.77 417.77 317.5 407 317.5H353C342.23 317.5 333.5 308.77 333.5 298C333.5 287.23 342.23 278.5 353 278.5Z" fill="white"/>
<path d="M353 278.5H407C417.77 278.5 426.5 287.23 426.5 298C426.5 308.77 417.77 317.5 407 317.5H353C342.23 317.5 333.5 308.77 333.5 298C333.5 287.23 342.23 278.5 353 278.5Z" stroke="#0085FD"/>
<path d="M370.613 294.634H353.387C353.173 294.634 353 294.461 353 294.247C353 294.034 353.173 293.86 353.387 293.86H370.613C370.827 293.86 371 294.034 371 294.247C371 294.461 370.827 294.634 370.613 294.634Z" fill="#0085FD"/>
<path d="M354.459 306.528H369.541C370.401 306.528 371.1 305.829 371.1 304.969V291.031C371.1 290.171 370.401 289.472 369.541 289.472H354.459C353.599 289.472 352.9 290.171 352.9 291.031V304.969C352.9 305.829 353.599 306.528 354.459 306.528ZM353.873 291.031C353.873 290.708 354.136 290.445 354.459 290.445H369.541C369.864 290.445 370.127 290.708 370.127 291.031V304.969C370.127 305.292 369.864 305.555 369.541 305.555H354.459C354.136 305.555 353.873 305.292 353.873 304.969V291.031Z" fill="#063359" stroke="#003359" stroke-width="0.2"/>
<path d="M368.469 292.39H361.964C361.806 292.39 361.678 292.261 361.678 292.103C361.678 291.945 361.806 291.816 361.964 291.816H368.469C368.627 291.816 368.756 291.945 368.756 292.103C368.756 292.261 368.627 292.39 368.469 292.39Z" fill="#063359" stroke="#003359" stroke-width="0.2"/>
<path d="M360.973 302.638C360.916 302.638 360.857 302.625 360.802 302.598C360.611 302.503 360.532 302.271 360.627 302.08L362.739 297.814C362.834 297.623 363.066 297.545 363.257 297.639C363.449 297.734 363.527 297.966 363.432 298.157L361.32 302.423C361.253 302.559 361.116 302.638 360.973 302.638Z" fill="#0085FD"/>
<path d="M357.105 300.049L357.034 300.119L357.105 300.19L358.965 302.05C359.077 302.162 359.077 302.344 358.965 302.456C358.909 302.512 358.836 302.54 358.762 302.54C358.688 302.54 358.615 302.512 358.559 302.456L356.426 300.322C356.314 300.21 356.314 300.029 356.426 299.917L358.559 297.783C358.672 297.671 358.853 297.671 358.965 297.783C359.077 297.895 359.077 298.076 358.965 298.189L357.105 300.049Z" fill="#063359" stroke="#003359" stroke-width="0.2"/>
<path d="M366.895 300.19L366.966 300.119L366.895 300.049L365.035 298.189C364.923 298.077 364.923 297.895 365.035 297.783L364.964 297.712L365.035 297.783C365.147 297.671 365.329 297.671 365.441 297.783C365.441 297.783 365.441 297.783 365.441 297.783L367.574 299.917C367.687 300.029 367.687 300.21 367.574 300.322L365.441 302.456C365.385 302.512 365.312 302.54 365.238 302.54C365.164 302.54 365.091 302.512 365.035 302.456C364.923 302.344 364.923 302.162 365.035 302.05L366.895 300.19Z" fill="#063359" stroke="#003359" stroke-width="0.2"/>
<path d="M359.856 292.525C359.402 292.536 359.332 291.838 359.78 291.759C360.328 291.662 360.412 292.514 359.856 292.525Z" fill="#063359"/>
<path d="M357.675 292.525C357.221 292.536 357.152 291.838 357.6 291.759C358.147 291.661 358.231 292.515 357.675 292.525Z" fill="#063359"/>
<path d="M355.495 292.525C354.939 292.515 355.024 291.661 355.571 291.759C356.019 291.838 355.949 292.536 355.495 292.525Z" fill="#063359"/>
<path d="M385.698 295H387.21V302H385.698V300.992C385.129 301.785 384.312 302.182 383.248 302.182C382.287 302.182 381.466 301.827 380.784 301.118C380.103 300.399 379.762 299.527 379.762 298.5C379.762 297.464 380.103 296.591 380.784 295.882C381.466 295.173 382.287 294.818 383.248 294.818C384.312 294.818 385.129 295.21 385.698 295.994V295ZM381.904 300.11C382.324 300.53 382.852 300.74 383.486 300.74C384.121 300.74 384.648 300.53 385.068 300.11C385.488 299.681 385.698 299.144 385.698 298.5C385.698 297.856 385.488 297.324 385.068 296.904C384.648 296.475 384.121 296.26 383.486 296.26C382.852 296.26 382.324 296.475 381.904 296.904C381.484 297.324 381.274 297.856 381.274 298.5C381.274 299.144 381.484 299.681 381.904 300.11ZM393.435 294.818C394.396 294.818 395.217 295.177 395.899 295.896C396.58 296.605 396.921 297.473 396.921 298.5C396.921 299.536 396.58 300.409 395.899 301.118C395.217 301.827 394.396 302.182 393.435 302.182C392.371 302.182 391.554 301.79 390.985 301.006V304.8H389.473V295H390.985V296.008C391.554 295.215 392.371 294.818 393.435 294.818ZM391.615 300.11C392.035 300.53 392.562 300.74 393.197 300.74C393.831 300.74 394.359 300.53 394.779 300.11C395.199 299.681 395.409 299.144 395.409 298.5C395.409 297.856 395.199 297.324 394.779 296.904C394.359 296.475 393.831 296.26 393.197 296.26C392.562 296.26 392.035 296.475 391.615 296.904C391.195 297.324 390.985 297.856 390.985 298.5C390.985 299.144 391.195 299.681 391.615 300.11ZM402.753 294.818C403.715 294.818 404.536 295.177 405.217 295.896C405.899 296.605 406.239 297.473 406.239 298.5C406.239 299.536 405.899 300.409 405.217 301.118C404.536 301.827 403.715 302.182 402.753 302.182C401.689 302.182 400.873 301.79 400.303 301.006V304.8H398.791V295H400.303V296.008C400.873 295.215 401.689 294.818 402.753 294.818ZM400.933 300.11C401.353 300.53 401.881 300.74 402.515 300.74C403.15 300.74 403.677 300.53 404.097 300.11C404.517 299.681 404.727 299.144 404.727 298.5C404.727 297.856 404.517 297.324 404.097 296.904C403.677 296.475 403.15 296.26 402.515 296.26C401.881 296.26 401.353 296.475 400.933 296.904C400.513 297.324 400.303 297.856 400.303 298.5C400.303 299.144 400.513 299.681 400.933 300.11Z" fill="#063359"/>
<path d="M353 208.5H407C417.77 208.5 426.5 217.23 426.5 228C426.5 238.77 417.77 247.5 407 247.5H353C342.23 247.5 333.5 238.77 333.5 228C333.5 217.23 342.23 208.5 353 208.5Z" fill="#02CA7C" fill-opacity="0.12"/>
<path d="M353 208.5H407C417.77 208.5 426.5 217.23 426.5 228C426.5 238.77 417.77 247.5 407 247.5H353C342.23 247.5 333.5 238.77 333.5 228C333.5 217.23 342.23 208.5 353 208.5Z" fill="white"/>
<path d="M353 208.5H407C417.77 208.5 426.5 217.23 426.5 228C426.5 238.77 417.77 247.5 407 247.5H353C342.23 247.5 333.5 238.77 333.5 228C333.5 217.23 342.23 208.5 353 208.5Z" stroke="#02CA7C"/>
<path d="M362.441 234.154C362.441 234.299 362.586 234.385 362.706 234.315L363.424 233.868C363.504 233.819 363.554 233.723 363.554 233.62V227.7L362.441 228.394V234.153V234.154Z" fill="#A6B6C4"/>
<path d="M360.001 231.575L356.666 229.497L358 228.669L359.996 229.912L361.109 229.224L351.113 222.996L350 223.691V232.103C350 232.205 350.05 232.297 350.135 232.345L350.853 232.792C350.968 232.868 351.117 232.776 351.117 232.63V226.872L351.115 226.87L353.114 225.623L354.446 226.457L352.445 227.7L353.559 228.389L355.555 227.146L356.888 227.974L354.893 229.222L354.886 229.218V235.198C354.891 235.267 354.921 235.327 354.976 235.365L355.999 236V235.997L356.003 236L358.005 234.757L360.001 235.997V236L360.004 235.998L360.006 236L360.855 235.472C360.859 235.469 360.864 235.466 360.868 235.461L361.024 235.365C361.079 235.333 361.114 235.268 361.114 235.203V229.224L360.001 229.912V231.575H360.001ZM351.112 225.486V224.382L352.001 224.934L351.112 225.486V225.486ZM355.999 234.619V233.506L356.892 234.062L355.999 234.619ZM355.999 232.122V230.468L360.001 232.959V234.616L355.999 232.122Z" fill="#A6B6C4"/>
<path d="M352.445 233.626C352.445 233.723 352.495 233.82 352.575 233.869L353.293 234.316C353.408 234.391 353.558 234.299 353.558 234.154V228.395L352.444 227.701V233.627L352.445 233.626Z" fill="#A6B6C4"/>
<path d="M366 223.691L365.985 223.681L364.887 222.996V223.001L362.885 224.239L361.553 223.411L363.29 222.329C363.404 222.254 363.404 222.076 363.29 222.001L362.571 221.554C362.491 221.505 362.392 221.505 362.307 221.554L360.44 222.717L359.107 221.888L360.849 220.812C360.964 220.736 360.964 220.559 360.849 220.483L360.13 220.036C360.05 219.988 359.95 219.988 359.866 220.036L358 221.199L356.128 220.036C356.048 219.988 355.949 219.988 355.864 220.036L355.145 220.483C355.03 220.559 355.03 220.736 355.145 220.812L364.882 226.872L364.887 226.869V232.631C364.887 232.776 365.032 232.868 365.151 232.793L365.91 232.319C365.965 232.287 366 232.223 366 232.158V223.692V223.691ZM364.887 225.489L363.993 224.934L364.887 224.38V225.489Z" fill="#A6B6C4"/>
<path d="M353.688 221.554C353.608 221.505 353.508 221.505 353.423 221.554L352.705 222.001C352.59 222.076 352.59 222.254 352.705 222.329L362.442 228.39L363.555 227.695L353.688 221.554Z" fill="#A6B6C4"/>
<path d="M377.002 224.818C377.964 224.818 378.785 225.177 379.466 225.896C380.148 226.605 380.488 227.473 380.488 228.5C380.488 229.536 380.148 230.409 379.466 231.118C378.785 231.827 377.964 232.182 377.002 232.182C375.938 232.182 375.122 231.79 374.552 231.006V234.8H373.04V225H374.552V226.008C375.122 225.215 375.938 224.818 377.002 224.818ZM375.182 230.11C375.602 230.53 376.13 230.74 376.764 230.74C377.399 230.74 377.926 230.53 378.346 230.11C378.766 229.681 378.976 229.144 378.976 228.5C378.976 227.856 378.766 227.324 378.346 226.904C377.926 226.475 377.399 226.26 376.764 226.26C376.13 226.26 375.602 226.475 375.182 226.904C374.762 227.324 374.552 227.856 374.552 228.5C374.552 229.144 374.762 229.681 375.182 230.11ZM383.871 226.176C384.253 225.308 384.972 224.874 386.027 224.874V226.512C385.448 226.475 384.944 226.615 384.515 226.932C384.085 227.24 383.871 227.753 383.871 228.472V232H382.359V225H383.871V226.176ZM390.62 232.182C389.593 232.182 388.72 231.827 388.002 231.118C387.283 230.409 386.924 229.536 386.924 228.5C386.924 227.464 387.283 226.591 388.002 225.882C388.72 225.173 389.593 224.818 390.62 224.818C391.656 224.818 392.528 225.173 393.238 225.882C393.956 226.591 394.316 227.464 394.316 228.5C394.316 229.536 393.956 230.409 393.238 231.118C392.528 231.827 391.656 232.182 390.62 232.182ZM389.066 230.082C389.486 230.502 390.004 230.712 390.62 230.712C391.236 230.712 391.754 230.502 392.174 230.082C392.594 229.662 392.804 229.135 392.804 228.5C392.804 227.865 392.594 227.338 392.174 226.918C391.754 226.498 391.236 226.288 390.62 226.288C390.004 226.288 389.486 226.498 389.066 226.918C388.646 227.338 388.436 227.865 388.436 228.5C388.436 229.135 388.646 229.662 389.066 230.082ZM401.935 232H400.185L398.449 229.606L396.699 232H394.935L397.567 228.402L395.075 225H396.825L398.435 227.212L400.045 225H401.809L399.317 228.416L401.935 232ZM408.168 225H409.778L407.09 232.224C406.418 234.035 405.28 234.893 403.674 234.8V233.386C404.15 233.414 404.533 233.311 404.822 233.078C405.112 232.854 405.35 232.499 405.536 232.014L405.606 231.874L402.638 225H404.29L406.376 230.082L408.168 225Z" fill="#063359"/>
<path d="M375.646 273.354C375.842 273.549 376.158 273.549 376.354 273.354L379.536 270.172C379.731 269.976 379.731 269.66 379.536 269.464C379.34 269.269 379.024 269.269 378.828 269.464L376 272.293L373.172 269.464C372.976 269.269 372.66 269.269 372.464 269.464C372.269 269.66 372.269 269.976 372.464 270.172L375.646 273.354ZM375.5 248L375.5 273L376.5 273L376.5 248L375.5 248Z" fill="#02CA7C"/>
<path d="M384.354 252.646C384.158 252.451 383.842 252.451 383.646 252.646L380.464 255.828C380.269 256.024 380.269 256.34 380.464 256.536C380.66 256.731 380.976 256.731 381.172 256.536L384 253.707L386.828 256.536C387.024 256.731 387.34 256.731 387.536 256.536C387.731 256.34 387.731 256.024 387.536 255.828L384.354 252.646ZM383.5 253L383.5 278L384.5 278L384.5 253L383.5 253Z" fill="#02CA7C"/>
<path d="M374.354 134.646C374.158 134.451 373.842 134.451 373.646 134.646L370.464 137.828C370.269 138.024 370.269 138.34 370.464 138.536C370.66 138.731 370.976 138.731 371.172 138.536L374 135.707L376.828 138.536C377.024 138.731 377.34 138.731 377.536 138.536C377.731 138.34 377.731 138.024 377.536 137.828L374.354 134.646ZM373.5 135V205H374.5V135H373.5Z" fill="#003359"/>
<path d="M384.646 205.354C384.842 205.549 385.158 205.549 385.354 205.354L388.536 202.172C388.731 201.976 388.731 201.66 388.536 201.464C388.34 201.269 388.024 201.269 387.828 201.464L385 204.293L382.172 201.464C381.976 201.269 381.66 201.269 381.464 201.464C381.269 201.66 381.269 201.976 381.464 202.172L384.646 205.354ZM384.5 135V205H385.5V135H384.5Z" fill="#003359"/>
<g filter="url(#filter3_dd_1309_6314)">
<path d="M475 212C475 203.163 482.163 196 491 196H573C581.837 196 589 203.163 589 212V314C589 322.837 581.837 330 573 330H491C482.163 330 475 322.837 475 314V212Z" fill="white"/>
</g>
<path d="M505 278.5H559C569.77 278.5 578.5 287.23 578.5 298C578.5 308.77 569.77 317.5 559 317.5H505C494.23 317.5 485.5 308.77 485.5 298C485.5 287.23 494.23 278.5 505 278.5Z" fill="white"/>
<path d="M505 278.5H559C569.77 278.5 578.5 287.23 578.5 298C578.5 308.77 569.77 317.5 559 317.5H505C494.23 317.5 485.5 308.77 485.5 298C485.5 287.23 494.23 278.5 505 278.5Z" stroke="#0085FD"/>
<path d="M522.613 294.634H505.387C505.173 294.634 505 294.461 505 294.247C505 294.034 505.173 293.86 505.387 293.86H522.613C522.827 293.86 523 294.034 523 294.247C523 294.461 522.827 294.634 522.613 294.634Z" fill="#0085FD"/>
<path d="M506.459 306.528H521.541C522.401 306.528 523.1 305.829 523.1 304.969V291.031C523.1 290.171 522.401 289.472 521.541 289.472H506.459C505.599 289.472 504.9 290.171 504.9 291.031V304.969C504.9 305.829 505.599 306.528 506.459 306.528ZM505.873 291.031C505.873 290.708 506.136 290.445 506.459 290.445H521.541C521.864 290.445 522.127 290.708 522.127 291.031V304.969C522.127 305.292 521.864 305.555 521.541 305.555H506.459C506.136 305.555 505.873 305.292 505.873 304.969V291.031Z" fill="#063359" stroke="#003359" stroke-width="0.2"/>
<path d="M520.469 292.39H513.964C513.806 292.39 513.678 292.261 513.678 292.103C513.678 291.945 513.806 291.816 513.964 291.816H520.469C520.627 291.816 520.756 291.945 520.756 292.103C520.756 292.261 520.627 292.39 520.469 292.39Z" fill="#063359" stroke="#003359" stroke-width="0.2"/>
<path d="M512.973 302.638C512.916 302.638 512.857 302.625 512.802 302.598C512.611 302.503 512.532 302.271 512.627 302.08L514.739 297.814C514.834 297.623 515.066 297.545 515.257 297.639C515.449 297.734 515.527 297.966 515.432 298.157L513.32 302.423C513.253 302.559 513.116 302.638 512.973 302.638Z" fill="#0085FD"/>
<path d="M509.105 300.049L509.034 300.119L509.105 300.19L510.965 302.05C511.077 302.162 511.077 302.344 510.965 302.456C510.909 302.512 510.836 302.54 510.762 302.54C510.688 302.54 510.615 302.512 510.559 302.456L508.426 300.322C508.314 300.21 508.314 300.029 508.426 299.917L510.559 297.783C510.672 297.671 510.853 297.671 510.965 297.783C511.077 297.895 511.077 298.076 510.965 298.189L509.105 300.049Z" fill="#063359" stroke="#003359" stroke-width="0.2"/>
<path d="M518.895 300.19L518.966 300.119L518.895 300.049L517.035 298.189C516.923 298.077 516.923 297.895 517.035 297.783L516.964 297.712L517.035 297.783C517.147 297.671 517.329 297.671 517.441 297.783C517.441 297.783 517.441 297.783 517.441 297.783L519.574 299.917C519.687 300.029 519.687 300.21 519.574 300.322L517.441 302.456C517.385 302.512 517.312 302.54 517.238 302.54C517.164 302.54 517.091 302.512 517.035 302.456C516.923 302.344 516.923 302.162 517.035 302.05L518.895 300.19Z" fill="#063359" stroke="#003359" stroke-width="0.2"/>
<path d="M511.856 292.525C511.402 292.536 511.332 291.838 511.78 291.759C512.328 291.662 512.412 292.514 511.856 292.525Z" fill="#063359"/>
<path d="M509.675 292.525C509.221 292.536 509.152 291.838 509.6 291.759C510.147 291.661 510.231 292.515 509.675 292.525Z" fill="#063359"/>
<path d="M507.495 292.525C506.939 292.515 507.024 291.661 507.571 291.759C508.019 291.838 507.949 292.536 507.495 292.525Z" fill="#063359"/>
<path d="M537.698 295H539.21V302H537.698V300.992C537.129 301.785 536.312 302.182 535.248 302.182C534.287 302.182 533.466 301.827 532.784 301.118C532.103 300.399 531.762 299.527 531.762 298.5C531.762 297.464 532.103 296.591 532.784 295.882C533.466 295.173 534.287 294.818 535.248 294.818C536.312 294.818 537.129 295.21 537.698 295.994V295ZM533.904 300.11C534.324 300.53 534.852 300.74 535.486 300.74C536.121 300.74 536.648 300.53 537.068 300.11C537.488 299.681 537.698 299.144 537.698 298.5C537.698 297.856 537.488 297.324 537.068 296.904C536.648 296.475 536.121 296.26 535.486 296.26C534.852 296.26 534.324 296.475 533.904 296.904C533.484 297.324 533.274 297.856 533.274 298.5C533.274 299.144 533.484 299.681 533.904 300.11ZM545.435 294.818C546.396 294.818 547.217 295.177 547.899 295.896C548.58 296.605 548.921 297.473 548.921 298.5C548.921 299.536 548.58 300.409 547.899 301.118C547.217 301.827 546.396 302.182 545.435 302.182C544.371 302.182 543.554 301.79 542.985 301.006V304.8H541.473V295H542.985V296.008C543.554 295.215 544.371 294.818 545.435 294.818ZM543.615 300.11C544.035 300.53 544.562 300.74 545.197 300.74C545.831 300.74 546.359 300.53 546.779 300.11C547.199 299.681 547.409 299.144 547.409 298.5C547.409 297.856 547.199 297.324 546.779 296.904C546.359 296.475 545.831 296.26 545.197 296.26C544.562 296.26 544.035 296.475 543.615 296.904C543.195 297.324 542.985 297.856 542.985 298.5C542.985 299.144 543.195 299.681 543.615 300.11ZM554.753 294.818C555.715 294.818 556.536 295.177 557.217 295.896C557.899 296.605 558.239 297.473 558.239 298.5C558.239 299.536 557.899 300.409 557.217 301.118C556.536 301.827 555.715 302.182 554.753 302.182C553.689 302.182 552.873 301.79 552.303 301.006V304.8H550.791V295H552.303V296.008C552.873 295.215 553.689 294.818 554.753 294.818ZM552.933 300.11C553.353 300.53 553.881 300.74 554.515 300.74C555.15 300.74 555.677 300.53 556.097 300.11C556.517 299.681 556.727 299.144 556.727 298.5C556.727 297.856 556.517 297.324 556.097 296.904C555.677 296.475 555.15 296.26 554.515 296.26C553.881 296.26 553.353 296.475 552.933 296.904C552.513 297.324 552.303 297.856 552.303 298.5C552.303 299.144 552.513 299.681 552.933 300.11Z" fill="#063359"/>
<path d="M505 208.5H559C569.77 208.5 578.5 217.23 578.5 228C578.5 238.77 569.77 247.5 559 247.5H505C494.23 247.5 485.5 238.77 485.5 228C485.5 217.23 494.23 208.5 505 208.5Z" fill="#02CA7C" fill-opacity="0.12"/>
<path d="M505 208.5H559C569.77 208.5 578.5 217.23 578.5 228C578.5 238.77 569.77 247.5 559 247.5H505C494.23 247.5 485.5 238.77 485.5 228C485.5 217.23 494.23 208.5 505 208.5Z" fill="white"/>
<path d="M505 208.5H559C569.77 208.5 578.5 217.23 578.5 228C578.5 238.77 569.77 247.5 559 247.5H505C494.23 247.5 485.5 238.77 485.5 228C485.5 217.23 494.23 208.5 505 208.5Z" stroke="#02CA7C"/>
<path d="M514.441 234.154C514.441 234.299 514.586 234.385 514.706 234.315L515.424 233.868C515.504 233.819 515.554 233.723 515.554 233.62V227.7L514.441 228.394V234.153V234.154Z" fill="#A6B6C4"/>
<path d="M512.001 231.575L508.666 229.497L510 228.669L511.996 229.912L513.109 229.224L503.113 222.996L502 223.691V232.103C502 232.205 502.05 232.297 502.135 232.345L502.853 232.792C502.968 232.868 503.117 232.776 503.117 232.63V226.872L503.115 226.87L505.114 225.623L506.446 226.457L504.445 227.7L505.559 228.389L507.555 227.146L508.888 227.974L506.893 229.222L506.886 229.218V235.198C506.891 235.267 506.921 235.327 506.976 235.365L507.999 236V235.997L508.003 236L510.005 234.757L512.001 235.997V236L512.004 235.998L512.006 236L512.855 235.472C512.859 235.469 512.864 235.466 512.868 235.461L513.024 235.365C513.079 235.333 513.114 235.268 513.114 235.203V229.224L512.001 229.912V231.575H512.001ZM503.112 225.486V224.382L504.001 224.934L503.112 225.486V225.486ZM507.999 234.619V233.506L508.892 234.062L507.999 234.619ZM507.999 232.122V230.468L512.001 232.959V234.616L507.999 232.122Z" fill="#A6B6C4"/>
<path d="M504.445 233.626C504.445 233.723 504.495 233.82 504.575 233.869L505.293 234.316C505.408 234.391 505.558 234.299 505.558 234.154V228.395L504.444 227.701V233.627L504.445 233.626Z" fill="#A6B6C4"/>
<path d="M518 223.691L517.985 223.681L516.887 222.996V223.001L514.885 224.239L513.553 223.411L515.29 222.329C515.404 222.254 515.404 222.076 515.29 222.001L514.571 221.554C514.491 221.505 514.392 221.505 514.307 221.554L512.44 222.717L511.107 221.888L512.849 220.812C512.964 220.736 512.964 220.559 512.849 220.483L512.13 220.036C512.05 219.988 511.95 219.988 511.866 220.036L510 221.199L508.128 220.036C508.048 219.988 507.949 219.988 507.864 220.036L507.145 220.483C507.03 220.559 507.03 220.736 507.145 220.812L516.882 226.872L516.887 226.869V232.631C516.887 232.776 517.032 232.868 517.151 232.793L517.91 232.319C517.965 232.287 518 232.223 518 232.158V223.692V223.691ZM516.887 225.489L515.993 224.934L516.887 224.38V225.489Z" fill="#A6B6C4"/>
<path d="M505.688 221.554C505.608 221.505 505.508 221.505 505.423 221.554L504.705 222.001C504.59 222.076 504.59 222.254 504.705 222.329L514.442 228.39L515.555 227.695L505.688 221.554Z" fill="#A6B6C4"/>
<path d="M529.002 224.818C529.964 224.818 530.785 225.177 531.466 225.896C532.148 226.605 532.488 227.473 532.488 228.5C532.488 229.536 532.148 230.409 531.466 231.118C530.785 231.827 529.964 232.182 529.002 232.182C527.938 232.182 527.122 231.79 526.552 231.006V234.8H525.04V225H526.552V226.008C527.122 225.215 527.938 224.818 529.002 224.818ZM527.182 230.11C527.602 230.53 528.13 230.74 528.764 230.74C529.399 230.74 529.926 230.53 530.346 230.11C530.766 229.681 530.976 229.144 530.976 228.5C530.976 227.856 530.766 227.324 530.346 226.904C529.926 226.475 529.399 226.26 528.764 226.26C528.13 226.26 527.602 226.475 527.182 226.904C526.762 227.324 526.552 227.856 526.552 228.5C526.552 229.144 526.762 229.681 527.182 230.11ZM535.871 226.176C536.253 225.308 536.972 224.874 538.027 224.874V226.512C537.448 226.475 536.944 226.615 536.515 226.932C536.085 227.24 535.871 227.753 535.871 228.472V232H534.359V225H535.871V226.176ZM542.62 232.182C541.593 232.182 540.72 231.827 540.002 231.118C539.283 230.409 538.924 229.536 538.924 228.5C538.924 227.464 539.283 226.591 540.002 225.882C540.72 225.173 541.593 224.818 542.62 224.818C543.656 224.818 544.528 225.173 545.238 225.882C545.956 226.591 546.316 227.464 546.316 228.5C546.316 229.536 545.956 230.409 545.238 231.118C544.528 231.827 543.656 232.182 542.62 232.182ZM541.066 230.082C541.486 230.502 542.004 230.712 542.62 230.712C543.236 230.712 543.754 230.502 544.174 230.082C544.594 229.662 544.804 229.135 544.804 228.5C544.804 227.865 544.594 227.338 544.174 226.918C543.754 226.498 543.236 226.288 542.62 226.288C542.004 226.288 541.486 226.498 541.066 226.918C540.646 227.338 540.436 227.865 540.436 228.5C540.436 229.135 540.646 229.662 541.066 230.082ZM553.935 232H552.185L550.449 229.606L548.699 232H546.935L549.567 228.402L547.075 225H548.825L550.435 227.212L552.045 225H553.809L551.317 228.416L553.935 232ZM560.168 225H561.778L559.09 232.224C558.418 234.035 557.28 234.893 555.674 234.8V233.386C556.15 233.414 556.533 233.311 556.822 233.078C557.112 232.854 557.35 232.499 557.536 232.014L557.606 231.874L554.638 225H556.29L558.376 230.082L560.168 225Z" fill="#063359"/>
<path d="M527.646 273.354C527.842 273.549 528.158 273.549 528.354 273.354L531.536 270.172C531.731 269.976 531.731 269.66 531.536 269.464C531.34 269.269 531.024 269.269 530.828 269.464L528 272.293L525.172 269.464C524.976 269.269 524.66 269.269 524.464 269.464C524.269 269.66 524.269 269.976 524.464 270.172L527.646 273.354ZM527.5 248L527.5 273L528.5 273L528.5 248L527.5 248Z" fill="#02CA7C"/>
<path d="M536.354 252.646C536.158 252.451 535.842 252.451 535.646 252.646L532.464 255.828C532.269 256.024 532.269 256.34 532.464 256.536C532.66 256.731 532.976 256.731 533.172 256.536L536 253.707L538.828 256.536C539.024 256.731 539.34 256.731 539.536 256.536C539.731 256.34 539.731 256.024 539.536 255.828L536.354 252.646ZM535.5 253L535.5 278L536.5 278L536.5 253L535.5 253Z" fill="#02CA7C"/>
<path d="M526.354 134.646C526.158 134.451 525.842 134.451 525.646 134.646L522.464 137.828C522.269 138.024 522.269 138.34 522.464 138.536C522.66 138.731 522.976 138.731 523.172 138.536L526 135.707L528.828 138.536C529.024 138.731 529.34 138.731 529.536 138.536C529.731 138.34 529.731 138.024 529.536 137.828L526.354 134.646ZM525.5 135V205H526.5V135H525.5Z" fill="#003359"/>
<path d="M536.646 205.354C536.842 205.549 537.158 205.549 537.354 205.354L540.536 202.172C540.731 201.976 540.731 201.66 540.536 201.464C540.34 201.269 540.024 201.269 539.828 201.464L537 204.293L534.172 201.464C533.976 201.269 533.66 201.269 533.464 201.464C533.269 201.66 533.269 201.976 533.464 202.172L536.646 205.354ZM536.5 135V205H537.5V135H536.5Z" fill="#003359"/>
<g filter="url(#filter4_dd_1309_6314)">
<path d="M627 212C627 203.163 634.163 196 643 196H725C733.837 196 741 203.163 741 212V314C741 322.837 733.837 330 725 330H643C634.163 330 627 322.837 627 314V212Z" fill="white"/>
</g>
<path d="M657 278.5H711C721.77 278.5 730.5 287.23 730.5 298C730.5 308.77 721.77 317.5 711 317.5H657C646.23 317.5 637.5 308.77 637.5 298C637.5 287.23 646.23 278.5 657 278.5Z" fill="white"/>
<path d="M657 278.5H711C721.77 278.5 730.5 287.23 730.5 298C730.5 308.77 721.77 317.5 711 317.5H657C646.23 317.5 637.5 308.77 637.5 298C637.5 287.23 646.23 278.5 657 278.5Z" stroke="#0085FD"/>
<path d="M674.613 294.634H657.387C657.173 294.634 657 294.461 657 294.247C657 294.034 657.173 293.86 657.387 293.86H674.613C674.827 293.86 675 294.034 675 294.247C675 294.461 674.827 294.634 674.613 294.634Z" fill="#0085FD"/>
<path d="M658.459 306.528H673.541C674.401 306.528 675.1 305.829 675.1 304.969V291.031C675.1 290.171 674.401 289.472 673.541 289.472H658.459C657.599 289.472 656.9 290.171 656.9 291.031V304.969C656.9 305.829 657.599 306.528 658.459 306.528ZM657.873 291.031C657.873 290.708 658.136 290.445 658.459 290.445H673.541C673.864 290.445 674.127 290.708 674.127 291.031V304.969C674.127 305.292 673.864 305.555 673.541 305.555H658.459C658.136 305.555 657.873 305.292 657.873 304.969V291.031Z" fill="#063359" stroke="#003359" stroke-width="0.2"/>
<path d="M672.469 292.39H665.964C665.806 292.39 665.678 292.261 665.678 292.103C665.678 291.945 665.806 291.816 665.964 291.816H672.469C672.627 291.816 672.756 291.945 672.756 292.103C672.756 292.261 672.627 292.39 672.469 292.39Z" fill="#063359" stroke="#003359" stroke-width="0.2"/>
<path d="M664.973 302.638C664.916 302.638 664.857 302.625 664.802 302.598C664.611 302.503 664.532 302.271 664.627 302.08L666.739 297.814C666.834 297.623 667.066 297.545 667.257 297.639C667.449 297.734 667.527 297.966 667.432 298.157L665.32 302.423C665.253 302.559 665.116 302.638 664.973 302.638Z" fill="#0085FD"/>
<path d="M661.105 300.049L661.034 300.119L661.105 300.19L662.965 302.05C663.077 302.162 663.077 302.344 662.965 302.456C662.909 302.512 662.836 302.54 662.762 302.54C662.688 302.54 662.615 302.512 662.559 302.456L660.426 300.322C660.314 300.21 660.314 300.029 660.426 299.917L662.559 297.783C662.672 297.671 662.853 297.671 662.965 297.783C663.077 297.895 663.077 298.076 662.965 298.189L661.105 300.049Z" fill="#063359" stroke="#003359" stroke-width="0.2"/>
<path d="M670.895 300.19L670.966 300.119L670.895 300.049L669.035 298.189C668.923 298.077 668.923 297.895 669.035 297.783L668.964 297.712L669.035 297.783C669.147 297.671 669.329 297.671 669.441 297.783C669.441 297.783 669.441 297.783 669.441 297.783L671.574 299.917C671.687 300.029 671.687 300.21 671.574 300.322L669.441 302.456C669.385 302.512 669.312 302.54 669.238 302.54C669.164 302.54 669.091 302.512 669.035 302.456C668.923 302.344 668.923 302.162 669.035 302.05L670.895 300.19Z" fill="#063359" stroke="#003359" stroke-width="0.2"/>
<path d="M663.856 292.525C663.402 292.536 663.332 291.838 663.78 291.759C664.328 291.662 664.412 292.514 663.856 292.525Z" fill="#063359"/>
<path d="M661.675 292.525C661.221 292.536 661.152 291.838 661.6 291.759C662.147 291.661 662.231 292.515 661.675 292.525Z" fill="#063359"/>
<path d="M659.495 292.525C658.939 292.515 659.024 291.661 659.571 291.759C660.019 291.838 659.949 292.536 659.495 292.525Z" fill="#063359"/>
<path d="M689.698 295H691.21V302H689.698V300.992C689.129 301.785 688.312 302.182 687.248 302.182C686.287 302.182 685.466 301.827 684.784 301.118C684.103 300.399 683.762 299.527 683.762 298.5C683.762 297.464 684.103 296.591 684.784 295.882C685.466 295.173 686.287 294.818 687.248 294.818C688.312 294.818 689.129 295.21 689.698 295.994V295ZM685.904 300.11C686.324 300.53 686.852 300.74 687.486 300.74C688.121 300.74 688.648 300.53 689.068 300.11C689.488 299.681 689.698 299.144 689.698 298.5C689.698 297.856 689.488 297.324 689.068 296.904C688.648 296.475 688.121 296.26 687.486 296.26C686.852 296.26 686.324 296.475 685.904 296.904C685.484 297.324 685.274 297.856 685.274 298.5C685.274 299.144 685.484 299.681 685.904 300.11ZM697.435 294.818C698.396 294.818 699.217 295.177 699.899 295.896C700.58 296.605 700.921 297.473 700.921 298.5C700.921 299.536 700.58 300.409 699.899 301.118C699.217 301.827 698.396 302.182 697.435 302.182C696.371 302.182 695.554 301.79 694.985 301.006V304.8H693.473V295H694.985V296.008C695.554 295.215 696.371 294.818 697.435 294.818ZM695.615 300.11C696.035 300.53 696.562 300.74 697.197 300.74C697.831 300.74 698.359 300.53 698.779 300.11C699.199 299.681 699.409 299.144 699.409 298.5C699.409 297.856 699.199 297.324 698.779 296.904C698.359 296.475 697.831 296.26 697.197 296.26C696.562 296.26 696.035 296.475 695.615 296.904C695.195 297.324 694.985 297.856 694.985 298.5C694.985 299.144 695.195 299.681 695.615 300.11ZM706.753 294.818C707.715 294.818 708.536 295.177 709.217 295.896C709.899 296.605 710.239 297.473 710.239 298.5C710.239 299.536 709.899 300.409 709.217 301.118C708.536 301.827 707.715 302.182 706.753 302.182C705.689 302.182 704.873 301.79 704.303 301.006V304.8H702.791V295H704.303V296.008C704.873 295.215 705.689 294.818 706.753 294.818ZM704.933 300.11C705.353 300.53 705.881 300.74 706.515 300.74C707.15 300.74 707.677 300.53 708.097 300.11C708.517 299.681 708.727 299.144 708.727 298.5C708.727 297.856 708.517 297.324 708.097 296.904C707.677 296.475 707.15 296.26 706.515 296.26C705.881 296.26 705.353 296.475 704.933 296.904C704.513 297.324 704.303 297.856 704.303 298.5C704.303 299.144 704.513 299.681 704.933 300.11Z" fill="#063359"/>
<path d="M657 208.5H711C721.77 208.5 730.5 217.23 730.5 228C730.5 238.77 721.77 247.5 711 247.5H657C646.23 247.5 637.5 238.77 637.5 228C637.5 217.23 646.23 208.5 657 208.5Z" fill="#02CA7C" fill-opacity="0.12"/>
<path d="M657 208.5H711C721.77 208.5 730.5 217.23 730.5 228C730.5 238.77 721.77 247.5 711 247.5H657C646.23 247.5 637.5 238.77 637.5 228C637.5 217.23 646.23 208.5 657 208.5Z" fill="white"/>
<path d="M657 208.5H711C721.77 208.5 730.5 217.23 730.5 228C730.5 238.77 721.77 247.5 711 247.5H657C646.23 247.5 637.5 238.77 637.5 228C637.5 217.23 646.23 208.5 657 208.5Z" stroke="#02CA7C"/>
<path d="M666.441 234.154C666.441 234.299 666.586 234.385 666.706 234.315L667.424 233.868C667.504 233.819 667.554 233.723 667.554 233.62V227.7L666.441 228.394V234.153V234.154Z" fill="#A6B6C4"/>
<path d="M664.001 231.575L660.666 229.497L662 228.669L663.996 229.912L665.109 229.224L655.113 222.996L654 223.691V232.103C654 232.205 654.05 232.297 654.135 232.345L654.853 232.792C654.968 232.868 655.117 232.776 655.117 232.63V226.872L655.115 226.87L657.114 225.623L658.446 226.457L656.445 227.7L657.559 228.389L659.555 227.146L660.888 227.974L658.893 229.222L658.886 229.218V235.198C658.891 235.267 658.921 235.327 658.976 235.365L659.999 236V235.997L660.003 236L662.005 234.757L664.001 235.997V236L664.004 235.998L664.006 236L664.855 235.472C664.859 235.469 664.864 235.466 664.868 235.461L665.024 235.365C665.079 235.333 665.114 235.268 665.114 235.203V229.224L664.001 229.912V231.575H664.001ZM655.112 225.486V224.382L656.001 224.934L655.112 225.486V225.486ZM659.999 234.619V233.506L660.892 234.062L659.999 234.619ZM659.999 232.122V230.468L664.001 232.959V234.616L659.999 232.122Z" fill="#A6B6C4"/>
<path d="M656.445 233.626C656.445 233.723 656.495 233.82 656.575 233.869L657.293 234.316C657.408 234.391 657.558 234.299 657.558 234.154V228.395L656.444 227.701V233.627L656.445 233.626Z" fill="#A6B6C4"/>
<path d="M670 223.691L669.985 223.681L668.887 222.996V223.001L666.885 224.239L665.553 223.411L667.29 222.329C667.404 222.254 667.404 222.076 667.29 222.001L666.571 221.554C666.491 221.505 666.392 221.505 666.307 221.554L664.44 222.717L663.107 221.888L664.849 220.812C664.964 220.736 664.964 220.559 664.849 220.483L664.13 220.036C664.05 219.988 663.95 219.988 663.866 220.036L662 221.199L660.128 220.036C660.048 219.988 659.949 219.988 659.864 220.036L659.145 220.483C659.03 220.559 659.03 220.736 659.145 220.812L668.882 226.872L668.887 226.869V232.631C668.887 232.776 669.032 232.868 669.151 232.793L669.91 232.319C669.965 232.287 670 232.223 670 232.158V223.692V223.691ZM668.887 225.489L667.993 224.934L668.887 224.38V225.489Z" fill="#A6B6C4"/>
<path d="M657.688 221.554C657.608 221.505 657.508 221.505 657.423 221.554L656.705 222.001C656.59 222.076 656.59 222.254 656.705 222.329L666.442 228.39L667.555 227.695L657.688 221.554Z" fill="#A6B6C4"/>
<path d="M681.002 224.818C681.964 224.818 682.785 225.177 683.466 225.896C684.148 226.605 684.488 227.473 684.488 228.5C684.488 229.536 684.148 230.409 683.466 231.118C682.785 231.827 681.964 232.182 681.002 232.182C679.938 232.182 679.122 231.79 678.552 231.006V234.8H677.04V225H678.552V226.008C679.122 225.215 679.938 224.818 681.002 224.818ZM679.182 230.11C679.602 230.53 680.13 230.74 680.764 230.74C681.399 230.74 681.926 230.53 682.346 230.11C682.766 229.681 682.976 229.144 682.976 228.5C682.976 227.856 682.766 227.324 682.346 226.904C681.926 226.475 681.399 226.26 680.764 226.26C680.13 226.26 679.602 226.475 679.182 226.904C678.762 227.324 678.552 227.856 678.552 228.5C678.552 229.144 678.762 229.681 679.182 230.11ZM687.871 226.176C688.253 225.308 688.972 224.874 690.027 224.874V226.512C689.448 226.475 688.944 226.615 688.515 226.932C688.085 227.24 687.871 227.753 687.871 228.472V232H686.359V225H687.871V226.176ZM694.62 232.182C693.593 232.182 692.72 231.827 692.002 231.118C691.283 230.409 690.924 229.536 690.924 228.5C690.924 227.464 691.283 226.591 692.002 225.882C692.72 225.173 693.593 224.818 694.62 224.818C695.656 224.818 696.528 225.173 697.238 225.882C697.956 226.591 698.316 227.464 698.316 228.5C698.316 229.536 697.956 230.409 697.238 231.118C696.528 231.827 695.656 232.182 694.62 232.182ZM693.066 230.082C693.486 230.502 694.004 230.712 694.62 230.712C695.236 230.712 695.754 230.502 696.174 230.082C696.594 229.662 696.804 229.135 696.804 228.5C696.804 227.865 696.594 227.338 696.174 226.918C695.754 226.498 695.236 226.288 694.62 226.288C694.004 226.288 693.486 226.498 693.066 226.918C692.646 227.338 692.436 227.865 692.436 228.5C692.436 229.135 692.646 229.662 693.066 230.082ZM705.935 232H704.185L702.449 229.606L700.699 232H698.935L701.567 228.402L699.075 225H700.825L702.435 227.212L704.045 225H705.809L703.317 228.416L705.935 232ZM712.168 225H713.778L711.09 232.224C710.418 234.035 709.28 234.893 707.674 234.8V233.386C708.15 233.414 708.533 233.311 708.822 233.078C709.112 232.854 709.35 232.499 709.536 232.014L709.606 231.874L706.638 225H708.29L710.376 230.082L712.168 225Z" fill="#063359"/>
<path d="M679.646 273.354C679.842 273.549 680.158 273.549 680.354 273.354L683.536 270.172C683.731 269.976 683.731 269.66 683.536 269.464C683.34 269.269 683.024 269.269 682.828 269.464L680 272.293L677.172 269.464C676.976 269.269 676.66 269.269 676.464 269.464C676.269 269.66 676.269 269.976 676.464 270.172L679.646 273.354ZM679.5 248L679.5 273L680.5 273L680.5 248L679.5 248Z" fill="#02CA7C"/>
<path d="M688.354 252.646C688.158 252.451 687.842 252.451 687.646 252.646L684.464 255.828C684.269 256.024 684.269 256.34 684.464 256.536C684.66 256.731 684.976 256.731 685.172 256.536L688 253.707L690.828 256.536C691.024 256.731 691.34 256.731 691.536 256.536C691.731 256.34 691.731 256.024 691.536 255.828L688.354 252.646ZM687.5 253L687.5 278L688.5 278L688.5 253L687.5 253Z" fill="#02CA7C"/>
<path d="M678.354 134.646C678.158 134.451 677.842 134.451 677.646 134.646L674.464 137.828C674.269 138.024 674.269 138.34 674.464 138.536C674.66 138.731 674.976 138.731 675.172 138.536L678 135.707L680.828 138.536C681.024 138.731 681.34 138.731 681.536 138.536C681.731 138.34 681.731 138.024 681.536 137.828L678.354 134.646ZM677.5 135V205H678.5V135H677.5Z" fill="#003359"/>
<path d="M688.646 205.354C688.842 205.549 689.158 205.549 689.354 205.354L692.536 202.172C692.731 201.976 692.731 201.66 692.536 201.464C692.34 201.269 692.024 201.269 691.828 201.464L689 204.293L686.172 201.464C685.976 201.269 685.66 201.269 685.464 201.464C685.269 201.66 685.269 201.976 685.464 202.172L688.646 205.354ZM688.5 135V205H689.5V135H688.5Z" fill="#003359"/>
<circle cx="751.308" cy="229.308" r="2.30769" fill="#003359"/>
<circle cx="759" cy="229.308" r="2.30769" fill="#003359"/>
<circle cx="766.692" cy="229.308" r="2.30769" fill="#003359"/>
<circle cx="751.308" cy="297.308" r="2.30769" fill="#003359"/>
<circle cx="759" cy="297.308" r="2.30769" fill="#003359"/>
<circle cx="766.692" cy="297.308" r="2.30769" fill="#003359"/>
<defs>
<filter id="filter0_dd_1309_6314" x="96" y="17" width="695" height="183" filterUnits="userSpaceOnUse" color-interpolation-filters="sRGB">
<feFlood flood-opacity="0" result="BackgroundImageFix"/>
<feColorMatrix in="SourceAlpha" type="matrix" values="0 0 0 0 0 0 0 0 0 0 0 0 0 0 0 0 0 0 127 0" result="hardAlpha"/>
<feOffset dy="4"/>
<feGaussianBlur stdDeviation="25"/>
<feComposite in2="hardAlpha" operator="out"/>
<feColorMatrix type="matrix" values="0 0 0 0 0.77859 0 0 0 0 0.848154 0 0 0 0 0.90778 0 0 0 0.5 0"/>
<feBlend mode="normal" in2="BackgroundImageFix" result="effect1_dropShadow_1309_6314"/>
<feColorMatrix in="SourceAlpha" type="matrix" values="0 0 0 0 0 0 0 0 0 0 0 0 0 0 0 0 0 0 127 0" result="hardAlpha"/>
<feOffset/>
<feGaussianBlur stdDeviation="2"/>
<feComposite in2="hardAlpha" operator="out"/>
<feColorMatrix type="matrix" values="0 0 0 0 0.780392 0 0 0 0 0.847059 0 0 0 0 0.905882 0 0 0 1 0"/>
<feBlend mode="normal" in2="effect1_dropShadow_1309_6314" result="effect2_dropShadow_1309_6314"/>
<feBlend mode="normal" in="SourceGraphic" in2="effect2_dropShadow_1309_6314" result="shape"/>
</filter>
<filter id="filter1_dd_1309_6314" x="120" y="150" width="214" height="234" filterUnits="userSpaceOnUse" color-interpolation-filters="sRGB">
<feFlood flood-opacity="0" result="BackgroundImageFix"/>
<feColorMatrix in="SourceAlpha" type="matrix" values="0 0 0 0 0 0 0 0 0 0 0 0 0 0 0 0 0 0 127 0" result="hardAlpha"/>
<feOffset dy="4"/>
<feGaussianBlur stdDeviation="25"/>
<feComposite in2="hardAlpha" operator="out"/>
<feColorMatrix type="matrix" values="0 0 0 0 0.77859 0 0 0 0 0.848154 0 0 0 0 0.90778 0 0 0 0.5 0"/>
<feBlend mode="normal" in2="BackgroundImageFix" result="effect1_dropShadow_1309_6314"/>
<feColorMatrix in="SourceAlpha" type="matrix" values="0 0 0 0 0 0 0 0 0 0 0 0 0 0 0 0 0 0 127 0" result="hardAlpha"/>
<feOffset/>
<feGaussianBlur stdDeviation="2"/>
<feComposite in2="hardAlpha" operator="out"/>
<feColorMatrix type="matrix" values="0 0 0 0 0.780392 0 0 0 0 0.847059 0 0 0 0 0.905882 0 0 0 1 0"/>
<feBlend mode="normal" in2="effect1_dropShadow_1309_6314" result="effect2_dropShadow_1309_6314"/>
<feBlend mode="normal" in="SourceGraphic" in2="effect2_dropShadow_1309_6314" result="shape"/>
</filter>
<filter id="filter2_dd_1309_6314" x="273" y="150" width="214" height="234" filterUnits="userSpaceOnUse" color-interpolation-filters="sRGB">
<feFlood flood-opacity="0" result="BackgroundImageFix"/>
<feColorMatrix in="SourceAlpha" type="matrix" values="0 0 0 0 0 0 0 0 0 0 0 0 0 0 0 0 0 0 127 0" result="hardAlpha"/>
<feOffset dy="4"/>
<feGaussianBlur stdDeviation="25"/>
<feComposite in2="hardAlpha" operator="out"/>
<feColorMatrix type="matrix" values="0 0 0 0 0.77859 0 0 0 0 0.848154 0 0 0 0 0.90778 0 0 0 0.5 0"/>
<feBlend mode="normal" in2="BackgroundImageFix" result="effect1_dropShadow_1309_6314"/>
<feColorMatrix in="SourceAlpha" type="matrix" values="0 0 0 0 0 0 0 0 0 0 0 0 0 0 0 0 0 0 127 0" result="hardAlpha"/>
<feOffset/>
<feGaussianBlur stdDeviation="2"/>
<feComposite in2="hardAlpha" operator="out"/>
<feColorMatrix type="matrix" values="0 0 0 0 0.780392 0 0 0 0 0.847059 0 0 0 0 0.905882 0 0 0 1 0"/>
<feBlend mode="normal" in2="effect1_dropShadow_1309_6314" result="effect2_dropShadow_1309_6314"/>
<feBlend mode="normal" in="SourceGraphic" in2="effect2_dropShadow_1309_6314" result="shape"/>
</filter>
<filter id="filter3_dd_1309_6314" x="425" y="150" width="214" height="234" filterUnits="userSpaceOnUse" color-interpolation-filters="sRGB">
<feFlood flood-opacity="0" result="BackgroundImageFix"/>
<feColorMatrix in="SourceAlpha" type="matrix" values="0 0 0 0 0 0 0 0 0 0 0 0 0 0 0 0 0 0 127 0" result="hardAlpha"/>
<feOffset dy="4"/>
<feGaussianBlur stdDeviation="25"/>
<feComposite in2="hardAlpha" operator="out"/>
<feColorMatrix type="matrix" values="0 0 0 0 0.77859 0 0 0 0 0.848154 0 0 0 0 0.90778 0 0 0 0.5 0"/>
<feBlend mode="normal" in2="BackgroundImageFix" result="effect1_dropShadow_1309_6314"/>
<feColorMatrix in="SourceAlpha" type="matrix" values="0 0 0 0 0 0 0 0 0 0 0 0 0 0 0 0 0 0 127 0" result="hardAlpha"/>
<feOffset/>
<feGaussianBlur stdDeviation="2"/>
<feComposite in2="hardAlpha" operator="out"/>
<feColorMatrix type="matrix" values="0 0 0 0 0.780392 0 0 0 0 0.847059 0 0 0 0 0.905882 0 0 0 1 0"/>
<feBlend mode="normal" in2="effect1_dropShadow_1309_6314" result="effect2_dropShadow_1309_6314"/>
<feBlend mode="normal" in="SourceGraphic" in2="effect2_dropShadow_1309_6314" result="shape"/>
</filter>
<filter id="filter4_dd_1309_6314" x="577" y="150" width="214" height="234" filterUnits="userSpaceOnUse" color-interpolation-filters="sRGB">
<feFlood flood-opacity="0" result="BackgroundImageFix"/>
<feColorMatrix in="SourceAlpha" type="matrix" values="0 0 0 0 0 0 0 0 0 0 0 0 0 0 0 0 0 0 127 0" result="hardAlpha"/>
<feOffset dy="4"/>
<feGaussianBlur stdDeviation="25"/>
<feComposite in2="hardAlpha" operator="out"/>
<feColorMatrix type="matrix" values="0 0 0 0 0.77859 0 0 0 0 0.848154 0 0 0 0 0.90778 0 0 0 0.5 0"/>
<feBlend mode="normal" in2="BackgroundImageFix" result="effect1_dropShadow_1309_6314"/>
<feColorMatrix in="SourceAlpha" type="matrix" values="0 0 0 0 0 0 0 0 0 0 0 0 0 0 0 0 0 0 127 0" result="hardAlpha"/>
<feOffset/>
<feGaussianBlur stdDeviation="2"/>
<feComposite in2="hardAlpha" operator="out"/>
<feColorMatrix type="matrix" values="0 0 0 0 0.780392 0 0 0 0 0.847059 0 0 0 0 0.905882 0 0 0 1 0"/>
<feBlend mode="normal" in2="effect1_dropShadow_1309_6314" result="effect2_dropShadow_1309_6314"/>
<feBlend mode="normal" in="SourceGraphic" in2="effect2_dropShadow_1309_6314" result="shape"/>
</filter>
</defs>
</svg>
