<svg width="816" height="653" viewBox="0 0 816 653" fill="none" xmlns="http://www.w3.org/2000/svg">
<g clip-path="url(#clip0_2_189)">
<g filter="url(#filter0_dd_2_189)">
<path d="M141 65C141 56.1634 148.163 49 157 49H247C255.837 49 263 56.1634 263 65V139C263 147.837 255.837 155 247 155H157C148.163 155 141 147.837 141 139V65Z" fill="white"/>
<path d="M141.5 65C141.5 56.4396 148.44 49.5 157 49.5H247C255.56 49.5 262.5 56.4396 262.5 65V139C262.5 147.56 255.56 154.5 247 154.5H157C148.44 154.5 141.5 147.56 141.5 139V65Z" stroke="#02CA7C"/>
</g>
<g filter="url(#filter1_dd_2_189)">
<path d="M288 65C288 56.1634 295.163 49 304 49H658C666.837 49 674 56.1634 674 65V297C674 305.837 666.837 313 658 313H304C295.163 313 288 305.837 288 297V65Z" fill="white"/>
<path d="M288.5 65C288.5 56.4396 295.44 49.5 304 49.5H658C666.56 49.5 673.5 56.4396 673.5 65V297C673.5 305.56 666.56 312.5 658 312.5H304C295.44 312.5 288.5 305.56 288.5 297V65Z" stroke="#02CA7C"/>
</g>
<path d="M523.194 297V286.78H524.706V297H523.194ZM528.389 288.67C528.202 288.857 527.978 288.95 527.717 288.95C527.456 288.95 527.227 288.857 527.031 288.67C526.844 288.474 526.751 288.245 526.751 287.984C526.751 287.723 526.844 287.499 527.031 287.312C527.218 287.116 527.446 287.018 527.717 287.018C527.988 287.018 528.216 287.116 528.403 287.312C528.59 287.499 528.683 287.723 528.683 287.984C528.683 288.245 528.585 288.474 528.389 288.67ZM526.961 297V290H528.473V297H526.961ZM534.411 289.818C535.213 289.818 535.862 290.075 536.357 290.588C536.851 291.101 537.099 291.806 537.099 292.702V297H535.587V292.856C535.587 292.333 535.447 291.932 535.167 291.652C534.887 291.372 534.504 291.232 534.019 291.232C533.487 291.232 533.057 291.4 532.731 291.736C532.404 292.063 532.241 292.567 532.241 293.248V297H530.729V290H532.241V290.896C532.698 290.177 533.421 289.818 534.411 289.818ZM545.415 297H543.609L540.739 293.766V297H539.227V287.2H540.739V293.094L543.455 290H545.303L542.223 293.43L545.415 297ZM547.561 294.144C547.673 294.676 547.93 295.087 548.331 295.376C548.733 295.656 549.223 295.796 549.801 295.796C550.604 295.796 551.206 295.507 551.607 294.928L552.853 295.656C552.163 296.673 551.141 297.182 549.787 297.182C548.649 297.182 547.729 296.837 547.029 296.146C546.329 295.446 545.979 294.564 545.979 293.5C545.979 292.455 546.325 291.582 547.015 290.882C547.706 290.173 548.593 289.818 549.675 289.818C550.702 289.818 551.542 290.177 552.195 290.896C552.858 291.615 553.189 292.487 553.189 293.514C553.189 293.673 553.171 293.883 553.133 294.144H547.561ZM547.547 292.912H551.663C551.561 292.343 551.323 291.913 550.949 291.624C550.585 291.335 550.156 291.19 549.661 291.19C549.101 291.19 548.635 291.344 548.261 291.652C547.888 291.96 547.65 292.38 547.547 292.912ZM556.532 291.176C556.914 290.308 557.633 289.874 558.688 289.874V291.512C558.109 291.475 557.605 291.615 557.176 291.932C556.746 292.24 556.532 292.753 556.532 293.472V297H555.02V290H556.532V291.176ZM565.521 287.2H567.033V297H565.521V295.992C564.951 296.785 564.135 297.182 563.071 297.182C562.109 297.182 561.288 296.827 560.607 296.118C559.925 295.399 559.585 294.527 559.585 293.5C559.585 292.464 559.925 291.591 560.607 290.882C561.288 290.173 562.109 289.818 563.071 289.818C564.135 289.818 564.951 290.21 565.521 290.994V287.2ZM561.727 295.11C562.147 295.53 562.674 295.74 563.309 295.74C563.943 295.74 564.471 295.53 564.891 295.11C565.311 294.681 565.521 294.144 565.521 293.5C565.521 292.856 565.311 292.324 564.891 291.904C564.471 291.475 563.943 291.26 563.309 291.26C562.674 291.26 562.147 291.475 561.727 291.904C561.307 292.324 561.097 292.856 561.097 293.5C561.097 294.144 561.307 294.681 561.727 295.11ZM576.977 289.818C577.78 289.818 578.428 290.075 578.923 290.588C579.418 291.101 579.665 291.806 579.665 292.702V297H578.153V292.856C578.153 292.333 578.013 291.932 577.733 291.652C577.453 291.372 577.07 291.232 576.585 291.232C576.053 291.232 575.624 291.4 575.297 291.736C574.97 292.063 574.807 292.567 574.807 293.248V297H573.295V290H574.807V290.896C575.264 290.177 575.988 289.818 576.977 289.818ZM587.337 290H588.849V297H587.337V295.992C586.768 296.785 585.951 297.182 584.887 297.182C583.926 297.182 583.104 296.827 582.423 296.118C581.742 295.399 581.401 294.527 581.401 293.5C581.401 292.464 581.742 291.591 582.423 290.882C583.104 290.173 583.926 289.818 584.887 289.818C585.951 289.818 586.768 290.21 587.337 290.994V290ZM583.543 295.11C583.963 295.53 584.49 295.74 585.125 295.74C585.76 295.74 586.287 295.53 586.707 295.11C587.127 294.681 587.337 294.144 587.337 293.5C587.337 292.856 587.127 292.324 586.707 291.904C586.287 291.475 585.76 291.26 585.125 291.26C584.49 291.26 583.963 291.475 583.543 291.904C583.123 292.324 582.913 292.856 582.913 293.5C582.913 294.144 583.123 294.681 583.543 295.11ZM598.755 289.818C599.549 289.818 600.188 290.075 600.673 290.588C601.159 291.101 601.401 291.792 601.401 292.66V297H599.889V292.758C599.889 292.273 599.768 291.899 599.525 291.638C599.283 291.367 598.951 291.232 598.531 291.232C598.065 291.232 597.691 291.386 597.411 291.694C597.141 292.002 597.005 292.464 597.005 293.08V297H595.493V292.758C595.493 292.273 595.377 291.899 595.143 291.638C594.919 291.367 594.597 291.232 594.177 291.232C593.72 291.232 593.347 291.391 593.057 291.708C592.768 292.016 592.623 292.473 592.623 293.08V297H591.111V290H592.623V290.84C593.071 290.159 593.739 289.818 594.625 289.818C595.521 289.818 596.184 290.187 596.613 290.924C597.08 290.187 597.794 289.818 598.755 289.818ZM604.71 294.144C604.822 294.676 605.078 295.087 605.48 295.376C605.881 295.656 606.371 295.796 606.95 295.796C607.752 295.796 608.354 295.507 608.756 294.928L610.002 295.656C609.311 296.673 608.289 297.182 606.936 297.182C605.797 297.182 604.878 296.837 604.178 296.146C603.478 295.446 603.128 294.564 603.128 293.5C603.128 292.455 603.473 291.582 604.164 290.882C604.854 290.173 605.741 289.818 606.824 289.818C607.85 289.818 608.69 290.177 609.344 290.896C610.006 291.615 610.338 292.487 610.338 293.514C610.338 293.673 610.319 293.883 610.282 294.144H604.71ZM604.696 292.912H608.812C608.709 292.343 608.471 291.913 608.098 291.624C607.734 291.335 607.304 291.19 606.81 291.19C606.25 291.19 605.783 291.344 605.41 291.652C605.036 291.96 604.798 292.38 604.696 292.912ZM613.253 291.932C613.253 292.165 613.379 292.352 613.631 292.492C613.892 292.623 614.205 292.739 614.569 292.842C614.942 292.935 615.315 293.047 615.689 293.178C616.062 293.309 616.375 293.533 616.627 293.85C616.888 294.158 617.019 294.55 617.019 295.026C617.019 295.698 616.757 296.225 616.235 296.608C615.721 296.991 615.073 297.182 614.289 297.182C613.598 297.182 613.005 297.037 612.511 296.748C612.016 296.459 611.657 296.057 611.433 295.544L612.735 294.788C612.977 295.46 613.495 295.796 614.289 295.796C615.082 295.796 615.479 295.535 615.479 295.012C615.479 294.788 615.348 294.606 615.087 294.466C614.835 294.326 614.522 294.209 614.149 294.116C613.785 294.013 613.416 293.897 613.043 293.766C612.669 293.635 612.352 293.421 612.091 293.122C611.839 292.814 611.713 292.427 611.713 291.96C611.713 291.316 611.955 290.798 612.441 290.406C612.935 290.014 613.547 289.818 614.275 289.818C614.853 289.818 615.367 289.949 615.815 290.21C616.272 290.462 616.622 290.817 616.865 291.274L615.591 291.988C615.348 291.456 614.909 291.19 614.275 291.19C613.985 291.19 613.743 291.255 613.547 291.386C613.351 291.507 613.253 291.689 613.253 291.932ZM622.81 289.818C623.771 289.818 624.592 290.177 625.274 290.896C625.955 291.605 626.296 292.473 626.296 293.5C626.296 294.536 625.955 295.409 625.274 296.118C624.592 296.827 623.771 297.182 622.81 297.182C621.746 297.182 620.929 296.79 620.36 296.006V299.8H618.848V290H620.36V291.008C620.929 290.215 621.746 289.818 622.81 289.818ZM620.99 295.11C621.41 295.53 621.937 295.74 622.572 295.74C623.206 295.74 623.734 295.53 624.154 295.11C624.574 294.681 624.784 294.144 624.784 293.5C624.784 292.856 624.574 292.324 624.154 291.904C623.734 291.475 623.206 291.26 622.572 291.26C621.937 291.26 621.41 291.475 620.99 291.904C620.57 292.324 620.36 292.856 620.36 293.5C620.36 294.144 620.57 294.681 620.99 295.11ZM633.71 290H635.222V297H633.71V295.992C633.141 296.785 632.324 297.182 631.26 297.182C630.299 297.182 629.478 296.827 628.796 296.118C628.115 295.399 627.774 294.527 627.774 293.5C627.774 292.464 628.115 291.591 628.796 290.882C629.478 290.173 630.299 289.818 631.26 289.818C632.324 289.818 633.141 290.21 633.71 290.994V290ZM629.916 295.11C630.336 295.53 630.864 295.74 631.498 295.74C632.133 295.74 632.66 295.53 633.08 295.11C633.5 294.681 633.71 294.144 633.71 293.5C633.71 292.856 633.5 292.324 633.08 291.904C632.66 291.475 632.133 291.26 631.498 291.26C630.864 291.26 630.336 291.475 629.916 291.904C629.496 292.324 629.286 292.856 629.286 293.5C629.286 294.144 629.496 294.681 629.916 295.11ZM640.789 297.182C639.734 297.182 638.852 296.827 638.143 296.118C637.443 295.409 637.093 294.536 637.093 293.5C637.093 292.455 637.443 291.582 638.143 290.882C638.852 290.173 639.734 289.818 640.789 289.818C641.47 289.818 642.091 289.981 642.651 290.308C643.211 290.635 643.631 291.073 643.911 291.624L642.609 292.38C642.45 292.044 642.207 291.783 641.881 291.596C641.563 291.4 641.195 291.302 640.775 291.302C640.159 291.302 639.641 291.512 639.221 291.932C638.81 292.352 638.605 292.875 638.605 293.5C638.605 294.125 638.81 294.648 639.221 295.068C639.641 295.488 640.159 295.698 640.775 295.698C641.185 295.698 641.554 295.6 641.881 295.404C642.217 295.208 642.469 294.947 642.637 294.62L643.939 295.362C643.64 295.922 643.211 296.365 642.651 296.692C642.091 297.019 641.47 297.182 640.789 297.182ZM646.612 294.144C646.724 294.676 646.981 295.087 647.382 295.376C647.783 295.656 648.273 295.796 648.852 295.796C649.655 295.796 650.257 295.507 650.658 294.928L651.904 295.656C651.213 296.673 650.191 297.182 648.838 297.182C647.699 297.182 646.78 296.837 646.08 296.146C645.38 295.446 645.03 294.564 645.03 293.5C645.03 292.455 645.375 291.582 646.066 290.882C646.757 290.173 647.643 289.818 648.726 289.818C649.753 289.818 650.593 290.177 651.246 290.896C651.909 291.615 652.24 292.487 652.24 293.514C652.24 293.673 652.221 293.883 652.184 294.144H646.612ZM646.598 292.912H650.714C650.611 292.343 650.373 291.913 650 291.624C649.636 291.335 649.207 291.19 648.712 291.19C648.152 291.19 647.685 291.344 647.312 291.652C646.939 291.96 646.701 292.38 646.598 292.912Z" fill="#063359"/>
<path d="M146.186 327.182C145.131 327.182 144.249 326.827 143.54 326.118C142.84 325.409 142.49 324.536 142.49 323.5C142.49 322.455 142.84 321.582 143.54 320.882C144.249 320.173 145.131 319.818 146.186 319.818C146.867 319.818 147.488 319.981 148.048 320.308C148.608 320.635 149.028 321.073 149.308 321.624L148.006 322.38C147.847 322.044 147.605 321.783 147.278 321.596C146.961 321.4 146.592 321.302 146.172 321.302C145.556 321.302 145.038 321.512 144.618 321.932C144.207 322.352 144.002 322.875 144.002 323.5C144.002 324.125 144.207 324.648 144.618 325.068C145.038 325.488 145.556 325.698 146.172 325.698C146.583 325.698 146.951 325.6 147.278 325.404C147.614 325.208 147.866 324.947 148.034 324.62L149.336 325.362C149.037 325.922 148.608 326.365 148.048 326.692C147.488 327.019 146.867 327.182 146.186 327.182ZM154.124 327.182C153.097 327.182 152.224 326.827 151.506 326.118C150.787 325.409 150.428 324.536 150.428 323.5C150.428 322.464 150.787 321.591 151.506 320.882C152.224 320.173 153.097 319.818 154.124 319.818C155.16 319.818 156.032 320.173 156.742 320.882C157.46 321.591 157.82 322.464 157.82 323.5C157.82 324.536 157.46 325.409 156.742 326.118C156.032 326.827 155.16 327.182 154.124 327.182ZM152.57 325.082C152.99 325.502 153.508 325.712 154.124 325.712C154.74 325.712 155.258 325.502 155.678 325.082C156.098 324.662 156.308 324.135 156.308 323.5C156.308 322.865 156.098 322.338 155.678 321.918C155.258 321.498 154.74 321.288 154.124 321.288C153.508 321.288 152.99 321.498 152.57 321.918C152.15 322.338 151.94 322.865 151.94 323.5C151.94 324.135 152.15 324.662 152.57 325.082ZM163.369 319.818C164.171 319.818 164.82 320.075 165.315 320.588C165.809 321.101 166.057 321.806 166.057 322.702V327H164.545V322.856C164.545 322.333 164.405 321.932 164.125 321.652C163.845 321.372 163.462 321.232 162.977 321.232C162.445 321.232 162.015 321.4 161.689 321.736C161.362 322.063 161.199 322.567 161.199 323.248V327H159.687V320H161.199V320.896C161.656 320.177 162.379 319.818 163.369 319.818ZM172.091 321.456H170.355V324.816C170.355 325.105 170.42 325.315 170.551 325.446C170.681 325.567 170.873 325.637 171.125 325.656C171.386 325.665 171.708 325.661 172.091 325.642V327C170.933 327.14 170.103 327.042 169.599 326.706C169.095 326.361 168.843 325.731 168.843 324.816V321.456H167.555V320H168.843V318.488L170.355 318.04V320H172.091V321.456ZM175.542 321.176C175.925 320.308 176.644 319.874 177.698 319.874V321.512C177.12 321.475 176.616 321.615 176.186 321.932C175.757 322.24 175.542 322.753 175.542 323.472V327H174.03V320H175.542V321.176ZM182.291 327.182C181.265 327.182 180.392 326.827 179.673 326.118C178.955 325.409 178.595 324.536 178.595 323.5C178.595 322.464 178.955 321.591 179.673 320.882C180.392 320.173 181.265 319.818 182.291 319.818C183.327 319.818 184.2 320.173 184.909 320.882C185.628 321.591 185.987 322.464 185.987 323.5C185.987 324.536 185.628 325.409 184.909 326.118C184.2 326.827 183.327 327.182 182.291 327.182ZM180.737 325.082C181.157 325.502 181.675 325.712 182.291 325.712C182.907 325.712 183.425 325.502 183.845 325.082C184.265 324.662 184.475 324.135 184.475 323.5C184.475 322.865 184.265 322.338 183.845 321.918C183.425 321.498 182.907 321.288 182.291 321.288C181.675 321.288 181.157 321.498 180.737 321.918C180.317 322.338 180.107 322.865 180.107 323.5C180.107 324.135 180.317 324.662 180.737 325.082ZM187.855 327V316.78H189.367V327H187.855ZM199.584 319.818C200.546 319.818 201.367 320.177 202.048 320.896C202.73 321.605 203.07 322.473 203.07 323.5C203.07 324.536 202.73 325.409 202.048 326.118C201.367 326.827 200.546 327.182 199.584 327.182C198.52 327.182 197.704 326.79 197.134 326.006V329.8H195.622V320H197.134V321.008C197.704 320.215 198.52 319.818 199.584 319.818ZM197.764 325.11C198.184 325.53 198.712 325.74 199.346 325.74C199.981 325.74 200.508 325.53 200.928 325.11C201.348 324.681 201.558 324.144 201.558 323.5C201.558 322.856 201.348 322.324 200.928 321.904C200.508 321.475 199.981 321.26 199.346 321.26C198.712 321.26 198.184 321.475 197.764 321.904C197.344 322.324 197.134 322.856 197.134 323.5C197.134 324.144 197.344 324.681 197.764 325.11ZM204.941 327V316.78H206.453V327H204.941ZM214.252 320H215.764V327H214.252V325.992C213.683 326.785 212.866 327.182 211.802 327.182C210.841 327.182 210.02 326.827 209.338 326.118C208.657 325.399 208.316 324.527 208.316 323.5C208.316 322.464 208.657 321.591 209.338 320.882C210.02 320.173 210.841 319.818 211.802 319.818C212.866 319.818 213.683 320.21 214.252 320.994V320ZM210.458 325.11C210.878 325.53 211.406 325.74 212.04 325.74C212.675 325.74 213.202 325.53 213.622 325.11C214.042 324.681 214.252 324.144 214.252 323.5C214.252 322.856 214.042 322.324 213.622 321.904C213.202 321.475 212.675 321.26 212.04 321.26C211.406 321.26 210.878 321.475 210.458 321.904C210.038 322.324 209.828 322.856 209.828 323.5C209.828 324.144 210.038 324.681 210.458 325.11ZM221.709 319.818C222.511 319.818 223.16 320.075 223.655 320.588C224.149 321.101 224.397 321.806 224.397 322.702V327H222.885V322.856C222.885 322.333 222.745 321.932 222.465 321.652C222.185 321.372 221.802 321.232 221.317 321.232C220.785 321.232 220.355 321.4 220.029 321.736C219.702 322.063 219.539 322.567 219.539 323.248V327H218.027V320H219.539V320.896C219.996 320.177 220.719 319.818 221.709 319.818ZM227.715 324.144C227.827 324.676 228.083 325.087 228.485 325.376C228.886 325.656 229.376 325.796 229.955 325.796C230.757 325.796 231.359 325.507 231.761 324.928L233.007 325.656C232.316 326.673 231.294 327.182 229.941 327.182C228.802 327.182 227.883 326.837 227.183 326.146C226.483 325.446 226.133 324.564 226.133 323.5C226.133 322.455 226.478 321.582 227.169 320.882C227.859 320.173 228.746 319.818 229.829 319.818C230.855 319.818 231.695 320.177 232.349 320.896C233.011 321.615 233.343 322.487 233.343 323.514C233.343 323.673 233.324 323.883 233.287 324.144H227.715ZM227.701 322.912H231.817C231.714 322.343 231.476 321.913 231.103 321.624C230.739 321.335 230.309 321.19 229.815 321.19C229.255 321.19 228.788 321.344 228.415 321.652C228.041 321.96 227.803 322.38 227.701 322.912Z" fill="#063359"/>
<path d="M148.426 357.2H149.938V367H148.426V365.992C147.857 366.785 147.04 367.182 145.976 367.182C145.015 367.182 144.193 366.827 143.512 366.118C142.831 365.399 142.49 364.527 142.49 363.5C142.49 362.464 142.831 361.591 143.512 360.882C144.193 360.173 145.015 359.818 145.976 359.818C147.04 359.818 147.857 360.21 148.426 360.994V357.2ZM144.632 365.11C145.052 365.53 145.579 365.74 146.214 365.74C146.849 365.74 147.376 365.53 147.796 365.11C148.216 364.681 148.426 364.144 148.426 363.5C148.426 362.856 148.216 362.324 147.796 361.904C147.376 361.475 146.849 361.26 146.214 361.26C145.579 361.26 145.052 361.475 144.632 361.904C144.212 362.324 144.002 362.856 144.002 363.5C144.002 364.144 144.212 364.681 144.632 365.11ZM157.744 360H159.256V367H157.744V365.992C157.175 366.785 156.358 367.182 155.294 367.182C154.333 367.182 153.512 366.827 152.83 366.118C152.149 365.399 151.808 364.527 151.808 363.5C151.808 362.464 152.149 361.591 152.83 360.882C153.512 360.173 154.333 359.818 155.294 359.818C156.358 359.818 157.175 360.21 157.744 360.994V360ZM153.95 365.11C154.37 365.53 154.898 365.74 155.532 365.74C156.167 365.74 156.694 365.53 157.114 365.11C157.534 364.681 157.744 364.144 157.744 363.5C157.744 362.856 157.534 362.324 157.114 361.904C156.694 361.475 156.167 361.26 155.532 361.26C154.898 361.26 154.37 361.475 153.95 361.904C153.53 362.324 153.32 362.856 153.32 363.5C153.32 364.144 153.53 364.681 153.95 365.11ZM165.425 361.456H163.689V364.816C163.689 365.105 163.754 365.315 163.885 365.446C164.015 365.567 164.207 365.637 164.459 365.656C164.72 365.665 165.042 365.661 165.425 365.642V367C164.267 367.14 163.437 367.042 162.933 366.706C162.429 366.361 162.177 365.731 162.177 364.816V361.456H160.889V360H162.177V358.488L163.689 358.04V360H165.425V361.456ZM172.553 360H174.065V367H172.553V365.992C171.984 366.785 171.167 367.182 170.103 367.182C169.142 367.182 168.32 366.827 167.639 366.118C166.958 365.399 166.617 364.527 166.617 363.5C166.617 362.464 166.958 361.591 167.639 360.882C168.32 360.173 169.142 359.818 170.103 359.818C171.167 359.818 171.984 360.21 172.553 360.994V360ZM168.759 365.11C169.179 365.53 169.706 365.74 170.341 365.74C170.976 365.74 171.503 365.53 171.923 365.11C172.343 364.681 172.553 364.144 172.553 363.5C172.553 362.856 172.343 362.324 171.923 361.904C171.503 361.475 170.976 361.26 170.341 361.26C169.706 361.26 169.179 361.475 168.759 361.904C168.339 362.324 168.129 362.856 168.129 363.5C168.129 364.144 168.339 364.681 168.759 365.11ZM184.289 359.818C185.251 359.818 186.072 360.177 186.753 360.896C187.435 361.605 187.775 362.473 187.775 363.5C187.775 364.536 187.435 365.409 186.753 366.118C186.072 366.827 185.251 367.182 184.289 367.182C183.225 367.182 182.409 366.79 181.839 366.006V369.8H180.327V360H181.839V361.008C182.409 360.215 183.225 359.818 184.289 359.818ZM182.469 365.11C182.889 365.53 183.417 365.74 184.051 365.74C184.686 365.74 185.213 365.53 185.633 365.11C186.053 364.681 186.263 364.144 186.263 363.5C186.263 362.856 186.053 362.324 185.633 361.904C185.213 361.475 184.686 361.26 184.051 361.26C183.417 361.26 182.889 361.475 182.469 361.904C182.049 362.324 181.839 362.856 181.839 363.5C181.839 364.144 182.049 364.681 182.469 365.11ZM189.646 367V356.78H191.158V367H189.646ZM198.957 360H200.469V367H198.957V365.992C198.388 366.785 197.571 367.182 196.507 367.182C195.546 367.182 194.725 366.827 194.043 366.118C193.362 365.399 193.021 364.527 193.021 363.5C193.021 362.464 193.362 361.591 194.043 360.882C194.725 360.173 195.546 359.818 196.507 359.818C197.571 359.818 198.388 360.21 198.957 360.994V360ZM195.163 365.11C195.583 365.53 196.111 365.74 196.745 365.74C197.38 365.74 197.907 365.53 198.327 365.11C198.747 364.681 198.957 364.144 198.957 363.5C198.957 362.856 198.747 362.324 198.327 361.904C197.907 361.475 197.38 361.26 196.745 361.26C196.111 361.26 195.583 361.475 195.163 361.904C194.743 362.324 194.533 362.856 194.533 363.5C194.533 364.144 194.743 364.681 195.163 365.11ZM206.414 359.818C207.216 359.818 207.865 360.075 208.36 360.588C208.854 361.101 209.102 361.806 209.102 362.702V367H207.59V362.856C207.59 362.333 207.45 361.932 207.17 361.652C206.89 361.372 206.507 361.232 206.022 361.232C205.49 361.232 205.06 361.4 204.734 361.736C204.407 362.063 204.244 362.567 204.244 363.248V367H202.732V360H204.244V360.896C204.701 360.177 205.424 359.818 206.414 359.818ZM212.42 364.144C212.532 364.676 212.788 365.087 213.19 365.376C213.591 365.656 214.081 365.796 214.66 365.796C215.462 365.796 216.064 365.507 216.466 364.928L217.712 365.656C217.021 366.673 215.999 367.182 214.646 367.182C213.507 367.182 212.588 366.837 211.888 366.146C211.188 365.446 210.838 364.564 210.838 363.5C210.838 362.455 211.183 361.582 211.874 360.882C212.564 360.173 213.451 359.818 214.534 359.818C215.56 359.818 216.4 360.177 217.054 360.896C217.716 361.615 218.048 362.487 218.048 363.514C218.048 363.673 218.029 363.883 217.992 364.144H212.42ZM212.406 362.912H216.522C216.419 362.343 216.181 361.913 215.808 361.624C215.444 361.335 215.014 361.19 214.52 361.19C213.96 361.19 213.493 361.344 213.12 361.652C212.746 361.96 212.508 362.38 212.406 362.912Z" fill="#063359"/>
<path d="M141 343H673" stroke="#ABBAC6" stroke-dasharray="2 2"/>
<path d="M308.354 103.354C308.549 103.158 308.549 102.842 308.354 102.646L305.172 99.4645C304.976 99.2692 304.66 99.2692 304.464 99.4645C304.269 99.6597 304.269 99.9763 304.464 100.172L307.293 103L304.464 105.828C304.269 106.024 304.269 106.34 304.464 106.536C304.66 106.731 304.976 106.731 305.172 106.536L308.354 103.354ZM233 103.5H308V102.5H233V103.5Z" fill="#063359"/>
<path d="M336.646 235.354C336.842 235.549 337.158 235.549 337.354 235.354L340.536 232.172C340.731 231.976 340.731 231.66 340.536 231.464C340.34 231.269 340.024 231.269 339.828 231.464L337 234.293L334.172 231.464C333.976 231.269 333.66 231.269 333.464 231.464C333.269 231.66 333.269 231.976 333.464 232.172L336.646 235.354ZM336.5 126L336.5 235L337.5 235L337.5 126L336.5 126Z" fill="#063359"/>
<path d="M374.646 158.854C374.842 159.049 375.158 159.049 375.354 158.854L378.536 155.672C378.731 155.476 378.731 155.16 378.536 154.964C378.34 154.769 378.024 154.769 377.828 154.964L375 157.793L372.172 154.964C371.976 154.769 371.66 154.769 371.464 154.964C371.269 155.16 371.269 155.476 371.464 155.672L374.646 158.854ZM374.5 126L374.5 158.5L375.5 158.5L375.5 126L374.5 126Z" fill="#063359"/>
<path d="M501.646 456.854C501.842 457.049 502.158 457.049 502.354 456.854L505.536 453.672C505.731 453.476 505.731 453.16 505.536 452.964C505.34 452.769 505.024 452.769 504.828 452.964L502 455.793L499.172 452.964C498.976 452.769 498.66 452.769 498.464 452.964C498.269 453.16 498.269 453.476 498.464 453.672L501.646 456.854ZM501.5 428L501.5 456.5L502.5 456.5L502.5 428L501.5 428Z" fill="#ABBAC6"/>
<path d="M455.354 432.646C455.158 432.451 454.842 432.451 454.646 432.646L451.464 435.828C451.269 436.024 451.269 436.34 451.464 436.536C451.66 436.731 451.976 436.731 452.172 436.536L455 433.707L457.828 436.536C458.024 436.731 458.34 436.731 458.536 436.536C458.731 436.34 458.731 436.024 458.536 435.828L455.354 432.646ZM455.5 461.5L455.5 433L454.5 433L454.5 461.5L455.5 461.5Z" fill="#ABBAC6"/>
<path d="M319.5 106C319.5 95.2304 328.23 86.5 339 86.5H405C415.77 86.5 424.5 95.2304 424.5 106C424.5 116.77 415.77 125.5 405 125.5H339C328.23 125.5 319.5 116.77 319.5 106Z" stroke="#ABBAC6"/>
<path d="M343.215 110.182C342.161 110.182 341.279 109.827 340.569 109.118C339.869 108.409 339.519 107.536 339.519 106.5C339.519 105.455 339.869 104.582 340.569 103.882C341.279 103.173 342.161 102.818 343.215 102.818C343.897 102.818 344.517 102.981 345.077 103.308C345.637 103.635 346.057 104.073 346.337 104.624L345.035 105.38C344.877 105.044 344.634 104.783 344.307 104.596C343.99 104.4 343.621 104.302 343.201 104.302C342.585 104.302 342.067 104.512 341.647 104.932C341.237 105.352 341.031 105.875 341.031 106.5C341.031 107.125 341.237 107.648 341.647 108.068C342.067 108.488 342.585 108.698 343.201 108.698C343.612 108.698 343.981 108.6 344.307 108.404C344.643 108.208 344.895 107.947 345.063 107.62L346.365 108.362C346.067 108.922 345.637 109.365 345.077 109.692C344.517 110.019 343.897 110.182 343.215 110.182ZM351.153 110.182C350.126 110.182 349.253 109.827 348.535 109.118C347.816 108.409 347.457 107.536 347.457 106.5C347.457 105.464 347.816 104.591 348.535 103.882C349.253 103.173 350.126 102.818 351.153 102.818C352.189 102.818 353.061 103.173 353.771 103.882C354.489 104.591 354.849 105.464 354.849 106.5C354.849 107.536 354.489 108.409 353.771 109.118C353.061 109.827 352.189 110.182 351.153 110.182ZM349.599 108.082C350.019 108.502 350.537 108.712 351.153 108.712C351.769 108.712 352.287 108.502 352.707 108.082C353.127 107.662 353.337 107.135 353.337 106.5C353.337 105.865 353.127 105.338 352.707 104.918C352.287 104.498 351.769 104.288 351.153 104.288C350.537 104.288 350.019 104.498 349.599 104.918C349.179 105.338 348.969 105.865 348.969 106.5C348.969 107.135 349.179 107.662 349.599 108.082ZM360.398 102.818C361.201 102.818 361.849 103.075 362.344 103.588C362.839 104.101 363.086 104.806 363.086 105.702V110H361.574V105.856C361.574 105.333 361.434 104.932 361.154 104.652C360.874 104.372 360.491 104.232 360.006 104.232C359.474 104.232 359.045 104.4 358.718 104.736C358.391 105.063 358.228 105.567 358.228 106.248V110H356.716V103H358.228V103.896C358.685 103.177 359.409 102.818 360.398 102.818ZM369.12 104.456H367.384V107.816C367.384 108.105 367.449 108.315 367.58 108.446C367.711 108.567 367.902 108.637 368.154 108.656C368.415 108.665 368.737 108.661 369.12 108.642V110C367.963 110.14 367.132 110.042 366.628 109.706C366.124 109.361 365.872 108.731 365.872 107.816V104.456H364.584V103H365.872V101.488L367.384 101.04V103H369.12V104.456ZM372.572 104.176C372.954 103.308 373.673 102.874 374.728 102.874V104.512C374.149 104.475 373.645 104.615 373.216 104.932C372.786 105.24 372.572 105.753 372.572 106.472V110H371.06V103H372.572V104.176ZM379.321 110.182C378.294 110.182 377.421 109.827 376.703 109.118C375.984 108.409 375.625 107.536 375.625 106.5C375.625 105.464 375.984 104.591 376.703 103.882C377.421 103.173 378.294 102.818 379.321 102.818C380.357 102.818 381.229 103.173 381.939 103.882C382.657 104.591 383.017 105.464 383.017 106.5C383.017 107.536 382.657 108.409 381.939 109.118C381.229 109.827 380.357 110.182 379.321 110.182ZM377.767 108.082C378.187 108.502 378.705 108.712 379.321 108.712C379.937 108.712 380.455 108.502 380.875 108.082C381.295 107.662 381.505 107.135 381.505 106.5C381.505 105.865 381.295 105.338 380.875 104.918C380.455 104.498 379.937 104.288 379.321 104.288C378.705 104.288 378.187 104.498 377.767 104.918C377.347 105.338 377.137 105.865 377.137 106.5C377.137 107.135 377.347 107.662 377.767 108.082ZM384.884 110V99.78H386.396V110H384.884ZM388.652 110V99.78H390.164V110H388.652ZM393.609 107.144C393.721 107.676 393.978 108.087 394.379 108.376C394.78 108.656 395.27 108.796 395.849 108.796C396.652 108.796 397.254 108.507 397.655 107.928L398.901 108.656C398.21 109.673 397.188 110.182 395.835 110.182C394.696 110.182 393.777 109.837 393.077 109.146C392.377 108.446 392.027 107.564 392.027 106.5C392.027 105.455 392.372 104.582 393.063 103.882C393.754 103.173 394.64 102.818 395.723 102.818C396.75 102.818 397.59 103.177 398.243 103.896C398.906 104.615 399.237 105.487 399.237 106.514C399.237 106.673 399.218 106.883 399.181 107.144H393.609ZM393.595 105.912H397.711C397.608 105.343 397.37 104.913 396.997 104.624C396.633 104.335 396.204 104.19 395.709 104.19C395.149 104.19 394.682 104.344 394.309 104.652C393.936 104.96 393.698 105.38 393.595 105.912ZM402.58 104.176C402.962 103.308 403.681 102.874 404.736 102.874V104.512C404.157 104.475 403.653 104.615 403.224 104.932C402.794 105.24 402.58 105.753 402.58 106.472V110H401.068V103H402.58V104.176Z" fill="#003359"/>
<path d="M502.5 106C502.5 95.2304 511.23 86.5 522 86.5H620C630.77 86.5 639.5 95.2304 639.5 106C639.5 116.77 630.77 125.5 620 125.5H522C511.23 125.5 502.5 116.77 502.5 106Z" stroke="#ABBAC6"/>
<path d="M527.087 102.818C528.048 102.818 528.87 103.177 529.551 103.896C530.232 104.605 530.573 105.473 530.573 106.5C530.573 107.536 530.232 108.409 529.551 109.118C528.87 109.827 528.048 110.182 527.087 110.182C526.023 110.182 525.206 109.79 524.637 109.006V112.8H523.125V103H524.637V104.008C525.206 103.215 526.023 102.818 527.087 102.818ZM525.267 108.11C525.687 108.53 526.214 108.74 526.849 108.74C527.484 108.74 528.011 108.53 528.431 108.11C528.851 107.681 529.061 107.144 529.061 106.5C529.061 105.856 528.851 105.324 528.431 104.904C528.011 104.475 527.484 104.26 526.849 104.26C526.214 104.26 525.687 104.475 525.267 104.904C524.847 105.324 524.637 105.856 524.637 106.5C524.637 107.144 524.847 107.681 525.267 108.11ZM533.956 104.176C534.338 103.308 535.057 102.874 536.112 102.874V104.512C535.533 104.475 535.029 104.615 534.6 104.932C534.17 105.24 533.956 105.753 533.956 106.472V110H532.444V103H533.956V104.176ZM540.705 110.182C539.678 110.182 538.805 109.827 538.087 109.118C537.368 108.409 537.009 107.536 537.009 106.5C537.009 105.464 537.368 104.591 538.087 103.882C538.805 103.173 539.678 102.818 540.705 102.818C541.741 102.818 542.613 103.173 543.323 103.882C544.041 104.591 544.401 105.464 544.401 106.5C544.401 107.536 544.041 108.409 543.323 109.118C542.613 109.827 541.741 110.182 540.705 110.182ZM539.151 108.082C539.571 108.502 540.089 108.712 540.705 108.712C541.321 108.712 541.839 108.502 542.259 108.082C542.679 107.662 542.889 107.135 542.889 106.5C542.889 105.865 542.679 105.338 542.259 104.918C541.839 104.498 541.321 104.288 540.705 104.288C540.089 104.288 539.571 104.498 539.151 104.918C538.731 105.338 538.521 105.865 538.521 106.5C538.521 107.135 538.731 107.662 539.151 108.082ZM552.02 110H550.27L548.534 107.606L546.784 110H545.02L547.652 106.402L545.16 103H546.91L548.52 105.212L550.13 103H551.894L549.402 106.416L552.02 110ZM558.253 103H559.863L557.175 110.224C556.503 112.035 555.365 112.893 553.759 112.8V111.386C554.235 111.414 554.618 111.311 554.907 111.078C555.197 110.854 555.435 110.499 555.621 110.014L555.691 109.874L552.723 103H554.375L556.461 108.082L558.253 103ZM561.133 106.472V105.016H566.313V106.472H561.133ZM570.1 101.67C569.913 101.857 569.689 101.95 569.428 101.95C569.167 101.95 568.938 101.857 568.742 101.67C568.555 101.474 568.462 101.245 568.462 100.984C568.462 100.723 568.555 100.499 568.742 100.312C568.929 100.116 569.157 100.018 569.428 100.018C569.699 100.018 569.927 100.116 570.114 100.312C570.301 100.499 570.394 100.723 570.394 100.984C570.394 101.245 570.296 101.474 570.1 101.67ZM568.672 110V103H570.184V110H568.672ZM576.122 102.818C576.924 102.818 577.573 103.075 578.068 103.588C578.562 104.101 578.81 104.806 578.81 105.702V110H577.298V105.856C577.298 105.333 577.158 104.932 576.878 104.652C576.598 104.372 576.215 104.232 575.73 104.232C575.198 104.232 574.768 104.4 574.442 104.736C574.115 105.063 573.952 105.567 573.952 106.248V110H572.44V103H573.952V103.896C574.409 103.177 575.132 102.818 576.122 102.818ZM582.495 101.67C582.308 101.857 582.084 101.95 581.823 101.95C581.562 101.95 581.333 101.857 581.137 101.67C580.95 101.474 580.857 101.245 580.857 100.984C580.857 100.723 580.95 100.499 581.137 100.312C581.333 100.116 581.562 100.018 581.823 100.018C582.084 100.018 582.308 100.116 582.495 100.312C582.691 100.499 582.789 100.723 582.789 100.984C582.789 101.245 582.691 101.474 582.495 101.67ZM581.067 110.28V103H582.579V110.28C582.579 112.221 581.622 113.122 579.709 112.982V111.526C580.176 111.573 580.516 111.498 580.731 111.302C580.955 111.106 581.067 110.765 581.067 110.28ZM586.032 107.144C586.144 107.676 586.401 108.087 586.802 108.376C587.203 108.656 587.693 108.796 588.272 108.796C589.075 108.796 589.677 108.507 590.078 107.928L591.324 108.656C590.633 109.673 589.611 110.182 588.258 110.182C587.119 110.182 586.2 109.837 585.5 109.146C584.8 108.446 584.45 107.564 584.45 106.5C584.45 105.455 584.795 104.582 585.486 103.882C586.177 103.173 587.063 102.818 588.146 102.818C589.173 102.818 590.013 103.177 590.666 103.896C591.329 104.615 591.66 105.487 591.66 106.514C591.66 106.673 591.641 106.883 591.604 107.144H586.032ZM586.018 105.912H590.134C590.031 105.343 589.793 104.913 589.42 104.624C589.056 104.335 588.627 104.19 588.132 104.19C587.572 104.19 587.105 104.344 586.732 104.652C586.359 104.96 586.121 105.38 586.018 105.912ZM596.753 110.182C595.699 110.182 594.817 109.827 594.107 109.118C593.407 108.409 593.057 107.536 593.057 106.5C593.057 105.455 593.407 104.582 594.107 103.882C594.817 103.173 595.699 102.818 596.753 102.818C597.435 102.818 598.055 102.981 598.615 103.308C599.175 103.635 599.595 104.073 599.875 104.624L598.573 105.38C598.415 105.044 598.172 104.783 597.845 104.596C597.528 104.4 597.159 104.302 596.739 104.302C596.123 104.302 595.605 104.512 595.185 104.932C594.775 105.352 594.569 105.875 594.569 106.5C594.569 107.125 594.775 107.648 595.185 108.068C595.605 108.488 596.123 108.698 596.739 108.698C597.15 108.698 597.519 108.6 597.845 108.404C598.181 108.208 598.433 107.947 598.601 107.62L599.903 108.362C599.605 108.922 599.175 109.365 598.615 109.692C598.055 110.019 597.435 110.182 596.753 110.182ZM605.402 104.456H603.666V107.816C603.666 108.105 603.732 108.315 603.862 108.446C603.993 108.567 604.184 108.637 604.436 108.656C604.698 108.665 605.02 108.661 605.402 108.642V110C604.245 110.14 603.414 110.042 602.91 109.706C602.406 109.361 602.154 108.731 602.154 107.816V104.456H600.866V103H602.154V101.488L603.666 101.04V103H605.402V104.456ZM610.29 110.182C609.264 110.182 608.391 109.827 607.672 109.118C606.954 108.409 606.594 107.536 606.594 106.5C606.594 105.464 606.954 104.591 607.672 103.882C608.391 103.173 609.264 102.818 610.29 102.818C611.326 102.818 612.199 103.173 612.908 103.882C613.627 104.591 613.986 105.464 613.986 106.5C613.986 107.536 613.627 108.409 612.908 109.118C612.199 109.827 611.326 110.182 610.29 110.182ZM608.736 108.082C609.156 108.502 609.674 108.712 610.29 108.712C610.906 108.712 611.424 108.502 611.844 108.082C612.264 107.662 612.474 107.135 612.474 106.5C612.474 105.865 612.264 105.338 611.844 104.918C611.424 104.498 610.906 104.288 610.29 104.288C609.674 104.288 609.156 104.498 608.736 104.918C608.316 105.338 608.106 105.865 608.106 106.5C608.106 107.135 608.316 107.662 608.736 108.082ZM617.366 104.176C617.748 103.308 618.467 102.874 619.522 102.874V104.512C618.943 104.475 618.439 104.615 618.01 104.932C617.58 105.24 617.366 105.753 617.366 106.472V110H615.854V103H617.366V104.176Z" fill="#003359"/>
<path d="M508.5 184C508.5 173.23 517.23 164.5 528 164.5H614C624.77 164.5 633.5 173.23 633.5 184C633.5 194.77 624.77 203.5 614 203.5H528C517.23 203.5 508.5 194.77 508.5 184Z" stroke="#ABBAC6"/>
<path d="M530.247 182.932C530.247 183.165 530.373 183.352 530.625 183.492C530.886 183.623 531.199 183.739 531.563 183.842C531.936 183.935 532.31 184.047 532.683 184.178C533.056 184.309 533.369 184.533 533.621 184.85C533.882 185.158 534.013 185.55 534.013 186.026C534.013 186.698 533.752 187.225 533.229 187.608C532.716 187.991 532.067 188.182 531.283 188.182C530.592 188.182 530 188.037 529.505 187.748C529.01 187.459 528.651 187.057 528.427 186.544L529.729 185.788C529.972 186.46 530.49 186.796 531.283 186.796C532.076 186.796 532.473 186.535 532.473 186.012C532.473 185.788 532.342 185.606 532.081 185.466C531.829 185.326 531.516 185.209 531.143 185.116C530.779 185.013 530.41 184.897 530.037 184.766C529.664 184.635 529.346 184.421 529.085 184.122C528.833 183.814 528.707 183.427 528.707 182.96C528.707 182.316 528.95 181.798 529.435 181.406C529.93 181.014 530.541 180.818 531.269 180.818C531.848 180.818 532.361 180.949 532.809 181.21C533.266 181.462 533.616 181.817 533.859 182.274L532.585 182.988C532.342 182.456 531.904 182.19 531.269 182.19C530.98 182.19 530.737 182.255 530.541 182.386C530.345 182.507 530.247 182.689 530.247 182.932ZM539.804 180.818C540.765 180.818 541.587 181.177 542.268 181.896C542.949 182.605 543.29 183.473 543.29 184.5C543.29 185.536 542.949 186.409 542.268 187.118C541.587 187.827 540.765 188.182 539.804 188.182C538.74 188.182 537.923 187.79 537.354 187.006V190.8H535.842V181H537.354V182.008C537.923 181.215 538.74 180.818 539.804 180.818ZM537.984 186.11C538.404 186.53 538.931 186.74 539.566 186.74C540.201 186.74 540.728 186.53 541.148 186.11C541.568 185.681 541.778 185.144 541.778 184.5C541.778 183.856 541.568 183.324 541.148 182.904C540.728 182.475 540.201 182.26 539.566 182.26C538.931 182.26 538.404 182.475 537.984 182.904C537.564 183.324 537.354 183.856 537.354 184.5C537.354 185.144 537.564 185.681 537.984 186.11ZM545.258 184.472V183.016H550.438V184.472H545.258ZM557.406 181H559.058L556.328 188H554.578L551.848 181H553.5L555.46 186.32L557.406 181ZM565.786 181H567.298V188H565.786V186.992C565.217 187.785 564.4 188.182 563.336 188.182C562.375 188.182 561.554 187.827 560.872 187.118C560.191 186.399 559.85 185.527 559.85 184.5C559.85 183.464 560.191 182.591 560.872 181.882C561.554 181.173 562.375 180.818 563.336 180.818C564.4 180.818 565.217 181.21 565.786 181.994V181ZM561.992 186.11C562.412 186.53 562.94 186.74 563.574 186.74C564.209 186.74 564.736 186.53 565.156 186.11C565.576 185.681 565.786 185.144 565.786 184.5C565.786 183.856 565.576 183.324 565.156 182.904C564.736 182.475 564.209 182.26 563.574 182.26C562.94 182.26 562.412 182.475 561.992 182.904C561.572 183.324 561.362 183.856 561.362 184.5C561.362 185.144 561.572 185.681 561.992 186.11ZM569.561 188V177.78H571.073V188H569.561ZM574.756 179.67C574.57 179.857 574.346 179.95 574.084 179.95C573.823 179.95 573.594 179.857 573.398 179.67C573.212 179.474 573.118 179.245 573.118 178.984C573.118 178.723 573.212 178.499 573.398 178.312C573.585 178.116 573.814 178.018 574.084 178.018C574.355 178.018 574.584 178.116 574.77 178.312C574.957 178.499 575.05 178.723 575.05 178.984C575.05 179.245 574.952 179.474 574.756 179.67ZM573.328 188V181H574.84V188H573.328ZM582.64 178.2H584.152V188H582.64V186.992C582.071 187.785 581.254 188.182 580.19 188.182C579.229 188.182 578.407 187.827 577.726 187.118C577.045 186.399 576.704 185.527 576.704 184.5C576.704 183.464 577.045 182.591 577.726 181.882C578.407 181.173 579.229 180.818 580.19 180.818C581.254 180.818 582.071 181.21 582.64 181.994V178.2ZM578.846 186.11C579.266 186.53 579.793 186.74 580.428 186.74C581.063 186.74 581.59 186.53 582.01 186.11C582.43 185.681 582.64 185.144 582.64 184.5C582.64 183.856 582.43 183.324 582.01 182.904C581.59 182.475 581.063 182.26 580.428 182.26C579.793 182.26 579.266 182.475 578.846 182.904C578.426 183.324 578.216 183.856 578.216 184.5C578.216 185.144 578.426 185.681 578.846 186.11ZM591.958 181H593.47V188H591.958V186.992C591.389 187.785 590.572 188.182 589.508 188.182C588.547 188.182 587.726 187.827 587.044 187.118C586.363 186.399 586.022 185.527 586.022 184.5C586.022 183.464 586.363 182.591 587.044 181.882C587.726 181.173 588.547 180.818 589.508 180.818C590.572 180.818 591.389 181.21 591.958 181.994V181ZM588.164 186.11C588.584 186.53 589.112 186.74 589.746 186.74C590.381 186.74 590.908 186.53 591.328 186.11C591.748 185.681 591.958 185.144 591.958 184.5C591.958 183.856 591.748 183.324 591.328 182.904C590.908 182.475 590.381 182.26 589.746 182.26C589.112 182.26 588.584 182.475 588.164 182.904C587.744 183.324 587.534 183.856 587.534 184.5C587.534 185.144 587.744 185.681 588.164 186.11ZM599.639 182.456H597.903V185.816C597.903 186.105 597.968 186.315 598.099 186.446C598.229 186.567 598.421 186.637 598.673 186.656C598.934 186.665 599.256 186.661 599.639 186.642V188C598.481 188.14 597.651 188.042 597.147 187.706C596.643 187.361 596.391 186.731 596.391 185.816V182.456H595.103V181H596.391V179.488L597.903 179.04V181H599.639V182.456ZM604.527 188.182C603.5 188.182 602.627 187.827 601.909 187.118C601.19 186.409 600.831 185.536 600.831 184.5C600.831 183.464 601.19 182.591 601.909 181.882C602.627 181.173 603.5 180.818 604.527 180.818C605.563 180.818 606.435 181.173 607.145 181.882C607.863 182.591 608.223 183.464 608.223 184.5C608.223 185.536 607.863 186.409 607.145 187.118C606.435 187.827 605.563 188.182 604.527 188.182ZM602.973 186.082C603.393 186.502 603.911 186.712 604.527 186.712C605.143 186.712 605.661 186.502 606.081 186.082C606.501 185.662 606.711 185.135 606.711 184.5C606.711 183.865 606.501 183.338 606.081 182.918C605.661 182.498 605.143 182.288 604.527 182.288C603.911 182.288 603.393 182.498 602.973 182.918C602.553 183.338 602.343 183.865 602.343 184.5C602.343 185.135 602.553 185.662 602.973 186.082ZM611.602 182.176C611.985 181.308 612.703 180.874 613.758 180.874V182.512C613.179 182.475 612.675 182.615 612.246 182.932C611.817 183.24 611.602 183.753 611.602 184.472V188H610.09V181H611.602V182.176Z" fill="#003359"/>
<path d="M343.5 184C343.5 173.23 352.23 164.5 363 164.5H442C452.77 164.5 461.5 173.23 461.5 184C461.5 194.77 452.77 203.5 442 203.5H363C352.23 203.5 343.5 194.77 343.5 184Z" stroke="#ABBAC6"/>
<path d="M369.854 178.2H371.366V188H369.854V186.992C369.284 187.785 368.468 188.182 367.404 188.182C366.442 188.182 365.621 187.827 364.94 187.118C364.258 186.399 363.918 185.527 363.918 184.5C363.918 183.464 364.258 182.591 364.94 181.882C365.621 181.173 366.442 180.818 367.404 180.818C368.468 180.818 369.284 181.21 369.854 181.994V178.2ZM366.06 186.11C366.48 186.53 367.007 186.74 367.642 186.74C368.276 186.74 368.804 186.53 369.224 186.11C369.644 185.681 369.854 185.144 369.854 184.5C369.854 183.856 369.644 183.324 369.224 182.904C368.804 182.475 368.276 182.26 367.642 182.26C367.007 182.26 366.48 182.475 366.06 182.904C365.64 183.324 365.43 183.856 365.43 184.5C365.43 185.144 365.64 185.681 366.06 186.11ZM374.818 185.144C374.93 185.676 375.187 186.087 375.588 186.376C375.989 186.656 376.479 186.796 377.058 186.796C377.861 186.796 378.463 186.507 378.864 185.928L380.11 186.656C379.419 187.673 378.397 188.182 377.044 188.182C375.905 188.182 374.986 187.837 374.286 187.146C373.586 186.446 373.236 185.564 373.236 184.5C373.236 183.455 373.581 182.582 374.272 181.882C374.963 181.173 375.849 180.818 376.932 180.818C377.959 180.818 378.799 181.177 379.452 181.896C380.115 182.615 380.446 183.487 380.446 184.514C380.446 184.673 380.427 184.883 380.39 185.144H374.818ZM374.804 183.912H378.92C378.817 183.343 378.579 182.913 378.206 182.624C377.842 182.335 377.413 182.19 376.918 182.19C376.358 182.19 375.891 182.344 375.518 182.652C375.145 182.96 374.907 183.38 374.804 183.912ZM383.361 182.932C383.361 183.165 383.487 183.352 383.739 183.492C384 183.623 384.313 183.739 384.677 183.842C385.05 183.935 385.424 184.047 385.797 184.178C386.17 184.309 386.483 184.533 386.735 184.85C386.996 185.158 387.127 185.55 387.127 186.026C387.127 186.698 386.866 187.225 386.343 187.608C385.83 187.991 385.181 188.182 384.397 188.182C383.706 188.182 383.114 188.037 382.619 187.748C382.124 187.459 381.765 187.057 381.541 186.544L382.843 185.788C383.086 186.46 383.604 186.796 384.397 186.796C385.19 186.796 385.587 186.535 385.587 186.012C385.587 185.788 385.456 185.606 385.195 185.466C384.943 185.326 384.63 185.209 384.257 185.116C383.893 185.013 383.524 184.897 383.151 184.766C382.778 184.635 382.46 184.421 382.199 184.122C381.947 183.814 381.821 183.427 381.821 182.96C381.821 182.316 382.064 181.798 382.549 181.406C383.044 181.014 383.655 180.818 384.383 180.818C384.962 180.818 385.475 180.949 385.923 181.21C386.38 181.462 386.73 181.817 386.973 182.274L385.699 182.988C385.456 182.456 385.018 182.19 384.383 182.19C384.094 182.19 383.851 182.255 383.655 182.386C383.459 182.507 383.361 182.689 383.361 182.932ZM392.589 182.456H390.853V185.816C390.853 186.105 390.918 186.315 391.049 186.446C391.179 186.567 391.371 186.637 391.623 186.656C391.884 186.665 392.206 186.661 392.589 186.642V188C391.431 188.14 390.601 188.042 390.097 187.706C389.593 187.361 389.341 186.731 389.341 185.816V182.456H388.053V181H389.341V179.488L390.853 179.04V181H392.589V182.456ZM395.888 179.67C395.701 179.857 395.477 179.95 395.216 179.95C394.955 179.95 394.726 179.857 394.53 179.67C394.343 179.474 394.25 179.245 394.25 178.984C394.25 178.723 394.343 178.499 394.53 178.312C394.717 178.116 394.945 178.018 395.216 178.018C395.487 178.018 395.715 178.116 395.902 178.312C396.089 178.499 396.182 178.723 396.182 178.984C396.182 179.245 396.084 179.474 395.888 179.67ZM394.46 188V181H395.972V188H394.46ZM401.91 180.818C402.712 180.818 403.361 181.075 403.856 181.588C404.35 182.101 404.598 182.806 404.598 183.702V188H403.086V183.856C403.086 183.333 402.946 182.932 402.666 182.652C402.386 182.372 402.003 182.232 401.518 182.232C400.986 182.232 400.556 182.4 400.23 182.736C399.903 183.063 399.74 183.567 399.74 184.248V188H398.228V181H399.74V181.896C400.197 181.177 400.92 180.818 401.91 180.818ZM412.27 181H413.782V188H412.27V186.992C411.7 187.785 410.884 188.182 409.82 188.182C408.858 188.182 408.037 187.827 407.356 187.118C406.674 186.399 406.334 185.527 406.334 184.5C406.334 183.464 406.674 182.591 407.356 181.882C408.037 181.173 408.858 180.818 409.82 180.818C410.884 180.818 411.7 181.21 412.27 181.994V181ZM408.476 186.11C408.896 186.53 409.423 186.74 410.058 186.74C410.692 186.74 411.22 186.53 411.64 186.11C412.06 185.681 412.27 185.144 412.27 184.5C412.27 183.856 412.06 183.324 411.64 182.904C411.22 182.475 410.692 182.26 410.058 182.26C409.423 182.26 408.896 182.475 408.476 182.904C408.056 183.324 407.846 183.856 407.846 184.5C407.846 185.144 408.056 185.681 408.476 186.11ZM419.95 182.456H418.214V185.816C418.214 186.105 418.279 186.315 418.41 186.446C418.541 186.567 418.732 186.637 418.984 186.656C419.245 186.665 419.567 186.661 419.95 186.642V188C418.793 188.14 417.962 188.042 417.458 187.706C416.954 187.361 416.702 186.731 416.702 185.816V182.456H415.414V181H416.702V179.488L418.214 179.04V181H419.95V182.456ZM423.249 179.67C423.063 179.857 422.839 179.95 422.577 179.95C422.316 179.95 422.087 179.857 421.891 179.67C421.705 179.474 421.611 179.245 421.611 178.984C421.611 178.723 421.705 178.499 421.891 178.312C422.078 178.116 422.307 178.018 422.577 178.018C422.848 178.018 423.077 178.116 423.263 178.312C423.45 178.499 423.543 178.723 423.543 178.984C423.543 179.245 423.445 179.474 423.249 179.67ZM421.821 188V181H423.333V188H421.821ZM428.893 188.182C427.866 188.182 426.994 187.827 426.275 187.118C425.556 186.409 425.197 185.536 425.197 184.5C425.197 183.464 425.556 182.591 426.275 181.882C426.994 181.173 427.866 180.818 428.893 180.818C429.929 180.818 430.802 181.173 431.511 181.882C432.23 182.591 432.589 183.464 432.589 184.5C432.589 185.536 432.23 186.409 431.511 187.118C430.802 187.827 429.929 188.182 428.893 188.182ZM427.339 186.082C427.759 186.502 428.277 186.712 428.893 186.712C429.509 186.712 430.027 186.502 430.447 186.082C430.867 185.662 431.077 185.135 431.077 184.5C431.077 183.865 430.867 183.338 430.447 182.918C430.027 182.498 429.509 182.288 428.893 182.288C428.277 182.288 427.759 182.498 427.339 182.918C426.919 183.338 426.709 183.865 426.709 184.5C426.709 185.135 426.919 185.662 427.339 186.082ZM438.138 180.818C438.941 180.818 439.59 181.075 440.084 181.588C440.579 182.101 440.826 182.806 440.826 183.702V188H439.314V183.856C439.314 183.333 439.174 182.932 438.894 182.652C438.614 182.372 438.232 182.232 437.746 182.232C437.214 182.232 436.785 182.4 436.458 182.736C436.132 183.063 435.968 183.567 435.968 184.248V188H434.456V181H435.968V181.896C436.426 181.177 437.149 180.818 438.138 180.818Z" fill="#003359"/>
<path d="M317.5 262C317.5 251.23 326.23 242.5 337 242.5H390C400.77 242.5 409.5 251.23 409.5 262C409.5 272.77 400.77 281.5 390 281.5H337C326.23 281.5 317.5 272.77 317.5 262Z" stroke="#ABBAC6"/>
<path d="M339.328 257.67C339.141 257.857 338.917 257.95 338.656 257.95C338.394 257.95 338.166 257.857 337.97 257.67C337.783 257.474 337.69 257.245 337.69 256.984C337.69 256.723 337.783 256.499 337.97 256.312C338.156 256.116 338.385 256.018 338.656 256.018C338.926 256.018 339.155 256.116 339.342 256.312C339.528 256.499 339.622 256.723 339.622 256.984C339.622 257.245 339.524 257.474 339.328 257.67ZM337.9 266V259H339.412V266H337.9ZM347.211 256.2H348.723V266H347.211V264.992C346.642 265.785 345.825 266.182 344.761 266.182C343.8 266.182 342.978 265.827 342.297 265.118C341.616 264.399 341.275 263.527 341.275 262.5C341.275 261.464 341.616 260.591 342.297 259.882C342.978 259.173 343.8 258.818 344.761 258.818C345.825 258.818 346.642 259.21 347.211 259.994V256.2ZM343.417 264.11C343.837 264.53 344.364 264.74 344.999 264.74C345.634 264.74 346.161 264.53 346.581 264.11C347.001 263.681 347.211 263.144 347.211 262.5C347.211 261.856 347.001 261.324 346.581 260.904C346.161 260.475 345.634 260.26 344.999 260.26C344.364 260.26 343.837 260.475 343.417 260.904C342.997 261.324 342.787 261.856 342.787 262.5C342.787 263.144 342.997 263.681 343.417 264.11ZM352.176 263.144C352.288 263.676 352.544 264.087 352.946 264.376C353.347 264.656 353.837 264.796 354.416 264.796C355.218 264.796 355.82 264.507 356.222 263.928L357.468 264.656C356.777 265.673 355.755 266.182 354.402 266.182C353.263 266.182 352.344 265.837 351.644 265.146C350.944 264.446 350.594 263.564 350.594 262.5C350.594 261.455 350.939 260.582 351.63 259.882C352.32 259.173 353.207 258.818 354.29 258.818C355.316 258.818 356.156 259.177 356.81 259.896C357.472 260.615 357.804 261.487 357.804 262.514C357.804 262.673 357.785 262.883 357.748 263.144H352.176ZM352.162 261.912H356.278C356.175 261.343 355.937 260.913 355.564 260.624C355.2 260.335 354.77 260.19 354.276 260.19C353.716 260.19 353.249 260.344 352.876 260.652C352.502 260.96 352.264 261.38 352.162 261.912ZM363.316 258.818C364.119 258.818 364.767 259.075 365.262 259.588C365.757 260.101 366.004 260.806 366.004 261.702V266H364.492V261.856C364.492 261.333 364.352 260.932 364.072 260.652C363.792 260.372 363.409 260.232 362.924 260.232C362.392 260.232 361.963 260.4 361.636 260.736C361.309 261.063 361.146 261.567 361.146 262.248V266H359.634V259H361.146V259.896C361.603 259.177 362.327 258.818 363.316 258.818ZM372.038 260.456H370.302V263.816C370.302 264.105 370.367 264.315 370.498 264.446C370.629 264.567 370.82 264.637 371.072 264.656C371.333 264.665 371.655 264.661 372.038 264.642V266C370.881 266.14 370.05 266.042 369.546 265.706C369.042 265.361 368.79 264.731 368.79 263.816V260.456H367.502V259H368.79V257.488L370.302 257.04V259H372.038V260.456ZM375.337 257.67C375.151 257.857 374.927 257.95 374.665 257.95C374.404 257.95 374.175 257.857 373.979 257.67C373.793 257.474 373.699 257.245 373.699 256.984C373.699 256.723 373.793 256.499 373.979 256.312C374.166 256.116 374.395 256.018 374.665 256.018C374.936 256.018 375.165 256.116 375.351 256.312C375.538 256.499 375.631 256.723 375.631 256.984C375.631 257.245 375.533 257.474 375.337 257.67ZM373.909 266V259H375.421V266H373.909ZM381.583 260.456H379.847V263.816C379.847 264.105 379.912 264.315 380.043 264.446C380.174 264.567 380.365 264.637 380.617 264.656C380.878 264.665 381.2 264.661 381.583 264.642V266C380.426 266.14 379.595 266.042 379.091 265.706C378.587 265.361 378.335 264.731 378.335 263.816V260.456H377.047V259H378.335V257.488L379.847 257.04V259H381.583V260.456ZM388.309 259H389.919L387.231 266.224C386.559 268.035 385.42 268.893 383.815 268.8V267.386C384.291 267.414 384.674 267.311 384.963 267.078C385.252 266.854 385.49 266.499 385.677 266.014L385.747 265.874L382.779 259H384.431L386.517 264.082L388.309 259Z" fill="#003359"/>
<path d="M171.5 103C171.5 92.2304 180.23 83.5 191 83.5H213C223.77 83.5 232.5 92.2304 232.5 103C232.5 113.77 223.77 122.5 213 122.5H191C180.23 122.5 171.5 113.77 171.5 103Z" stroke="#ABBAC6"/>
<path d="M196.84 107.182C195.365 107.182 194.142 106.697 193.172 105.726C192.201 104.746 191.716 103.537 191.716 102.1C191.716 100.663 192.201 99.4587 193.172 98.488C194.142 97.508 195.365 97.018 196.84 97.018C197.726 97.018 198.543 97.228 199.29 97.648C200.046 98.068 200.634 98.6373 201.054 99.356L199.654 100.168C199.392 99.6827 199.01 99.3 198.506 99.02C198.011 98.7307 197.456 98.586 196.84 98.586C195.794 98.586 194.945 98.9173 194.292 99.58C193.648 100.243 193.326 101.083 193.326 102.1C193.326 103.117 193.648 103.957 194.292 104.62C194.945 105.283 195.794 105.614 196.84 105.614C197.456 105.614 198.016 105.474 198.52 105.194C199.024 104.905 199.402 104.517 199.654 104.032L201.054 104.83C200.643 105.549 200.06 106.123 199.304 106.552C198.557 106.972 197.736 107.182 196.84 107.182ZM204.501 105.46H208.491V107H202.891V97.2H204.501V105.46ZM210.186 97.2H211.796V107H210.186V97.2Z" fill="#003359"/>
<g filter="url(#filter2_dd_2_189)">
<path d="M368 384C368 375.163 375.163 368 384 368H578C586.837 368 594 375.163 594 384V587C594 595.837 586.837 603 578 603H384C375.163 603 368 595.837 368 587V384Z" fill="white"/>
<path d="M384 368.5H578C586.56 368.5 593.5 375.44 593.5 384V587C593.5 595.56 586.56 602.5 578 602.5H384C375.44 602.5 368.5 595.56 368.5 587V384C368.5 375.44 375.44 368.5 384 368.5Z" stroke="#02CA7C"/>
</g>
<path d="M406.854 406.646C407.049 406.842 407.049 407.158 406.854 407.354L403.672 410.536C403.476 410.731 403.16 410.731 402.964 410.536C402.769 410.34 402.769 410.024 402.964 409.828L405.793 407L402.964 404.172C402.769 403.976 402.769 403.66 402.964 403.464C403.16 403.269 403.476 403.269 403.672 403.464L406.854 406.646ZM290 406.5H406.5V407.5H290V406.5Z" fill="#063359"/>
<path d="M670.354 403.646C670.549 403.842 670.549 404.158 670.354 404.354L667.172 407.536C666.976 407.731 666.66 407.731 666.464 407.536C666.269 407.34 666.269 407.024 666.464 406.828L669.293 404L666.464 401.172C666.269 400.976 666.269 400.66 666.464 400.464C666.66 400.269 666.976 400.269 667.172 400.464L670.354 403.646ZM547.5 403.5H670V404.5H547.5V403.5Z" fill="#063359"/>
<path d="M558.342 585.818C559.303 585.818 560.125 586.177 560.806 586.896C561.487 587.605 561.828 588.473 561.828 589.5C561.828 590.536 561.487 591.409 560.806 592.118C560.125 592.827 559.303 593.182 558.342 593.182C557.278 593.182 556.461 592.79 555.892 592.006V595.8H554.38V586H555.892V587.008C556.461 586.215 557.278 585.818 558.342 585.818ZM556.522 591.11C556.942 591.53 557.469 591.74 558.104 591.74C558.739 591.74 559.266 591.53 559.686 591.11C560.106 590.681 560.316 590.144 560.316 589.5C560.316 588.856 560.106 588.324 559.686 587.904C559.266 587.475 558.739 587.26 558.104 587.26C557.469 587.26 556.942 587.475 556.522 587.904C556.102 588.324 555.892 588.856 555.892 589.5C555.892 590.144 556.102 590.681 556.522 591.11ZM567.002 593.182C565.976 593.182 565.103 592.827 564.384 592.118C563.666 591.409 563.306 590.536 563.306 589.5C563.306 588.464 563.666 587.591 564.384 586.882C565.103 586.173 565.976 585.818 567.002 585.818C568.038 585.818 568.911 586.173 569.62 586.882C570.339 587.591 570.698 588.464 570.698 589.5C570.698 590.536 570.339 591.409 569.62 592.118C568.911 592.827 568.038 593.182 567.002 593.182ZM565.448 591.082C565.868 591.502 566.386 591.712 567.002 591.712C567.618 591.712 568.136 591.502 568.556 591.082C568.976 590.662 569.186 590.135 569.186 589.5C569.186 588.865 568.976 588.338 568.556 587.918C568.136 587.498 567.618 587.288 567.002 587.288C566.386 587.288 565.868 587.498 565.448 587.918C565.028 588.338 564.818 588.865 564.818 589.5C564.818 590.135 565.028 590.662 565.448 591.082ZM578.11 583.2H579.622V593H578.11V591.992C577.54 592.785 576.724 593.182 575.66 593.182C574.698 593.182 573.877 592.827 573.196 592.118C572.514 591.399 572.174 590.527 572.174 589.5C572.174 588.464 572.514 587.591 573.196 586.882C573.877 586.173 574.698 585.818 575.66 585.818C576.724 585.818 577.54 586.21 578.11 586.994V583.2ZM574.316 591.11C574.736 591.53 575.263 591.74 575.898 591.74C576.532 591.74 577.06 591.53 577.48 591.11C577.9 590.681 578.11 590.144 578.11 589.5C578.11 588.856 577.9 588.324 577.48 587.904C577.06 587.475 576.532 587.26 575.898 587.26C575.263 587.26 574.736 587.475 574.316 587.904C573.896 588.324 573.686 588.856 573.686 589.5C573.686 590.144 573.896 590.681 574.316 591.11Z" fill="#0085FD"/>
<path d="M415.646 260.354C415.451 260.158 415.451 259.842 415.646 259.646L418.828 256.464C419.024 256.269 419.34 256.269 419.536 256.464C419.731 256.66 419.731 256.976 419.536 257.172L416.707 260L419.536 262.828C419.731 263.024 419.731 263.34 419.536 263.536C419.34 263.731 419.024 263.731 418.828 263.536L415.646 260.354ZM442 276L441.5 276L442 276ZM441.5 389L441.5 276L442.5 276L442.5 389L441.5 389ZM426 260.5L416 260.5L416 259.5L426 259.5L426 260.5ZM441.5 276C441.5 267.44 434.56 260.5 426 260.5L426 259.5C435.113 259.5 442.5 266.887 442.5 276L441.5 276Z" fill="#063359"/>
<path d="M467.646 183.646C467.451 183.842 467.451 184.158 467.646 184.354L470.828 187.536C471.024 187.731 471.34 187.731 471.536 187.536C471.731 187.34 471.731 187.024 471.536 186.828L468.707 184L471.536 181.172C471.731 180.976 471.731 180.66 471.536 180.464C471.34 180.269 471.024 180.269 470.828 180.464L467.646 183.646ZM494.5 389L494.5 200L493.5 200L493.5 389L494.5 389ZM478 183.5L468 183.5L468 184.5L478 184.5L478 183.5ZM494.5 200C494.5 190.887 487.113 183.5 478 183.5L478 184.5C486.56 184.5 493.5 191.44 493.5 200L494.5 200Z" fill="#063359"/>
<path d="M499.646 451.354C499.842 451.549 500.158 451.549 500.354 451.354L503.536 448.172C503.731 447.976 503.731 447.66 503.536 447.464C503.34 447.269 503.024 447.269 502.828 447.464L500 450.293L497.172 447.464C496.976 447.269 496.66 447.269 496.464 447.464C496.269 447.66 496.269 447.976 496.464 448.172L499.646 451.354ZM499.5 423.5L499.5 451L500.5 451L500.5 423.5L499.5 423.5Z" fill="#00B66F"/>
<path d="M468.354 426.646C468.158 426.451 467.842 426.451 467.646 426.646L464.464 429.828C464.269 430.024 464.269 430.34 464.464 430.536C464.66 430.731 464.976 430.731 465.172 430.536L468 427.707L470.828 430.536C471.024 430.731 471.34 430.731 471.536 430.536C471.731 430.34 471.731 430.024 471.536 429.828L468.354 426.646ZM468 442.25L468.5 442.25L468 442.25ZM468.5 456L468.5 442.25L467.5 442.25L467.5 456L468.5 456ZM468.5 442.25L468.5 427L467.5 427L467.5 442.25L468.5 442.25Z" fill="#00B66F"/>
<path d="M407.5 483.5C407.5 468.588 419.588 456.5 434.5 456.5H525.5C540.412 456.5 552.5 468.588 552.5 483.5C552.5 498.412 540.412 510.5 525.5 510.5H434.5C419.588 510.5 407.5 498.412 407.5 483.5Z" fill="#0085FD" fill-opacity="0.12"/>
<path d="M407.5 483.5C407.5 468.588 419.588 456.5 434.5 456.5H525.5C540.412 456.5 552.5 468.588 552.5 483.5C552.5 498.412 540.412 510.5 525.5 510.5H434.5C419.588 510.5 407.5 498.412 407.5 483.5Z" fill="white"/>
<path d="M407.5 483.5C407.5 468.588 419.588 456.5 434.5 456.5H525.5C540.412 456.5 552.5 468.588 552.5 483.5C552.5 498.412 540.412 510.5 525.5 510.5H434.5C419.588 510.5 407.5 498.412 407.5 483.5Z" stroke="#0085FD"/>
<path d="M444.613 480.134H427.387C427.173 480.134 427 479.96 427 479.747C427 479.534 427.173 479.36 427.387 479.36H444.613C444.827 479.36 445 479.534 445 479.747C445 479.96 444.827 480.134 444.613 480.134Z" fill="#0085FD"/>
<path d="M428.459 492.028H443.541C444.401 492.028 445.1 491.329 445.1 490.469V476.531C445.1 475.671 444.401 474.972 443.541 474.972H428.459C427.599 474.972 426.9 475.671 426.9 476.531V490.469C426.9 491.329 427.599 492.028 428.459 492.028ZM427.873 476.531C427.873 476.208 428.136 475.945 428.459 475.945H443.541C443.864 475.945 444.127 476.208 444.127 476.531V490.469C444.127 490.792 443.864 491.055 443.541 491.055H428.459C428.136 491.055 427.873 490.792 427.873 490.469V476.531Z" fill="#063359" stroke="#003359" stroke-width="0.2"/>
<path d="M442.469 477.89H435.964C435.806 477.89 435.678 477.761 435.678 477.603C435.678 477.445 435.806 477.316 435.964 477.316H442.469C442.627 477.316 442.756 477.445 442.756 477.603C442.756 477.761 442.627 477.89 442.469 477.89Z" fill="#063359" stroke="#003359" stroke-width="0.2"/>
<path d="M434.973 488.138C434.915 488.138 434.857 488.125 434.802 488.098C434.611 488.003 434.532 487.771 434.627 487.58L436.739 483.314C436.834 483.123 437.066 483.045 437.257 483.139C437.448 483.234 437.527 483.466 437.432 483.657L435.32 487.923C435.253 488.059 435.115 488.138 434.973 488.138Z" fill="#0085FD"/>
<path d="M432.559 483.283C432.672 483.171 432.853 483.171 432.965 483.283C433.077 483.395 433.077 483.576 432.965 483.689L431.105 485.549L431.034 485.619L431.105 485.69L432.965 487.55C433.077 487.662 433.077 487.844 432.965 487.956C432.909 488.012 432.836 488.04 432.762 488.04C432.689 488.04 432.616 488.012 432.56 487.956L430.426 485.822C430.314 485.71 430.314 485.529 430.426 485.417L432.559 483.283Z" fill="#063359" stroke="#003359" stroke-width="0.2"/>
<path d="M438.964 483.212L439.035 483.283C439.147 483.171 439.329 483.171 439.441 483.283C439.441 483.283 439.441 483.283 439.441 483.283L441.574 485.417C441.686 485.529 441.686 485.71 441.574 485.822L439.441 487.956C439.385 488.012 439.312 488.04 439.238 488.04C439.164 488.04 439.091 488.012 439.035 487.956C438.923 487.844 438.923 487.662 439.035 487.55L440.895 485.69L440.966 485.62L440.895 485.549L439.035 483.689C438.923 483.577 438.923 483.395 439.035 483.283L438.964 483.212ZM438.964 483.212C438.813 483.364 438.813 483.608 438.964 483.759L440.754 485.549L438.964 487.48C438.813 487.631 438.813 487.875 438.964 488.027C439.04 488.102 439.139 488.14 439.238 488.14C439.337 488.14 439.436 488.102 439.511 488.027L441.645 485.893C441.796 485.742 441.796 485.497 441.645 485.346L439.511 483.212C439.36 483.062 439.116 483.062 438.964 483.212Z" fill="#063359" stroke="#003359" stroke-width="0.2"/>
<path d="M433.856 478.025C433.401 478.036 433.332 477.338 433.78 477.259C434.328 477.162 434.411 478.014 433.856 478.025Z" fill="#063359"/>
<path d="M431.675 478.025C431.221 478.036 431.152 477.338 431.6 477.259C432.147 477.161 432.231 478.015 431.675 478.025Z" fill="#063359"/>
<path d="M429.495 478.025C428.939 478.015 429.024 477.161 429.571 477.259C430.019 477.338 429.949 478.036 429.495 478.025Z" fill="#063359"/>
<path d="M459.848 480.5H461.36V487.5H459.848V486.492C459.279 487.285 458.462 487.682 457.398 487.682C456.437 487.682 455.615 487.327 454.934 486.618C454.253 485.899 453.912 485.027 453.912 484C453.912 482.964 454.253 482.091 454.934 481.382C455.615 480.673 456.437 480.318 457.398 480.318C458.462 480.318 459.279 480.71 459.848 481.494V480.5ZM456.054 485.61C456.474 486.03 457.001 486.24 457.636 486.24C458.271 486.24 458.798 486.03 459.218 485.61C459.638 485.181 459.848 484.644 459.848 484C459.848 483.356 459.638 482.824 459.218 482.404C458.798 481.975 458.271 481.76 457.636 481.76C457.001 481.76 456.474 481.975 456.054 482.404C455.634 482.824 455.424 483.356 455.424 484C455.424 484.644 455.634 485.181 456.054 485.61ZM467.584 480.318C468.546 480.318 469.367 480.677 470.048 481.396C470.73 482.105 471.07 482.973 471.07 484C471.07 485.036 470.73 485.909 470.048 486.618C469.367 487.327 468.546 487.682 467.584 487.682C466.52 487.682 465.704 487.29 465.134 486.506V490.3H463.622V480.5H465.134V481.508C465.704 480.715 466.52 480.318 467.584 480.318ZM465.764 485.61C466.184 486.03 466.712 486.24 467.346 486.24C467.981 486.24 468.508 486.03 468.928 485.61C469.348 485.181 469.558 484.644 469.558 484C469.558 483.356 469.348 482.824 468.928 482.404C468.508 481.975 467.981 481.76 467.346 481.76C466.712 481.76 466.184 481.975 465.764 482.404C465.344 482.824 465.134 483.356 465.134 484C465.134 484.644 465.344 485.181 465.764 485.61ZM476.903 480.318C477.864 480.318 478.685 480.677 479.367 481.396C480.048 482.105 480.389 482.973 480.389 484C480.389 485.036 480.048 485.909 479.367 486.618C478.685 487.327 477.864 487.682 476.903 487.682C475.839 487.682 475.022 487.29 474.453 486.506V490.3H472.941V480.5H474.453V481.508C475.022 480.715 475.839 480.318 476.903 480.318ZM475.083 485.61C475.503 486.03 476.03 486.24 476.665 486.24C477.299 486.24 477.827 486.03 478.247 485.61C478.667 485.181 478.877 484.644 478.877 484C478.877 483.356 478.667 482.824 478.247 482.404C477.827 481.975 477.299 481.76 476.665 481.76C476.03 481.76 475.503 481.975 475.083 482.404C474.663 482.824 474.453 483.356 474.453 484C474.453 484.644 474.663 485.181 475.083 485.61ZM482.259 487.5V477.28H483.771V487.5H482.259ZM487.455 479.17C487.268 479.357 487.044 479.45 486.783 479.45C486.521 479.45 486.293 479.357 486.097 479.17C485.91 478.974 485.817 478.745 485.817 478.484C485.817 478.223 485.91 477.999 486.097 477.812C486.283 477.616 486.512 477.518 486.783 477.518C487.053 477.518 487.282 477.616 487.469 477.812C487.655 477.999 487.749 478.223 487.749 478.484C487.749 478.745 487.651 478.974 487.455 479.17ZM486.027 487.5V480.5H487.539V487.5H486.027ZM493.098 487.682C492.043 487.682 491.161 487.327 490.452 486.618C489.752 485.909 489.402 485.036 489.402 484C489.402 482.955 489.752 482.082 490.452 481.382C491.161 480.673 492.043 480.318 493.098 480.318C493.779 480.318 494.4 480.481 494.96 480.808C495.52 481.135 495.94 481.573 496.22 482.124L494.918 482.88C494.759 482.544 494.517 482.283 494.19 482.096C493.873 481.9 493.504 481.802 493.084 481.802C492.468 481.802 491.95 482.012 491.53 482.432C491.119 482.852 490.914 483.375 490.914 484C490.914 484.625 491.119 485.148 491.53 485.568C491.95 485.988 492.468 486.198 493.084 486.198C493.495 486.198 493.863 486.1 494.19 485.904C494.526 485.708 494.778 485.447 494.946 485.12L496.248 485.862C495.949 486.422 495.52 486.865 494.96 487.192C494.4 487.519 493.779 487.682 493.098 487.682ZM503.276 480.5H504.788V487.5H503.276V486.492C502.706 487.285 501.89 487.682 500.826 487.682C499.864 487.682 499.043 487.327 498.362 486.618C497.68 485.899 497.34 485.027 497.34 484C497.34 482.964 497.68 482.091 498.362 481.382C499.043 480.673 499.864 480.318 500.826 480.318C501.89 480.318 502.706 480.71 503.276 481.494V480.5ZM499.482 485.61C499.902 486.03 500.429 486.24 501.064 486.24C501.698 486.24 502.226 486.03 502.646 485.61C503.066 485.181 503.276 484.644 503.276 484C503.276 483.356 503.066 482.824 502.646 482.404C502.226 481.975 501.698 481.76 501.064 481.76C500.429 481.76 499.902 481.975 499.482 482.404C499.062 482.824 498.852 483.356 498.852 484C498.852 484.644 499.062 485.181 499.482 485.61ZM510.956 481.956H509.22V485.316C509.22 485.605 509.285 485.815 509.416 485.946C509.547 486.067 509.738 486.137 509.99 486.156C510.251 486.165 510.573 486.161 510.956 486.142V487.5C509.799 487.64 508.968 487.542 508.464 487.206C507.96 486.861 507.708 486.231 507.708 485.316V481.956H506.42V480.5H507.708V478.988L509.22 478.54V480.5H510.956V481.956ZM514.255 479.17C514.069 479.357 513.845 479.45 513.583 479.45C513.322 479.45 513.093 479.357 512.897 479.17C512.711 478.974 512.617 478.745 512.617 478.484C512.617 478.223 512.711 477.999 512.897 477.812C513.084 477.616 513.313 477.518 513.583 477.518C513.854 477.518 514.083 477.616 514.269 477.812C514.456 477.999 514.549 478.223 514.549 478.484C514.549 478.745 514.451 478.974 514.255 479.17ZM512.827 487.5V480.5H514.339V487.5H512.827ZM519.899 487.682C518.872 487.682 518 487.327 517.281 486.618C516.562 485.909 516.203 485.036 516.203 484C516.203 482.964 516.562 482.091 517.281 481.382C518 480.673 518.872 480.318 519.899 480.318C520.935 480.318 521.808 480.673 522.517 481.382C523.236 482.091 523.595 482.964 523.595 484C523.595 485.036 523.236 485.909 522.517 486.618C521.808 487.327 520.935 487.682 519.899 487.682ZM518.345 485.582C518.765 486.002 519.283 486.212 519.899 486.212C520.515 486.212 521.033 486.002 521.453 485.582C521.873 485.162 522.083 484.635 522.083 484C522.083 483.365 521.873 482.838 521.453 482.418C521.033 481.998 520.515 481.788 519.899 481.788C519.283 481.788 518.765 481.998 518.345 482.418C517.925 482.838 517.715 483.365 517.715 484C517.715 484.635 517.925 485.162 518.345 485.582ZM529.144 480.318C529.947 480.318 530.595 480.575 531.09 481.088C531.585 481.601 531.832 482.306 531.832 483.202V487.5H530.32V483.356C530.32 482.833 530.18 482.432 529.9 482.152C529.62 481.872 529.237 481.732 528.752 481.732C528.22 481.732 527.791 481.9 527.464 482.236C527.137 482.563 526.974 483.067 526.974 483.748V487.5H525.462V480.5H526.974V481.396C527.431 480.677 528.155 480.318 529.144 480.318Z" fill="#063359"/>
<path d="M411.5 556C411.5 545.23 420.23 536.5 431 536.5H528C538.77 536.5 547.5 545.23 547.5 556C547.5 566.77 538.77 575.5 528 575.5H431C420.23 575.5 411.5 566.77 411.5 556Z" fill="#02CA7C" fill-opacity="0.12"/>
<path d="M411.5 556C411.5 545.23 420.23 536.5 431 536.5H528C538.77 536.5 547.5 545.23 547.5 556C547.5 566.77 538.77 575.5 528 575.5H431C420.23 575.5 411.5 566.77 411.5 556Z" fill="white"/>
<path d="M411.5 556C411.5 545.23 420.23 536.5 431 536.5H528C538.77 536.5 547.5 545.23 547.5 556C547.5 566.77 538.77 575.5 528 575.5H431C420.23 575.5 411.5 566.77 411.5 556Z" stroke="#02CA7C"/>
<path d="M442.941 562.154C442.941 562.299 443.086 562.385 443.206 562.315L443.924 561.868C444.004 561.819 444.054 561.723 444.054 561.62V555.7L442.941 556.394V562.153V562.154Z" fill="#A6B6C4"/>
<path d="M440.501 559.575L437.166 557.497L438.5 556.669L440.496 557.912L441.609 557.224L431.613 550.996L430.5 551.691V560.103C430.5 560.205 430.55 560.297 430.635 560.345L431.353 560.792C431.468 560.868 431.617 560.776 431.617 560.63V554.872L431.615 554.87L433.614 553.623L434.946 554.457L432.945 555.7L434.059 556.389L436.055 555.146L437.388 555.974L435.393 557.222L435.386 557.218V563.198C435.391 563.267 435.421 563.327 435.476 563.365L436.499 564V563.997L436.503 564L438.505 562.757L440.501 563.997V564L440.504 563.998L440.506 564L441.355 563.472C441.359 563.469 441.364 563.466 441.368 563.461L441.524 563.365C441.579 563.333 441.614 563.268 441.614 563.203V557.224L440.501 557.912V559.575H440.501ZM431.612 553.486V552.382L432.501 552.934L431.612 553.486V553.486ZM436.499 562.619V561.506L437.392 562.062L436.499 562.619ZM436.499 560.122V558.468L440.501 560.959V562.616L436.499 560.122Z" fill="#A6B6C4"/>
<path d="M432.945 561.626C432.945 561.723 432.995 561.82 433.075 561.869L433.793 562.315C433.908 562.391 434.058 562.299 434.058 562.154V556.395L432.944 555.701V561.627L432.945 561.626Z" fill="#A6B6C4"/>
<path d="M446.5 551.691L446.486 551.681L445.387 550.996V551.001L443.386 552.239L442.053 551.411L443.79 550.329C443.905 550.254 443.905 550.076 443.79 550.001L443.071 549.554C442.991 549.505 442.892 549.505 442.807 549.554L440.94 550.717L439.608 549.888L441.349 548.812C441.464 548.736 441.464 548.559 441.349 548.483L440.631 548.036C440.551 547.988 440.451 547.988 440.366 548.036L438.5 549.199L436.628 548.036C436.548 547.988 436.449 547.988 436.364 548.036L435.645 548.483C435.531 548.559 435.531 548.736 435.645 548.812L445.383 554.872L445.387 554.869V560.631C445.387 560.776 445.532 560.868 445.652 560.793L446.41 560.319C446.465 560.287 446.5 560.223 446.5 560.158V551.692V551.691ZM445.387 553.489L444.494 552.934L445.387 552.38V553.489Z" fill="#A6B6C4"/>
<path d="M434.188 549.554C434.108 549.505 434.008 549.505 433.924 549.554L433.205 550.001C433.09 550.076 433.09 550.254 433.205 550.329L442.942 556.39L444.055 555.695L434.188 549.554Z" fill="#A6B6C4"/>
<path d="M453.823 560V549.78H455.335V560H453.823ZM459.019 551.67C458.832 551.857 458.608 551.95 458.347 551.95C458.086 551.95 457.857 551.857 457.661 551.67C457.474 551.474 457.381 551.245 457.381 550.984C457.381 550.723 457.474 550.499 457.661 550.312C457.848 550.116 458.076 550.018 458.347 550.018C458.618 550.018 458.846 550.116 459.033 550.312C459.22 550.499 459.313 550.723 459.313 550.984C459.313 551.245 459.215 551.474 459.019 551.67ZM457.591 560V553H459.103V560H457.591ZM465.041 552.818C465.843 552.818 466.492 553.075 466.987 553.588C467.481 554.101 467.729 554.806 467.729 555.702V560H466.217V555.856C466.217 555.333 466.077 554.932 465.797 554.652C465.517 554.372 465.134 554.232 464.649 554.232C464.117 554.232 463.687 554.4 463.361 554.736C463.034 555.063 462.871 555.567 462.871 556.248V560H461.359V553H462.871V553.896C463.328 553.177 464.051 552.818 465.041 552.818ZM476.045 560H474.239L471.369 556.766V560H469.857V550.2H471.369V556.094L474.085 553H475.933L472.853 556.43L476.045 560ZM478.191 557.144C478.303 557.676 478.56 558.087 478.961 558.376C479.362 558.656 479.852 558.796 480.431 558.796C481.234 558.796 481.836 558.507 482.237 557.928L483.483 558.656C482.792 559.673 481.77 560.182 480.417 560.182C479.278 560.182 478.359 559.837 477.659 559.146C476.959 558.446 476.609 557.564 476.609 556.5C476.609 555.455 476.954 554.582 477.645 553.882C478.336 553.173 479.222 552.818 480.305 552.818C481.332 552.818 482.172 553.177 482.825 553.896C483.488 554.615 483.819 555.487 483.819 556.514C483.819 556.673 483.8 556.883 483.763 557.144H478.191ZM478.177 555.912H482.293C482.19 555.343 481.952 554.913 481.579 554.624C481.215 554.335 480.786 554.19 480.291 554.19C479.731 554.19 479.264 554.344 478.891 554.652C478.518 554.96 478.28 555.38 478.177 555.912ZM487.162 554.176C487.544 553.308 488.263 552.874 489.318 552.874V554.512C488.739 554.475 488.235 554.615 487.806 554.932C487.376 555.24 487.162 555.753 487.162 556.472V560H485.65V553H487.162V554.176ZM496.151 550.2H497.663V560H496.151V558.992C495.581 559.785 494.765 560.182 493.701 560.182C492.739 560.182 491.918 559.827 491.237 559.118C490.555 558.399 490.215 557.527 490.215 556.5C490.215 555.464 490.555 554.591 491.237 553.882C491.918 553.173 492.739 552.818 493.701 552.818C494.765 552.818 495.581 553.21 496.151 553.994V550.2ZM492.357 558.11C492.777 558.53 493.304 558.74 493.939 558.74C494.573 558.74 495.101 558.53 495.521 558.11C495.941 557.681 496.151 557.144 496.151 556.5C496.151 555.856 495.941 555.324 495.521 554.904C495.101 554.475 494.573 554.26 493.939 554.26C493.304 554.26 492.777 554.475 492.357 554.904C491.937 555.324 491.727 555.856 491.727 556.5C491.727 557.144 491.937 557.681 492.357 558.11ZM500.023 556.472V555.016H505.203V556.472H500.023ZM508.99 551.67C508.803 551.857 508.579 551.95 508.318 551.95C508.056 551.95 507.828 551.857 507.632 551.67C507.445 551.474 507.352 551.245 507.352 550.984C507.352 550.723 507.445 550.499 507.632 550.312C507.818 550.116 508.047 550.018 508.318 550.018C508.588 550.018 508.817 550.116 509.004 550.312C509.19 550.499 509.284 550.723 509.284 550.984C509.284 551.245 509.186 551.474 508.99 551.67ZM507.562 560V553H509.074V560H507.562ZM515.011 552.818C515.814 552.818 516.463 553.075 516.957 553.588C517.452 554.101 517.699 554.806 517.699 555.702V560H516.187V555.856C516.187 555.333 516.047 554.932 515.767 554.652C515.487 554.372 515.105 554.232 514.619 554.232C514.087 554.232 513.658 554.4 513.331 554.736C513.005 555.063 512.841 555.567 512.841 556.248V560H511.329V553H512.841V553.896C513.299 553.177 514.022 552.818 515.011 552.818ZM521.255 551.67C521.069 551.857 520.845 551.95 520.583 551.95C520.322 551.95 520.093 551.857 519.897 551.67C519.711 551.474 519.617 551.245 519.617 550.984C519.617 550.723 519.711 550.499 519.897 550.312C520.084 550.116 520.313 550.018 520.583 550.018C520.854 550.018 521.083 550.116 521.269 550.312C521.456 550.499 521.549 550.723 521.549 550.984C521.549 551.245 521.451 551.474 521.255 551.67ZM519.827 560V553H521.339V560H519.827ZM527.501 554.456H525.765V557.816C525.765 558.105 525.83 558.315 525.961 558.446C526.092 558.567 526.283 558.637 526.535 558.656C526.796 558.665 527.118 558.661 527.501 558.642V560C526.344 560.14 525.513 560.042 525.009 559.706C524.505 559.361 524.253 558.731 524.253 557.816V554.456H522.965V553H524.253V551.488L525.765 551.04V553H527.501V554.456Z" fill="#063359"/>
<path d="M411.5 404C411.5 393.23 420.23 384.5 431 384.5H528C538.77 384.5 547.5 393.23 547.5 404C547.5 414.77 538.77 423.5 528 423.5H431C420.23 423.5 411.5 414.77 411.5 404Z" fill="#02CA7C" fill-opacity="0.12"/>
<path d="M411.5 404C411.5 393.23 420.23 384.5 431 384.5H528C538.77 384.5 547.5 393.23 547.5 404C547.5 414.77 538.77 423.5 528 423.5H431C420.23 423.5 411.5 414.77 411.5 404Z" fill="white"/>
<path d="M411.5 404C411.5 393.23 420.23 384.5 431 384.5H528C538.77 384.5 547.5 393.23 547.5 404C547.5 414.77 538.77 423.5 528 423.5H431C420.23 423.5 411.5 414.77 411.5 404Z" stroke="#02CA7C"/>
<path d="M442.941 410.154C442.941 410.299 443.086 410.385 443.206 410.315L443.924 409.868C444.004 409.819 444.054 409.723 444.054 409.62V403.7L442.941 404.394V410.153V410.154Z" fill="#A6B6C4"/>
<path d="M440.501 407.575L437.166 405.497L438.5 404.669L440.496 405.912L441.609 405.224L431.613 398.996L430.5 399.691V408.103C430.5 408.205 430.55 408.297 430.635 408.345L431.353 408.792C431.468 408.868 431.617 408.776 431.617 408.63V402.872L431.615 402.87L433.614 401.623L434.946 402.457L432.945 403.7L434.059 404.389L436.055 403.146L437.388 403.974L435.393 405.222L435.386 405.218V411.198C435.391 411.267 435.421 411.327 435.476 411.365L436.499 412V411.997L436.503 412L438.505 410.757L440.501 411.997V412L440.504 411.998L440.506 412L441.355 411.472C441.359 411.469 441.364 411.466 441.368 411.461L441.524 411.365C441.579 411.333 441.614 411.268 441.614 411.203V405.224L440.501 405.912V407.575H440.501ZM431.612 401.486V400.382L432.501 400.934L431.612 401.486V401.486ZM436.499 410.619V409.506L437.392 410.062L436.499 410.619ZM436.499 408.122V406.468L440.501 408.959V410.616L436.499 408.122Z" fill="#A6B6C4"/>
<path d="M432.945 409.626C432.945 409.723 432.995 409.82 433.075 409.869L433.793 410.315C433.908 410.391 434.058 410.299 434.058 410.154V404.395L432.944 403.701V409.627L432.945 409.626Z" fill="#A6B6C4"/>
<path d="M446.5 399.691L446.486 399.681L445.387 398.996V399.001L443.386 400.239L442.053 399.411L443.79 398.329C443.905 398.254 443.905 398.076 443.79 398.001L443.071 397.554C442.991 397.505 442.892 397.505 442.807 397.554L440.94 398.717L439.608 397.888L441.349 396.812C441.464 396.736 441.464 396.559 441.349 396.483L440.631 396.036C440.551 395.988 440.451 395.988 440.366 396.036L438.5 397.199L436.628 396.036C436.548 395.988 436.449 395.988 436.364 396.036L435.645 396.483C435.531 396.559 435.531 396.736 435.645 396.812L445.383 402.872L445.387 402.869V408.631C445.387 408.776 445.532 408.868 445.652 408.793L446.41 408.319C446.465 408.287 446.5 408.223 446.5 408.158V399.692V399.691ZM445.387 401.489L444.494 400.934L445.387 400.38V401.489Z" fill="#A6B6C4"/>
<path d="M434.188 397.554C434.108 397.505 434.008 397.505 433.924 397.554L433.205 398.001C433.09 398.076 433.09 398.254 433.205 398.329L442.942 404.39L444.055 403.695L434.188 397.554Z" fill="#A6B6C4"/>
<path d="M461.14 400.818C461.934 400.818 462.573 401.075 463.058 401.588C463.544 402.101 463.786 402.792 463.786 403.66V408H462.274V403.758C462.274 403.273 462.153 402.899 461.91 402.638C461.668 402.367 461.336 402.232 460.916 402.232C460.45 402.232 460.076 402.386 459.796 402.694C459.526 403.002 459.39 403.464 459.39 404.08V408H457.878V403.758C457.878 403.273 457.762 402.899 457.528 402.638C457.304 402.367 456.982 402.232 456.562 402.232C456.105 402.232 455.732 402.391 455.442 402.708C455.153 403.016 455.008 403.473 455.008 404.08V408H453.496V401H455.008V401.84C455.456 401.159 456.124 400.818 457.01 400.818C457.906 400.818 458.569 401.187 458.998 401.924C459.465 401.187 460.179 400.818 461.14 400.818ZM467.332 399.67C467.146 399.857 466.922 399.95 466.66 399.95C466.399 399.95 466.17 399.857 465.974 399.67C465.788 399.474 465.694 399.245 465.694 398.984C465.694 398.723 465.788 398.499 465.974 398.312C466.161 398.116 466.39 398.018 466.66 398.018C466.931 398.018 467.16 398.116 467.346 398.312C467.533 398.499 467.626 398.723 467.626 398.984C467.626 399.245 467.528 399.474 467.332 399.67ZM465.904 408V401H467.416V408H465.904ZM472.976 408.182C471.921 408.182 471.039 407.827 470.33 407.118C469.63 406.409 469.28 405.536 469.28 404.5C469.28 403.455 469.63 402.582 470.33 401.882C471.039 401.173 471.921 400.818 472.976 400.818C473.657 400.818 474.278 400.981 474.838 401.308C475.398 401.635 475.818 402.073 476.098 402.624L474.796 403.38C474.637 403.044 474.395 402.783 474.068 402.596C473.751 402.4 473.382 402.302 472.962 402.302C472.346 402.302 471.828 402.512 471.408 402.932C470.997 403.352 470.792 403.875 470.792 404.5C470.792 405.125 470.997 405.648 471.408 406.068C471.828 406.488 472.346 406.698 472.962 406.698C473.373 406.698 473.741 406.6 474.068 406.404C474.404 406.208 474.656 405.947 474.824 405.62L476.126 406.362C475.827 406.922 475.398 407.365 474.838 407.692C474.278 408.019 473.657 408.182 472.976 408.182ZM479.272 402.176C479.655 401.308 480.373 400.874 481.428 400.874V402.512C480.849 402.475 480.345 402.615 479.916 402.932C479.487 403.24 479.272 403.753 479.272 404.472V408H477.76V401H479.272V402.176ZM486.021 408.182C484.994 408.182 484.122 407.827 483.403 407.118C482.684 406.409 482.325 405.536 482.325 404.5C482.325 403.464 482.684 402.591 483.403 401.882C484.122 401.173 484.994 400.818 486.021 400.818C487.057 400.818 487.93 401.173 488.639 401.882C489.358 402.591 489.717 403.464 489.717 404.5C489.717 405.536 489.358 406.409 488.639 407.118C487.93 407.827 487.057 408.182 486.021 408.182ZM484.467 406.082C484.887 406.502 485.405 406.712 486.021 406.712C486.637 406.712 487.155 406.502 487.575 406.082C487.995 405.662 488.205 405.135 488.205 404.5C488.205 403.865 487.995 403.338 487.575 402.918C487.155 402.498 486.637 402.288 486.021 402.288C485.405 402.288 484.887 402.498 484.467 402.918C484.047 403.338 483.837 403.865 483.837 404.5C483.837 405.135 484.047 405.662 484.467 406.082ZM495.546 400.818C496.507 400.818 497.329 401.177 498.01 401.896C498.691 402.605 499.032 403.473 499.032 404.5C499.032 405.536 498.691 406.409 498.01 407.118C497.329 407.827 496.507 408.182 495.546 408.182C494.482 408.182 493.665 407.79 493.096 407.006V410.8H491.584V401H493.096V402.008C493.665 401.215 494.482 400.818 495.546 400.818ZM493.726 406.11C494.146 406.53 494.673 406.74 495.308 406.74C495.943 406.74 496.47 406.53 496.89 406.11C497.31 405.681 497.52 405.144 497.52 404.5C497.52 403.856 497.31 403.324 496.89 402.904C496.47 402.475 495.943 402.26 495.308 402.26C494.673 402.26 494.146 402.475 493.726 402.904C493.306 403.324 493.096 403.856 493.096 404.5C493.096 405.144 493.306 405.681 493.726 406.11ZM502.415 402.176C502.797 401.308 503.516 400.874 504.571 400.874V402.512C503.992 402.475 503.488 402.615 503.059 402.932C502.629 403.24 502.415 403.753 502.415 404.472V408H500.903V401H502.415V402.176ZM509.164 408.182C508.137 408.182 507.264 407.827 506.546 407.118C505.827 406.409 505.468 405.536 505.468 404.5C505.468 403.464 505.827 402.591 506.546 401.882C507.264 401.173 508.137 400.818 509.164 400.818C510.2 400.818 511.072 401.173 511.782 401.882C512.5 402.591 512.86 403.464 512.86 404.5C512.86 405.536 512.5 406.409 511.782 407.118C511.072 407.827 510.2 408.182 509.164 408.182ZM507.61 406.082C508.03 406.502 508.548 406.712 509.164 406.712C509.78 406.712 510.298 406.502 510.718 406.082C511.138 405.662 511.348 405.135 511.348 404.5C511.348 403.865 511.138 403.338 510.718 402.918C510.298 402.498 509.78 402.288 509.164 402.288C508.548 402.288 508.03 402.498 507.61 402.918C507.19 403.338 506.98 403.865 506.98 404.5C506.98 405.135 507.19 405.662 507.61 406.082ZM520.479 408H518.729L516.993 405.606L515.243 408H513.479L516.111 404.402L513.619 401H515.369L516.979 403.212L518.589 401H520.353L517.861 404.416L520.479 408ZM526.712 401H528.322L525.634 408.224C524.962 410.035 523.824 410.893 522.218 410.8V409.386C522.694 409.414 523.077 409.311 523.366 409.078C523.656 408.854 523.894 408.499 524.08 408.014L524.15 407.874L521.182 401H522.834L524.92 406.082L526.712 401Z" fill="#063359"/>
</g>
<defs>
<filter id="filter0_dd_2_189" x="91" y="3" width="222" height="206" filterUnits="userSpaceOnUse" color-interpolation-filters="sRGB">
<feFlood flood-opacity="0" result="BackgroundImageFix"/>
<feColorMatrix in="SourceAlpha" type="matrix" values="0 0 0 0 0 0 0 0 0 0 0 0 0 0 0 0 0 0 127 0" result="hardAlpha"/>
<feOffset dy="4"/>
<feGaussianBlur stdDeviation="25"/>
<feComposite in2="hardAlpha" operator="out"/>
<feColorMatrix type="matrix" values="0 0 0 0 0.77859 0 0 0 0 0.848154 0 0 0 0 0.90778 0 0 0 0.5 0"/>
<feBlend mode="normal" in2="BackgroundImageFix" result="effect1_dropShadow_2_189"/>
<feColorMatrix in="SourceAlpha" type="matrix" values="0 0 0 0 0 0 0 0 0 0 0 0 0 0 0 0 0 0 127 0" result="hardAlpha"/>
<feOffset/>
<feGaussianBlur stdDeviation="2"/>
<feComposite in2="hardAlpha" operator="out"/>
<feColorMatrix type="matrix" values="0 0 0 0 0.780392 0 0 0 0 0.847059 0 0 0 0 0.905882 0 0 0 1 0"/>
<feBlend mode="normal" in2="effect1_dropShadow_2_189" result="effect2_dropShadow_2_189"/>
<feBlend mode="normal" in="SourceGraphic" in2="effect2_dropShadow_2_189" result="shape"/>
</filter>
<filter id="filter1_dd_2_189" x="238" y="3" width="486" height="364" filterUnits="userSpaceOnUse" color-interpolation-filters="sRGB">
<feFlood flood-opacity="0" result="BackgroundImageFix"/>
<feColorMatrix in="SourceAlpha" type="matrix" values="0 0 0 0 0 0 0 0 0 0 0 0 0 0 0 0 0 0 127 0" result="hardAlpha"/>
<feOffset dy="4"/>
<feGaussianBlur stdDeviation="25"/>
<feComposite in2="hardAlpha" operator="out"/>
<feColorMatrix type="matrix" values="0 0 0 0 0.77859 0 0 0 0 0.848154 0 0 0 0 0.90778 0 0 0 0.5 0"/>
<feBlend mode="normal" in2="BackgroundImageFix" result="effect1_dropShadow_2_189"/>
<feColorMatrix in="SourceAlpha" type="matrix" values="0 0 0 0 0 0 0 0 0 0 0 0 0 0 0 0 0 0 127 0" result="hardAlpha"/>
<feOffset/>
<feGaussianBlur stdDeviation="2"/>
<feComposite in2="hardAlpha" operator="out"/>
<feColorMatrix type="matrix" values="0 0 0 0 0.780392 0 0 0 0 0.847059 0 0 0 0 0.905882 0 0 0 1 0"/>
<feBlend mode="normal" in2="effect1_dropShadow_2_189" result="effect2_dropShadow_2_189"/>
<feBlend mode="normal" in="SourceGraphic" in2="effect2_dropShadow_2_189" result="shape"/>
</filter>
<filter id="filter2_dd_2_189" x="318" y="322" width="326" height="335" filterUnits="userSpaceOnUse" color-interpolation-filters="sRGB">
<feFlood flood-opacity="0" result="BackgroundImageFix"/>
<feColorMatrix in="SourceAlpha" type="matrix" values="0 0 0 0 0 0 0 0 0 0 0 0 0 0 0 0 0 0 127 0" result="hardAlpha"/>
<feOffset dy="4"/>
<feGaussianBlur stdDeviation="25"/>
<feComposite in2="hardAlpha" operator="out"/>
<feColorMatrix type="matrix" values="0 0 0 0 0.77859 0 0 0 0 0.848154 0 0 0 0 0.90778 0 0 0 0.5 0"/>
<feBlend mode="normal" in2="BackgroundImageFix" result="effect1_dropShadow_2_189"/>
<feColorMatrix in="SourceAlpha" type="matrix" values="0 0 0 0 0 0 0 0 0 0 0 0 0 0 0 0 0 0 127 0" result="hardAlpha"/>
<feOffset/>
<feGaussianBlur stdDeviation="2"/>
<feComposite in2="hardAlpha" operator="out"/>
<feColorMatrix type="matrix" values="0 0 0 0 0.780392 0 0 0 0 0.847059 0 0 0 0 0.905882 0 0 0 1 0"/>
<feBlend mode="normal" in2="effect1_dropShadow_2_189" result="effect2_dropShadow_2_189"/>
<feBlend mode="normal" in="SourceGraphic" in2="effect2_dropShadow_2_189" result="shape"/>
</filter>
<clipPath id="clip0_2_189">
<rect width="816" height="653" fill="white"/>
</clipPath>
</defs>
</svg>
